G04 Layer: BottomSilkscreenLayer*
G04 EasyEDA Pro v1.7.27, 2022-09-03 12:36:09*
G04 Gerber Generator version 0.3*
G04 Scale: 100 percent, Rotated: No, Reflected: No*
G04 Dimensions in millimeters*
G04 Leading zeros omitted, absolute positions, 3 integers and 3 decimals*
%FSLAX33Y33*%
%MOMM*%
%ADD10C,0.254*%
G75*


G04 Text Start*
G04 //text: BOTTOM*
G36*
G01X55513Y28761D02*
G01X55434Y28758D01*
G01X55407Y28754D01*
G01X55365Y28744D01*
G01X55320Y28740D01*
G01X55213Y28737D01*
G01X55147Y28733D01*
G01X55085Y28726D01*
G01X55048Y28720D01*
G01X54990Y28709D01*
G01X54926Y28691D01*
G01X54834Y28674D01*
G01X54782Y28663D01*
G01X54744Y28651D01*
G01X54658Y28627D01*
G01X54612Y28610D01*
G01X54543Y28579D01*
G01X54485Y28561D01*
G01X54462Y28553D01*
G01X54427Y28534D01*
G01X54380Y28502D01*
G01X54355Y28487D01*
G01X54329Y28473D01*
G01X54248Y28437D01*
G01X54227Y28426D01*
G01X54171Y28392D01*
G01X54106Y28357D01*
G01X54071Y28334D01*
G01X54046Y28310D01*
G01X54000Y28276D01*
G01X53955Y28241D01*
G01X53917Y28207D01*
G01X53856Y28160D01*
G01X53846Y28149D01*
G01X53835Y28131D01*
G01X53830Y28124D01*
G01X53806Y28100D01*
G01X53717Y28025D01*
G01X53677Y27987D01*
G01X53649Y27958D01*
G01X53596Y27895D01*
G01X53575Y27867D01*
G01X53514Y27784D01*
G01X53436Y27681D01*
G01X53417Y27652D01*
G01X53401Y27624D01*
G01X53377Y27568D01*
G01X53354Y27528D01*
G01X53336Y27508D01*
G01X53325Y27492D01*
G01X53307Y27460D01*
G01X53273Y27381D01*
G01X53239Y27323D01*
G01X53222Y27282D01*
G01X53201Y27214D01*
G01X53170Y27144D01*
G01X53153Y27098D01*
G01X53131Y27032D01*
G01X53106Y26985D01*
G01X53096Y26962D01*
G01X53083Y26916D01*
G01X53070Y26840D01*
G01X53062Y26804D01*
G01X53053Y26771D01*
G01X53026Y26694D01*
G01X53017Y26659D01*
G01X53007Y26602D01*
G01X53002Y26564D01*
G01X52990Y26506D01*
G01X52979Y26468D01*
G01X52973Y26422D01*
G01X52970Y26342D01*
G01X52961Y26302D01*
G01X52957Y26284D01*
G01X52952Y26226D01*
G01X52949Y26117D01*
G01X52946Y25963D01*
G01X52938Y25863D01*
G01X52934Y25815D01*
G01X52932Y25776D01*
G01X52934Y25746D01*
G01X52938Y25725D01*
G01X53550D01*
G01Y25755D01*
G01X53553Y25828D01*
G01X53556Y25863D01*
G01X53561Y25886D01*
G01X53566Y25902D01*
G01X53571Y25958D01*
G01X53576Y26172D01*
G01X53582Y26222D01*
G01X53596Y26278D01*
G01X53631Y26487D01*
G01X53661Y26632D01*
G01X53688Y26741D01*
G01X53711Y26815D01*
G01X53740Y26894D01*
G01X53781Y27006D01*
G01X53804Y27067D01*
G01X53815Y27090D01*
G01X53833Y27119D01*
G01X53856Y27162D01*
G01X53886Y27231D01*
G01X53906Y27275D01*
G01X53931Y27318D01*
G01X53965Y27373D01*
G01X54016Y27444D01*
G01X54039Y27484D01*
G01X54054Y27519D01*
G01X54064Y27534D01*
G01X54077Y27548D01*
G01X54092Y27560D01*
G01X54124Y27586D01*
G01X54162Y27634D01*
G01X54191Y27663D01*
G01X54240Y27702D01*
G01X54278Y27750D01*
G01X54307Y27779D01*
G01X54340Y27802D01*
G01X54394Y27849D01*
G01X54439Y27884D01*
G01X54517Y27935D01*
G01X54561Y27958D01*
G01X54629Y27988D01*
G01X54672Y28009D01*
G01X54746Y28050D01*
G01X54777Y28065D01*
G01X54809Y28079D01*
G01X54843Y28091D01*
G01X54990Y28138D01*
G01X55083Y28155D01*
G01X55135Y28166D01*
G01X55166Y28175D01*
G01X55230Y28180D01*
G01X55420Y28183D01*
G01X55526D01*
G01X55682Y28177D01*
G01X55732Y28172D01*
G01X55870Y28149D01*
G01X55901Y28142D01*
G01X56009Y28114D01*
G01X56084Y28091D01*
G01X56148Y28068D01*
G01X56263Y28022D01*
G01X56315Y27999D01*
G01X56337Y27987D01*
G01X56390Y27956D01*
G01X56434Y27937D01*
G01X56465Y27921D01*
G01X56490Y27904D01*
G01X56517Y27884D01*
G01X56660Y27769D01*
G01X56733Y27715D01*
G01X56751Y27700D01*
G01X56777Y27668D01*
G01X56812Y27614D01*
G01X56829Y27592D01*
G01X56846Y27574D01*
G01X56863Y27560D01*
G01X56895Y27534D01*
G01X56921Y27503D01*
G01X56967Y27433D01*
G01X57025Y27341D01*
G01X57049Y27299D01*
G01X57083Y27237D01*
G01X57103Y27194D01*
G01X57132Y27122D01*
G01X57158Y27078D01*
G01X57168Y27058D01*
G01X57180Y27022D01*
G01X57193Y26967D01*
G01X57201Y26942D01*
G01X57210Y26921D01*
G01X57227Y26893D01*
G01X57237Y26871D01*
G01X57250Y26831D01*
G01X57262Y26766D01*
G01X57270Y26738D01*
G01X57280Y26714D01*
G01X57296Y26685D01*
G01X57306Y26660D01*
G01X57319Y26610D01*
G01X57331Y26523D01*
G01X57348Y26417D01*
G01X57360Y26365D01*
G01X57373Y26320D01*
G01X57379Y26287D01*
G01X57381Y26250D01*
G01X57383Y26175D01*
G01X57386Y26079D01*
G01X57389Y26047D01*
G01X57394Y26024D01*
G01X57397Y26014D01*
G01X57403Y25952D01*
G01X57406Y25805D01*
G01X57403Y25658D01*
G01X57399Y25612D01*
G01X57394Y25586D01*
G01X57391Y25570D01*
G01X57385Y25518D01*
G01X57383Y25394D01*
G01X57380Y25320D01*
G01X57374Y25272D01*
G01X57360Y25217D01*
G01X57343Y25109D01*
G01X57331Y25052D01*
G01X57317Y24994D01*
G01X57314Y24939D01*
G01X57311Y24916D01*
G01X57305Y24893D01*
G01X57296Y24870D01*
G01X57281Y24836D01*
G01X57273Y24812D01*
G01X57269Y24789D01*
G01X57267Y24754D01*
G01X57264Y24731D01*
G01X57259Y24709D01*
G01X57250Y24685D01*
G01X57224Y24627D01*
G01X57203Y24559D01*
G01X57186Y24519D01*
G01X57155Y24463D01*
G01X57137Y24408D01*
G01X57129Y24385D01*
G01X57110Y24350D01*
G01X57078Y24304D01*
G01X57063Y24278D01*
G01X57049Y24251D01*
G01X57024Y24195D01*
G01X57008Y24166D01*
G01X56989Y24137D01*
G01X56946Y24081D01*
G01X56930Y24056D01*
G01X56917Y24034D01*
G01X56903Y23999D01*
G01X56892Y23984D01*
G01X56879Y23970D01*
G01X56855Y23952D01*
G01X56826Y23926D01*
G01X56805Y23904D01*
G01X56740Y23825D01*
G01X56702Y23785D01*
G01X56672Y23757D01*
G01X56609Y23704D01*
G01X56537Y23650D01*
G01X56494Y23623D01*
G01X56378Y23554D01*
G01X56337Y23530D01*
G01X56275Y23496D01*
G01X56228Y23476D01*
G01X56160Y23455D01*
G01X56119Y23438D01*
G01X56064Y23407D01*
G01X56021Y23392D01*
G01X55865Y23357D01*
G01X55808Y23342D01*
G01X55752Y23337D01*
G01X55651Y23334D01*
G01X55544Y23331D01*
G01X55515Y23328D01*
G01X55501Y23323D01*
G01X55487Y23317D01*
G01X55466Y23323D01*
G01X55459Y23326D01*
G01X55444Y23329D01*
G01X55406Y23333D01*
G01X55253Y23338D01*
G01X55223Y23341D01*
G01X55201Y23346D01*
G01X55155Y23357D01*
G01X55046Y23376D01*
G01X55010Y23384D01*
G01X54977Y23393D01*
G01X54932Y23410D01*
G01X54820Y23450D01*
G01X54743Y23479D01*
G01X54704Y23496D01*
G01X54588Y23554D01*
G01X54508Y23600D01*
G01X54459Y23632D01*
G01X54415Y23669D01*
G01X54401Y23678D01*
G01X54386Y23686D01*
G01X54353Y23700D01*
G01X54338Y23710D01*
G01X54324Y23723D01*
G01X54312Y23738D01*
G01X54286Y23770D01*
G01X54238Y23808D01*
G01X54209Y23837D01*
G01X54171Y23886D01*
G01X54122Y23924D01*
G01X54093Y23953D01*
G01X54006Y24074D01*
G01X53985Y24108D01*
G01X53953Y24166D01*
G01X53932Y24201D01*
G01X53891Y24259D01*
G01X53876Y24284D01*
G01X53862Y24311D01*
G01X53827Y24391D01*
G01X53798Y24440D01*
G01X53788Y24461D01*
G01X53776Y24496D01*
G01X53763Y24551D01*
G01X53755Y24576D01*
G01X53745Y24597D01*
G01X53729Y24625D01*
G01X53719Y24645D01*
G01X53706Y24681D01*
G01X53685Y24769D01*
G01X53665Y24836D01*
G01X53641Y24917D01*
G01X53631Y24963D01*
G01X53608Y25101D01*
G01X53602Y25138D01*
G01X53590Y25196D01*
G01X53581Y25233D01*
G01X53575Y25288D01*
G01X53570Y25502D01*
G01X53567Y25539D01*
G01X53561Y25563D01*
G01X53557Y25579D01*
G01X53552Y25631D01*
G01X53550Y25725D01*
G01X52938D01*
G01X52941Y25713D01*
G01X52947Y25652D01*
G01X52952Y25358D01*
G01X52956Y25312D01*
G01X52961Y25286D01*
G01X52970Y25248D01*
G01X52973Y25205D01*
G01X52977Y25142D01*
G01X52984Y25101D01*
G01X52996Y25049D01*
G01X53016Y24971D01*
G01X53019Y24905D01*
G01X53026Y24865D01*
G01X53042Y24807D01*
G01X53060Y24724D01*
G01X53088Y24616D01*
G01X53105Y24560D01*
G01X53123Y24514D01*
G01X53157Y24437D01*
G01X53186Y24357D01*
G01X53227Y24246D01*
G01X53250Y24195D01*
G01X53279Y24145D01*
G01X53302Y24102D01*
G01X53331Y24033D01*
G01X53352Y23990D01*
G01X53377Y23947D01*
G01X53434Y23854D01*
G01X53446Y23837D01*
G01X53487Y23790D01*
G01X53514Y23754D01*
G01X53570Y23666D01*
G01X53617Y23612D01*
G01X53711Y23499D01*
G01X53758Y23450D01*
G01X53798Y23412D01*
G01X53814Y23400D01*
G01X53838Y23385D01*
G01X53850Y23375D01*
G01X53862Y23362D01*
G01X53886Y23329D01*
G01X53915Y23300D01*
G01X53950Y23275D01*
G01X54051Y23197D01*
G01X54116Y23150D01*
G01X54185Y23103D01*
G01X54219Y23084D01*
G01X54263Y23066D01*
G01X54291Y23052D01*
G01X54359Y23006D01*
G01X54384Y22991D01*
G01X54411Y22977D01*
G01X54439Y22965D01*
G01X54531Y22931D01*
G01X54550Y22925D01*
G01X54658Y22893D01*
G01X54704Y22873D01*
G01X54754Y22852D01*
G01X54808Y22838D01*
G01X54947Y22815D01*
G01X54984Y22809D01*
G01X55042Y22798D01*
G01X55082Y22787D01*
G01X55124Y22782D01*
G01X55247Y22777D01*
G01X55273Y22774D01*
G01X55293Y22769D01*
G01X55311Y22765D01*
G01X55369Y22759D01*
G01X55478Y22757D01*
G01X55578Y22759D01*
G01X55651Y22763D01*
G01X55686Y22769D01*
G01X55824Y22792D01*
G01X55862Y22798D01*
G01X55920Y22809D01*
G01X55978Y22823D01*
G01X56043Y22827D01*
G01X56083Y22833D01*
G01X56142Y22849D01*
G01X56222Y22868D01*
G01X56274Y22885D01*
G01X56321Y22907D01*
G01X56367Y22924D01*
G01X56439Y22945D01*
G01X56494Y22965D01*
G01X56523Y22977D01*
G01X56566Y22998D01*
G01X56651Y23047D01*
G01X56757Y23103D01*
G01X56794Y23127D01*
G01X56863Y23173D01*
G01X56909Y23207D01*
G01X56934Y23230D01*
G01X56947Y23239D01*
G01X56963Y23247D01*
G01X56996Y23261D01*
G01X57011Y23271D01*
G01X57025Y23284D01*
G01X57049Y23316D01*
G01X57078Y23345D01*
G01X57121Y23377D01*
G01X57164Y23415D01*
G01X57291Y23542D01*
G01X57311Y23565D01*
G01X57360Y23623D01*
G01X57382Y23650D01*
G01X57442Y23734D01*
G01X57519Y23835D01*
G01X57536Y23860D01*
G01X57548Y23882D01*
G01X57559Y23909D01*
G01X57574Y23937D01*
G01X57619Y24005D01*
G01X57634Y24030D01*
G01X57648Y24057D01*
G01X57683Y24137D01*
G01X57706Y24177D01*
G01X57727Y24215D01*
G01X57747Y24280D01*
G01X57765Y24321D01*
G01X57781Y24348D01*
G01X57791Y24368D01*
G01X57804Y24404D01*
G01X57816Y24459D01*
G01X57825Y24483D01*
G01X57834Y24505D01*
G01X57851Y24533D01*
G01X57861Y24556D01*
G01X57873Y24601D01*
G01X57886Y24678D01*
G01X57894Y24714D01*
G01X57903Y24747D01*
G01X57930Y24824D01*
G01X57938Y24859D01*
G01X57949Y24916D01*
G01X57955Y24953D01*
G01X57966Y25011D01*
G01X57974Y25041D01*
G01X57981Y25072D01*
G01X57984Y25152D01*
G01X57990Y25198D01*
G01X57998Y25227D01*
G01X58003Y25289D01*
G01X58010Y25583D01*
G01X58015Y25644D01*
G01X58023Y25673D01*
G01X58029Y25713D01*
G01Y25758D01*
G01X58023Y25799D01*
G01X58014Y25834D01*
G01X58009Y25896D01*
G01X58006Y26013D01*
G01Y26089D01*
G01X58000Y26210D01*
G01X57995Y26255D01*
G01X57972Y26417D01*
G01X57966Y26455D01*
G01X57955Y26513D01*
G01X57943Y26551D01*
G01X57938Y26597D01*
G01X57936Y26652D01*
G01X57931Y26677D01*
G01X57924Y26698D01*
G01X57908Y26727D01*
G01X57898Y26750D01*
G01X57886Y26795D01*
G01X57873Y26872D01*
G01X57865Y26908D01*
G01X57856Y26941D01*
G01X57810Y27064D01*
G01X57775Y27156D01*
G01X57729Y27271D01*
G01X57712Y27313D01*
G01X57683Y27376D01*
G01X57660Y27419D01*
G01X57614Y27493D01*
G01X57591Y27537D01*
G01X57539Y27641D01*
G01X57507Y27692D01*
G01X57454Y27761D01*
G01X57438Y27785D01*
G01X57425Y27807D01*
G01X57411Y27842D01*
G01X57400Y27857D01*
G01X57387Y27871D01*
G01X57371Y27884D01*
G01X57355Y27896D01*
G01X57339Y27912D01*
G01X57326Y27931D01*
G01X57301Y27974D01*
G01X57288Y27993D01*
G01X57272Y28009D01*
G01X57239Y28034D01*
G01X57210Y28063D01*
G01X57192Y28088D01*
G01X57167Y28117D01*
G01X57144Y28138D01*
G01X57090Y28182D01*
G01X57008Y28241D01*
G01X56955Y28287D01*
G01X56910Y28322D01*
G01X56864Y28357D01*
G01X56838Y28380D01*
G01X56820Y28392D01*
G01X56745Y28426D01*
G01X56704Y28449D01*
G01X56684Y28466D01*
G01X56668Y28478D01*
G01X56636Y28495D01*
G01X56568Y28524D01*
G01X56459Y28573D01*
G01X56390Y28594D01*
G01X56344Y28612D01*
G01X56275Y28643D01*
G01X56206Y28663D01*
G01X56107Y28691D01*
G01X56003Y28715D01*
G01X55947Y28730D01*
G01X55895Y28736D01*
G01X55771Y28738D01*
G01X55697Y28741D01*
G01X55650Y28747D01*
G01X55619Y28754D01*
G01X55574Y28759D01*
G37*
G36*
G01X40908Y28761D02*
G01X40838Y28758D01*
G01X40812Y28754D01*
G01X40792Y28749D01*
G01X40771Y28744D01*
G01X40722Y28740D01*
G01X40628Y28738D01*
G01X40533Y28733D01*
G01X40469Y28726D01*
G01X40431Y28720D01*
G01X40374Y28709D01*
G01X40310Y28691D01*
G01X40217Y28674D01*
G01X40165Y28663D01*
G01X40127Y28651D01*
G01X40042Y28627D01*
G01X39995Y28610D01*
G01X39926Y28579D01*
G01X39868Y28561D01*
G01X39845Y28553D01*
G01X39811Y28534D01*
G01X39764Y28502D01*
G01X39739Y28487D01*
G01X39712Y28473D01*
G01X39655Y28449D01*
G01X39612Y28427D01*
G01X39568Y28403D01*
G01X39514Y28368D01*
G01X39384Y28276D01*
G01X39338Y28241D01*
G01X39300Y28207D01*
G01X39252Y28171D01*
G01X39223Y28142D01*
G01X39185Y28094D01*
G01X39136Y28056D01*
G01X39107Y28027D01*
G01X39069Y27979D01*
G01X39020Y27941D01*
G01X38992Y27912D01*
G01X38968Y27879D01*
G01X38928Y27831D01*
G01X38900Y27795D01*
G01X38844Y27707D01*
G01X38830Y27689D01*
G01X38806Y27662D01*
G01X38795Y27644D01*
G01X38760Y27568D01*
G01X38737Y27528D01*
G01X38720Y27508D01*
G01X38708Y27492D01*
G01X38691Y27460D01*
G01X38656Y27381D01*
G01X38622Y27323D01*
G01X38605Y27282D01*
G01X38584Y27214D01*
G01X38553Y27144D01*
G01X38536Y27098D01*
G01X38515Y27032D01*
G01X38489Y26985D01*
G01X38479Y26962D01*
G01X38466Y26916D01*
G01X38454Y26839D01*
G01X38441Y26782D01*
G01X38414Y26693D01*
G01X38401Y26637D01*
G01X38385Y26541D01*
G01X38373Y26484D01*
G01X38363Y26444D01*
G01X38357Y26398D01*
G01X38353Y26319D01*
G01X38344Y26278D01*
G01X38341Y26261D01*
G01X38336Y26209D01*
G01X38333Y26071D01*
G01X38331Y25957D01*
G01X38327Y25876D01*
G01X38317Y25812D01*
G01X38316Y25788D01*
G01X38317Y25766D01*
G01X38321Y25747D01*
G01X38326Y25730D01*
G01Y25725D01*
G01X38933D01*
G01X38934Y25755D01*
G01X38936Y25828D01*
G01X38940Y25863D01*
G01X38945Y25886D01*
G01X38949Y25902D01*
G01X38954Y25958D01*
G01X38960Y26172D01*
G01X38965Y26222D01*
G01X38979Y26278D01*
G01X39014Y26487D01*
G01X39044Y26632D01*
G01X39072Y26741D01*
G01X39095Y26815D01*
G01X39124Y26894D01*
G01X39164Y27006D01*
G01X39187Y27067D01*
G01X39199Y27090D01*
G01X39216Y27119D01*
G01X39239Y27162D01*
G01X39269Y27231D01*
G01X39290Y27275D01*
G01X39314Y27318D01*
G01X39349Y27373D01*
G01X39399Y27444D01*
G01X39423Y27484D01*
G01X39437Y27519D01*
G01X39447Y27534D01*
G01X39460Y27548D01*
G01X39476Y27560D01*
G01X39508Y27586D01*
G01X39546Y27634D01*
G01X39575Y27663D01*
G01X39623Y27702D01*
G01X39662Y27750D01*
G01X39691Y27779D01*
G01X39724Y27802D01*
G01X39777Y27849D01*
G01X39822Y27884D01*
G01X39901Y27935D01*
G01X39944Y27958D01*
G01X40013Y27988D01*
G01X40056Y28009D01*
G01X40129Y28050D01*
G01X40160Y28065D01*
G01X40192Y28079D01*
G01X40226Y28091D01*
G01X40374Y28138D01*
G01X40467Y28155D01*
G01X40519Y28166D01*
G01X40550Y28175D01*
G01X40614Y28180D01*
G01X40804Y28183D01*
G01X40910D01*
G01X41066Y28177D01*
G01X41115Y28172D01*
G01X41254Y28149D01*
G01X41284Y28142D01*
G01X41392Y28114D01*
G01X41468Y28091D01*
G01X41531Y28068D01*
G01X41646Y28022D01*
G01X41699Y27999D01*
G01X41720Y27987D01*
G01X41773Y27956D01*
G01X41825Y27934D01*
G01X41840Y27927D01*
G01X41854Y27917D01*
G01X41878Y27896D01*
G01X41892Y27886D01*
G01X41907Y27879D01*
G01X41940Y27865D01*
G01X41955Y27855D01*
G01X41969Y27841D01*
G01X41981Y27826D01*
G01X41994Y27809D01*
G01X42010Y27794D01*
G01X42029Y27780D01*
G01X42062Y27762D01*
G01X42085Y27746D01*
G01X42120Y27714D01*
G01X42143Y27687D01*
G01X42165Y27660D01*
G01X42224Y27578D01*
G01X42253Y27549D01*
G01X42279Y27531D01*
G01X42296Y27515D01*
G01X42322Y27483D01*
G01X42339Y27456D01*
G01X42408Y27341D01*
G01X42466Y27249D01*
G01X42487Y27211D01*
G01X42507Y27145D01*
G01X42525Y27105D01*
G01X42556Y27049D01*
G01X42576Y26983D01*
G01X42594Y26943D01*
G01X42611Y26916D01*
G01X42621Y26896D01*
G01X42633Y26860D01*
G01X42654Y26772D01*
G01X42674Y26706D01*
G01X42698Y26624D01*
G01X42709Y26579D01*
G01X42732Y26440D01*
G01X42738Y26403D01*
G01X42749Y26345D01*
G01X42756Y26320D01*
G01X42762Y26287D01*
G01X42765Y26250D01*
G01X42766Y26175D01*
G01X42770Y26079D01*
G01X42773Y26047D01*
G01X42778Y26024D01*
G01X42781Y26014D01*
G01X42787Y25952D01*
G01X42789Y25805D01*
G01X42787Y25658D01*
G01X42783Y25612D01*
G01X42778Y25586D01*
G01X42774Y25570D01*
G01X42769Y25518D01*
G01X42766Y25394D01*
G01X42763Y25320D01*
G01X42758Y25272D01*
G01X42743Y25217D01*
G01X42726Y25109D01*
G01X42715Y25052D01*
G01X42703Y25013D01*
G01X42698Y24967D01*
G01X42696Y24912D01*
G01X42691Y24887D01*
G01X42684Y24866D01*
G01X42664Y24829D01*
G01X42657Y24809D01*
G01X42653Y24788D01*
G01X42651Y24754D01*
G01X42648Y24731D01*
G01X42642Y24709D01*
G01X42633Y24685D01*
G01X42607Y24627D01*
G01X42587Y24559D01*
G01X42569Y24519D01*
G01X42538Y24463D01*
G01X42518Y24398D01*
G01X42509Y24379D01*
G01X42500Y24364D01*
G01X42478Y24337D01*
G01X42469Y24322D01*
G01X42461Y24303D01*
G01X42452Y24270D01*
G01X42443Y24246D01*
G01X42425Y24212D01*
G01X42351Y24108D01*
G01X42258Y23969D01*
G01X42246Y23953D01*
G01X42217Y23924D01*
G01X42185Y23899D01*
G01X42172Y23886D01*
G01X42162Y23870D01*
G01X42147Y23837D01*
G01X42137Y23822D01*
G01X42124Y23808D01*
G01X42108Y23796D01*
G01X42063Y23762D01*
G01X42025Y23727D01*
G01X41977Y23693D01*
G01X41929Y23652D01*
G01X41906Y23635D01*
G01X41842Y23599D01*
G01X41762Y23554D01*
G01X41721Y23530D01*
G01X41658Y23496D01*
G01X41612Y23476D01*
G01X41543Y23455D01*
G01X41503Y23438D01*
G01X41447Y23407D01*
G01X41404Y23392D01*
G01X41248Y23357D01*
G01X41191Y23342D01*
G01X41136Y23337D01*
G01X41035Y23334D01*
G01X40928Y23331D01*
G01X40898Y23328D01*
G01X40884Y23323D01*
G01X40870Y23317D01*
G01X40850Y23323D01*
G01X40843Y23326D01*
G01X40827Y23329D01*
G01X40789Y23333D01*
G01X40636Y23338D01*
G01X40606Y23341D01*
G01X40584Y23346D01*
G01X40541Y23357D01*
G01X40448Y23375D01*
G01X40396Y23386D01*
G01X40359Y23398D01*
G01X40273Y23422D01*
G01X40226Y23439D01*
G01X40157Y23470D01*
G01X40089Y23491D01*
G01X40071Y23499D01*
G01X40055Y23508D01*
G01X40042Y23519D01*
G01X40028Y23531D01*
G01X40010Y23542D01*
G01X39933Y23578D01*
G01X39906Y23592D01*
G01X39881Y23606D01*
G01X39857Y23623D01*
G01X39726Y23726D01*
G01X39644Y23786D01*
G01X39615Y23815D01*
G01X39577Y23863D01*
G01X39528Y23901D01*
G01X39500Y23930D01*
G01X39475Y23965D01*
G01X39418Y24039D01*
G01X39378Y24093D01*
G01X39362Y24119D01*
G01X39337Y24166D01*
G01X39316Y24201D01*
G01X39274Y24259D01*
G01X39260Y24284D01*
G01X39246Y24311D01*
G01X39210Y24391D01*
G01X39199Y24412D01*
G01X39176Y24452D01*
G01X39159Y24493D01*
G01X39124Y24602D01*
G01X39106Y24649D01*
G01X39085Y24697D01*
G01X39078Y24720D01*
G01X39073Y24743D01*
G01X39070Y24788D01*
G01X39066Y24809D01*
G01X39059Y24829D01*
G01X39043Y24856D01*
G01X39033Y24881D01*
G01X39020Y24931D01*
G01X39008Y25018D01*
G01X38991Y25124D01*
G01X38979Y25176D01*
G01X38964Y25233D01*
G01X38959Y25288D01*
G01X38953Y25502D01*
G01X38950Y25539D01*
G01X38945Y25563D01*
G01X38941Y25579D01*
G01X38936Y25631D01*
G01X38933Y25725D01*
G01X38326D01*
G01X38330Y25678D01*
G01X38333Y25540D01*
G01X38334Y25459D01*
G01X38339Y25332D01*
G01X38344Y25286D01*
G01X38368Y25124D01*
G01X38373Y25087D01*
G01X38385Y25029D01*
G01X38396Y24989D01*
G01X38402Y24937D01*
G01X38404Y24872D01*
G01X38408Y24844D01*
G01X38415Y24820D01*
G01X38431Y24791D01*
G01X38441Y24770D01*
G01X38454Y24729D01*
G01X38466Y24664D01*
G01X38477Y24613D01*
G01X38489Y24575D01*
G01X38512Y24490D01*
G01X38530Y24450D01*
G01X38547Y24422D01*
G01X38557Y24402D01*
G01X38569Y24366D01*
G01X38582Y24311D01*
G01X38590Y24287D01*
G01X38599Y24265D01*
G01X38616Y24238D01*
G01X38639Y24194D01*
G01X38679Y24102D01*
G01X38691Y24081D01*
G01X38725Y24024D01*
G01X38761Y23957D01*
G01X38806Y23877D01*
G01X38844Y23820D01*
G01X38908Y23734D01*
G01X38924Y23710D01*
G01X38937Y23688D01*
G01X38952Y23652D01*
G01X38962Y23638D01*
G01X38975Y23624D01*
G01X38991Y23611D01*
G01X39023Y23585D01*
G01X39049Y23554D01*
G01X39072Y23525D01*
G01X39106Y23501D01*
G01X39118Y23490D01*
G01X39130Y23477D01*
G01X39154Y23445D01*
G01X39183Y23416D01*
G01X39231Y23378D01*
G01X39269Y23329D01*
G01X39298Y23300D01*
G01X39333Y23275D01*
G01X39434Y23197D01*
G01X39499Y23150D01*
G01X39586Y23093D01*
G01X39620Y23075D01*
G01X39655Y23062D01*
G01X39696Y23039D01*
G01X39753Y23000D01*
G01X39776Y22989D01*
G01X39799Y22980D01*
G01X39857Y22962D01*
G01X39926Y22931D01*
G01X39972Y22914D01*
G01X40042Y22893D01*
G01X40088Y22873D01*
G01X40137Y22852D01*
G01X40192Y22838D01*
G01X40330Y22815D01*
G01X40368Y22809D01*
G01X40426Y22798D01*
G01X40466Y22787D01*
G01X40507Y22782D01*
G01X40630Y22777D01*
G01X40657Y22774D01*
G01X40677Y22769D01*
G01X40694Y22765D01*
G01X40752Y22759D01*
G01X40861Y22757D01*
G01X40977Y22760D01*
G01X41009Y22763D01*
G01X41023Y22769D01*
G01X41027Y22772D01*
G01X41033Y22774D01*
G01X41041Y22776D01*
G01X41079Y22780D01*
G01X41115D01*
G01X41185Y22783D01*
G01X41210Y22787D01*
G01X41277Y22804D01*
G01X41485Y22838D01*
G01X41546Y22852D01*
G01X41612Y22873D01*
G01X41768Y22925D01*
G01X41877Y22965D01*
G01X41929Y22988D01*
G01X41979Y23017D01*
G01X42022Y23040D01*
G01X42090Y23070D01*
G01X42117Y23084D01*
G01X42142Y23098D01*
G01X42247Y23173D01*
G01X42293Y23207D01*
G01X42317Y23230D01*
G01X42331Y23239D01*
G01X42346Y23247D01*
G01X42379Y23261D01*
G01X42394Y23271D01*
G01X42408Y23284D01*
G01X42432Y23316D01*
G01X42461Y23345D01*
G01X42504Y23377D01*
G01X42547Y23415D01*
G01X42702Y23571D01*
G01X42731Y23606D01*
G01X42756Y23642D01*
G01X42834Y23743D01*
G01X42882Y23808D01*
G01X42940Y23900D01*
G01X42964Y23942D01*
G01X43020Y24047D01*
G01X43049Y24094D01*
G01X43072Y24137D01*
G01X43107Y24219D01*
G01X43147Y24304D01*
G01X43164Y24350D01*
G01X43185Y24420D01*
G01X43217Y24491D01*
G01X43234Y24537D01*
G01X43251Y24593D01*
G01X43297Y24749D01*
G01X43309Y24801D01*
G01X43332Y24916D01*
G01X43344Y24968D01*
G01X43358Y25018D01*
G01X43364Y25052D01*
G01X43367Y25145D01*
G01X43374Y25197D01*
G01X43378Y25217D01*
G01X43382Y25234D01*
G01X43388Y25295D01*
G01X43393Y25543D01*
G01X43399Y25598D01*
G01X43407Y25630D01*
G01X43411Y25675D01*
G01X43413Y25736D01*
G01X43410Y25814D01*
G01X43407Y25842D01*
G01X43401Y25863D01*
G01X43397Y25881D01*
G01X43392Y25942D01*
G01X43387Y26189D01*
G01X43381Y26245D01*
G01X43376Y26265D01*
G01X43369Y26296D01*
G01X43366Y26375D01*
G01X43360Y26422D01*
G01X43344Y26484D01*
G01X43332Y26544D01*
G01X43309Y26671D01*
G01X43302Y26701D01*
G01X43274Y26810D01*
G01X43234Y26943D01*
G01X43202Y27055D01*
G01X43182Y27110D01*
G01X43165Y27152D01*
G01X43113Y27266D01*
G01X43078Y27361D01*
G01X43067Y27387D01*
G01X43055Y27407D01*
G01X43038Y27428D01*
G01X43026Y27444D01*
G01X43009Y27476D01*
G01X42985Y27531D01*
G01X42964Y27575D01*
G01X42940Y27618D01*
G01X42908Y27667D01*
G01X42894Y27685D01*
G01X42876Y27705D01*
G01X42849Y27741D01*
G01X42792Y27829D01*
G01X42779Y27847D01*
G01X42743Y27886D01*
G01X42709Y27934D01*
G01X42662Y27988D01*
G01X42628Y28033D01*
G01X42602Y28065D01*
G01X42554Y28104D01*
G01X42525Y28133D01*
G01X42506Y28157D01*
G01X42490Y28175D01*
G01X42458Y28201D01*
G01X42382Y28250D01*
G01X42365Y28264D01*
G01X42339Y28287D01*
G01X42293Y28322D01*
G01X42248Y28357D01*
G01X42221Y28380D01*
G01X42204Y28392D01*
G01X42128Y28426D01*
G01X42087Y28449D01*
G01X42067Y28466D01*
G01X42052Y28478D01*
G01X42020Y28495D01*
G01X41941Y28530D01*
G01X41892Y28559D01*
G01X41871Y28569D01*
G01X41836Y28581D01*
G01X41780Y28594D01*
G01X41728Y28612D01*
G01X41658Y28643D01*
G01X41589Y28663D01*
G01X41491Y28691D01*
G01X41387Y28715D01*
G01X41330Y28730D01*
G01X41278Y28736D01*
G01X41155Y28738D01*
G01X41081Y28741D01*
G01X41033Y28747D01*
G01X41003Y28754D01*
G01X40962Y28759D01*
G37*
G36*
G01X61851Y28646D02*
G01X60897Y28640D01*
G01X60777Y28635D01*
G01X60766Y28634D01*
G01X60650Y28611D01*
G01X60512Y28588D01*
G01X60474Y28582D01*
G01X60416Y28570D01*
G01X60356Y28553D01*
G01X60243Y28527D01*
G01X60177Y28507D01*
G01X60099Y28478D01*
G01X60038Y28449D01*
G01X59929Y28402D01*
G01X59886Y28381D01*
G01X59842Y28357D01*
G01X59788Y28322D01*
G01X59738Y28287D01*
G01X59641Y28218D01*
G01X59588Y28173D01*
G01X59565Y28155D01*
G01X59548Y28145D01*
G01X59542Y28141D01*
G01X59536Y28136D01*
G01X59525Y28121D01*
G01X59495Y28070D01*
G01X59481Y28051D01*
G01X59466Y28035D01*
G01X59441Y28016D01*
G01X59425Y28001D01*
G01X59411Y27984D01*
G01X59398Y27964D01*
G01X59369Y27912D01*
G01X59340Y27877D01*
G01X59328Y27860D01*
G01X59311Y27823D01*
G01X59299Y27791D01*
G01X59271Y27713D01*
G01X59242Y27652D01*
G01X59225Y27600D01*
G01X59207Y27520D01*
G01X59192Y27461D01*
G01X59187Y27410D01*
G01X59184Y27271D01*
G01X59189Y27087D01*
G01X59807D01*
G01X59808Y27118D01*
G01X59812Y27227D01*
G01X59819Y27294D01*
G01X59826Y27335D01*
G01X59838Y27395D01*
G01X59854Y27456D01*
G01X59865Y27493D01*
G01X59877Y27525D01*
G01X59888Y27551D01*
G01X59946Y27641D01*
G01X59959Y27659D01*
G01X59984Y27689D01*
G01X60015Y27722D01*
G01X60064Y27768D01*
G01X60119Y27814D01*
G01X60148Y27836D01*
G01X60177Y27855D01*
G01X60206Y27870D01*
G01X60276Y27901D01*
G01X60364Y27941D01*
G01X60410Y27958D01*
G01X60466Y27976D01*
G01X60581Y28011D01*
G01X60627Y28022D01*
G01X60734Y28039D01*
G01X60792Y28051D01*
G01X60817Y28058D01*
G01X60860Y28061D01*
G01X61562Y28068D01*
G01X62278D01*
G01Y27133D01*
G01X62270Y26204D01*
G01X62267Y26186D01*
G01X62266Y26185D01*
G01X62265D01*
G01X62258Y26184D01*
G01X62215Y26180D01*
G01X61736Y26175D01*
G01X61337Y26178D01*
G01X61198Y26183D01*
G01X61181Y26186D01*
G01X61161Y26191D01*
G01X61120Y26196D01*
G01X61026Y26199D01*
G01X60965Y26202D01*
G01X60904Y26209D01*
G01X60743Y26233D01*
G01X60705Y26238D01*
G01X60648Y26250D01*
G01X60512Y26290D01*
G01X60437Y26313D01*
G01X60373Y26336D01*
G01X60344Y26348D01*
G01X60301Y26370D01*
G01X60258Y26394D01*
G01X60165Y26452D01*
G01X60087Y26504D01*
G01X60059Y26530D01*
G01X60038Y26552D01*
G01X59994Y26606D01*
G01X59946Y26671D01*
G01X59911Y26717D01*
G01X59894Y26736D01*
G01X59889Y26743D01*
G01X59884Y26753D01*
G01X59875Y26776D01*
G01X59859Y26854D01*
G01X59851Y26882D01*
G01X59841Y26906D01*
G01X59831Y26925D01*
G01X59825Y26935D01*
G01X59821Y26948D01*
G01X59815Y26973D01*
G01X59809Y27029D01*
G01X59807Y27087D01*
G01X59189D01*
G01Y27082D01*
G01X59196Y26995D01*
G01X59199Y26969D01*
G01X59210Y26899D01*
G01X59220Y26858D01*
G01X59236Y26804D01*
G01X59276Y26694D01*
G01X59289Y26665D01*
G01X59310Y26622D01*
G01X59334Y26579D01*
G01X59403Y26469D01*
G01X59420Y26434D01*
G01X59434Y26400D01*
G01X59444Y26386D01*
G01X59457Y26372D01*
G01X59489Y26347D01*
G01X59518Y26318D01*
G01X59537Y26293D01*
G01X59562Y26264D01*
G01X59584Y26243D01*
G01X59611Y26221D01*
G01X59683Y26168D01*
G01X59727Y26140D01*
G01X59828Y26077D01*
G01X59871Y26053D01*
G01X59953Y26019D01*
G01X60027Y25985D01*
G01X60050Y25976D01*
G01X60073Y25970D01*
G01X60096Y25967D01*
G01X60128Y25965D01*
G01X60145Y25958D01*
G01X60157Y25947D01*
G01X60165Y25932D01*
G01X60167Y25924D01*
G01Y25916D01*
G01X60164Y25908D01*
G01X60160Y25900D01*
G01X60153Y25893D01*
G01X60144Y25887D01*
G01X60132Y25881D01*
G01X60090Y25864D01*
G01X60047Y25850D01*
G01X59952Y25828D01*
G01X59911Y25817D01*
G01X59796Y25782D01*
G01X59721Y25759D01*
G01X59657Y25736D01*
G01X59631Y25725D01*
G01X59590Y25701D01*
G01X59570Y25684D01*
G01X59554Y25672D01*
G01X59522Y25655D01*
G01X59469Y25631D01*
G01X59447Y25617D01*
G01X59429Y25602D01*
G01X59403Y25570D01*
G01X59389Y25557D01*
G01X59374Y25547D01*
G01X59340Y25533D01*
G01X59326Y25522D01*
G01X59312Y25509D01*
G01X59287Y25477D01*
G01X59258Y25448D01*
G01X59225Y25423D01*
G01X59210Y25407D01*
G01X59196Y25388D01*
G01X59172Y25345D01*
G01X59158Y25326D01*
G01X59143Y25310D01*
G01X59126Y25297D01*
G01X59110Y25284D01*
G01X59095Y25265D01*
G01X59081Y25243D01*
G01X59057Y25190D01*
G01X59034Y25149D01*
G01X59012Y25123D01*
G01X59002Y25107D01*
G01X58995Y25088D01*
G01X58981Y25043D01*
G01X58964Y24997D01*
G01X58943Y24951D01*
G01X58936Y24928D01*
G01X58932Y24905D01*
G01X58929Y24859D01*
G01X58924Y24838D01*
G01X58917Y24819D01*
G01X58907Y24801D01*
G01X58904Y24796D01*
G01X58901Y24786D01*
G01X58896Y24769D01*
G01X58890Y24726D01*
G01X58886Y24677D01*
G01X58884Y24570D01*
G01Y24535D01*
G01X59507D01*
G01X59510Y24613D01*
G01X59514Y24641D01*
G01X59522Y24671D01*
G01X59527Y24703D01*
G01X59531Y24769D01*
G01X59534Y24796D01*
G01X59540Y24822D01*
G01X59548Y24847D01*
G01X59574Y24905D01*
G01X59594Y24972D01*
G01X59603Y24991D01*
G01X59612Y25007D01*
G01X59629Y25026D01*
G01X59646Y25049D01*
G01X59681Y25111D01*
G01X59695Y25130D01*
G01X59710Y25145D01*
G01X59743Y25171D01*
G01X59772Y25200D01*
G01X59810Y25248D01*
G01X59842Y25274D01*
G01X59888Y25309D01*
G01X59913Y25331D01*
G01X59929Y25341D01*
G01X59948Y25348D01*
G01X59991Y25361D01*
G01X60010Y25370D01*
G01X60025Y25379D01*
G01X60052Y25401D01*
G01X60067Y25410D01*
G01X60086Y25418D01*
G01X60130Y25430D01*
G01X60171Y25448D01*
G01X60197Y25465D01*
G01X60218Y25475D01*
G01X60253Y25487D01*
G01X60333Y25505D01*
G01X60414Y25528D01*
G01X60518Y25551D01*
G01X60567Y25566D01*
G01X60601Y25571D01*
G01X60694Y25575D01*
G01X60746Y25581D01*
G01X60786Y25591D01*
G01X60827Y25596D01*
G01X60922Y25598D01*
G01X60982Y25602D01*
G01X61096Y25613D01*
G01X61701Y25620D01*
G01X62278D01*
G01Y24535D01*
G01X62270Y23458D01*
G01X62267Y23439D01*
G01X62266Y23438D01*
G01X62265Y23437D01*
G01X62260Y23436D01*
G01X62218Y23433D01*
G01X61712Y23427D01*
G01X61297Y23429D01*
G01X61152Y23436D01*
G01X61135Y23439D01*
G01X61116Y23443D01*
G01X61064Y23449D01*
G01X60964Y23452D01*
G01X60858Y23461D01*
G01X60673Y23484D01*
G01X60535Y23508D01*
G01X60505Y23514D01*
G01X60396Y23542D01*
G01X60281Y23577D01*
G01X60212Y23600D01*
G01X60177Y23614D01*
G01X60108Y23655D01*
G01X60064Y23672D01*
G01X60021Y23693D01*
G01X59981Y23715D01*
G01X59932Y23747D01*
G01X59888Y23784D01*
G01X59874Y23793D01*
G01X59859Y23801D01*
G01X59833Y23811D01*
G01X59824Y23817D01*
G01X59805Y23831D01*
G01X59784Y23851D01*
G01X59740Y23904D01*
G01X59692Y23969D01*
G01X59657Y24015D01*
G01X59640Y24033D01*
G01X59629Y24051D01*
G01X59611Y24088D01*
G01X59600Y24119D01*
G01X59571Y24197D01*
G01X59544Y24258D01*
G01X59536Y24281D01*
G01X59532Y24304D01*
G01X59530Y24350D01*
G01X59524Y24390D01*
G01X59514Y24429D01*
G01X59509Y24474D01*
G01X59507Y24535D01*
G01X58884D01*
G01Y24523D01*
G01X58888Y24378D01*
G01X58893Y24332D01*
G01X58907Y24264D01*
G01X58923Y24205D01*
G01X58930Y24165D01*
G01X58932Y24119D01*
G01X58936Y24096D01*
G01X58943Y24074D01*
G01X58964Y24026D01*
G01X58981Y23975D01*
G01X58995Y23920D01*
G01X59002Y23897D01*
G01X59012Y23879D01*
G01X59022Y23865D01*
G01X59034Y23852D01*
G01X59045Y23834D01*
G01X59081Y23757D01*
G01X59095Y23730D01*
G01X59110Y23705D01*
G01X59143Y23658D01*
G01X59165Y23623D01*
G01X59196Y23567D01*
G01X59210Y23548D01*
G01X59225Y23532D01*
G01X59258Y23507D01*
G01X59287Y23478D01*
G01X59306Y23453D01*
G01X59331Y23424D01*
G01X59354Y23403D01*
G01X59408Y23359D01*
G01X59473Y23312D01*
G01X59695Y23173D01*
G01X59738Y23150D01*
G01X59831Y23103D01*
G01X59874Y23084D01*
G01X59911Y23069D01*
G01X60138Y22994D01*
G01X60222Y22971D01*
G01X60299Y22948D01*
G01X60339Y22943D01*
G01X60385Y22940D01*
G01X60408Y22936D01*
G01X60431Y22929D01*
G01X60460Y22916D01*
G01X60474Y22911D01*
G01X60510Y22903D01*
G01X60569Y22897D01*
G01X60658Y22896D01*
G01X60731Y22893D01*
G01X60779Y22887D01*
G01X60793Y22883D01*
G01X60824Y22881D01*
G01X61851Y22873D01*
G01X62879D01*
G01Y28646D01*
G37*
G36*
G01X43782Y28646D02*
G01X43782Y28414D01*
G01X43787Y28193D01*
G01X43791Y28143D01*
G01X43805Y28068D01*
G01X45583D01*
G01Y25528D01*
G01X45592Y22983D01*
G01X45595Y22931D01*
G01X45607Y22873D01*
G01X46184D01*
G01Y28068D01*
G01X47038D01*
G01X47836Y28074D01*
G01X47940Y28078D01*
G01X48008Y28091D01*
G01Y28646D01*
G37*
G36*
G01X50513Y28646D02*
G01X48404Y28635D01*
G01X48389Y28634D01*
G01X48331Y28622D01*
G01Y28392D01*
G01X48332Y28337D01*
G01X48337Y28207D01*
G01X48344Y28149D01*
G01X48349Y28128D01*
G01X48354Y28114D01*
G01X48355D01*
G01X48356Y28112D01*
G01X48358Y28111D01*
G01X48361Y28109D01*
G01X48366Y28106D01*
G01X48378Y28102D01*
G01X48413Y28095D01*
G01X48463Y28089D01*
G01X48594Y28080D01*
G01X49266Y28068D01*
G01X50155D01*
G01Y22873D01*
G01X50756D01*
G01Y28068D01*
G01X51587D01*
G01X52467Y28077D01*
G01X52499Y28080D01*
G01X52580Y28091D01*
G01Y28646D01*
G37*
G36*
G01X31867Y28646D02*
G01X31867Y22873D01*
G01X32445D01*
G01Y25090D01*
G01X32454Y27333D01*
G01X32456Y27387D01*
G01X32464Y27421D01*
G01X32474Y27445D01*
G01X32487Y27456D01*
G01X32502D01*
G01X32511Y27452D01*
G01X32519Y27448D01*
G01X32527Y27441D01*
G01X32534Y27433D01*
G01X32548Y27413D01*
G01X32572Y27360D01*
G01X32595Y27320D01*
G01X32618Y27292D01*
G01X32629Y27275D01*
G01X32664Y27198D01*
G01X32687Y27158D01*
G01X32705Y27138D01*
G01X32716Y27122D01*
G01X32733Y27090D01*
G01X32768Y27012D01*
G01X32780Y26990D01*
G01X32814Y26934D01*
G01X32849Y26869D01*
G01X32872Y26834D01*
G01X32889Y26815D01*
G01X32901Y26799D01*
G01X32918Y26767D01*
G01X32942Y26712D01*
G01X32963Y26668D01*
G01X32987Y26625D01*
G01X33068Y26495D01*
G01X33104Y26428D01*
G01X33149Y26348D01*
G01X33173Y26306D01*
G01X33219Y26220D01*
G01X33264Y26140D01*
G01X33343Y26013D01*
G01X33363Y25962D01*
G01X33372Y25947D01*
G01X33381Y25933D01*
G01X33403Y25907D01*
G01X33415Y25889D01*
G01X33449Y25813D01*
G01X33472Y25773D01*
G01X33490Y25753D01*
G01X33501Y25737D01*
G01X33518Y25705D01*
G01X33542Y25649D01*
G01X33564Y25606D01*
G01X33588Y25563D01*
G01X33669Y25433D01*
G01X33704Y25366D01*
G01X33725Y25332D01*
G01X33766Y25274D01*
G01X33781Y25248D01*
G01X33795Y25221D01*
G01X33819Y25166D01*
G01X33842Y25126D01*
G01X33853Y25112D01*
G01X33865Y25099D01*
G01X33876Y25080D01*
G01X33911Y25005D01*
G01X33934Y24965D01*
G01X33952Y24944D01*
G01X33963Y24929D01*
G01X33980Y24897D01*
G01X34004Y24841D01*
G01X34025Y24798D01*
G01X34050Y24754D01*
G01X34119Y24639D01*
G01X34143Y24597D01*
G01X34200Y24492D01*
G01X34246Y24417D01*
G01X34292Y24330D01*
G01X34373Y24201D01*
G01X34407Y24143D01*
G01X34581D01*
G01X34658Y24146D01*
G01X34689Y24149D01*
G01X34716Y24154D01*
G01X34739Y24160D01*
G01X34756Y24169D01*
G01X34769Y24178D01*
G01X34777Y24189D01*
G01X34788Y24210D01*
G01X34812Y24245D01*
G01X34835Y24272D01*
G01X34846Y24290D01*
G01X34881Y24366D01*
G01X34904Y24406D01*
G01X34915Y24420D01*
G01X34927Y24433D01*
G01X34939Y24452D01*
G01X34973Y24527D01*
G01X34996Y24568D01*
G01X35014Y24588D01*
G01X35025Y24603D01*
G01X35042Y24635D01*
G01X35066Y24691D01*
G01X35088Y24735D01*
G01X35112Y24778D01*
G01X35181Y24893D01*
G01X35205Y24935D01*
G01X35262Y25040D01*
G01X35308Y25116D01*
G01X35344Y25182D01*
G01X35364Y25217D01*
G01X35406Y25275D01*
G01X35421Y25300D01*
G01X35435Y25327D01*
G01X35470Y25407D01*
G01X35481Y25428D01*
G01X35516Y25485D01*
G01X35550Y25550D01*
G01X35574Y25584D01*
G01X35591Y25604D01*
G01X35603Y25619D01*
G01X35620Y25651D01*
G01X35654Y25730D01*
G01X35666Y25752D01*
G01X35701Y25808D01*
G01X35735Y25873D01*
G01X35758Y25907D01*
G01X35781Y25934D01*
G01X35793Y25952D01*
G01X35828Y26028D01*
G01X35851Y26069D01*
G01X35868Y26088D01*
G01X35880Y26105D01*
G01X35897Y26137D01*
G01X35931Y26215D01*
G01X35943Y26237D01*
G01X35978Y26293D01*
G01X36012Y26358D01*
G01X36035Y26393D01*
G01X36053Y26412D01*
G01X36064Y26428D01*
G01X36082Y26460D01*
G01X36106Y26515D01*
G01X36126Y26559D01*
G01X36151Y26602D01*
G01X36220Y26717D01*
G01X36284Y26819D01*
G01X36307Y26862D01*
G01X36336Y26930D01*
G01X36350Y26957D01*
G01X36365Y26982D01*
G01X36398Y27029D01*
G01X36421Y27064D01*
G01X36463Y27141D01*
G01X36506Y27214D01*
G01X36527Y27265D01*
G01X36535Y27280D01*
G01X36544Y27294D01*
G01X36561Y27313D01*
G01X36572Y27328D01*
G01X36590Y27360D01*
G01X36614Y27413D01*
G01X36627Y27433D01*
G01X36643Y27448D01*
G01X36659Y27456D01*
G01X36660D01*
G01Y27455D01*
G01X36661Y27454D01*
G01X36663Y27446D01*
G01X36667Y27418D01*
G01X36673Y27335D01*
G01X36693Y25170D01*
G01Y22873D01*
G01X36982D01*
G01X37201Y22876D01*
G01X37259Y22879D01*
G01X37275Y22881D01*
G01X37282Y22884D01*
G01X37283D01*
G01Y22886D01*
G01X37284Y22900D01*
G01X37294Y25713D01*
G01X37285Y28530D01*
G01X37282Y28588D01*
G01X37271Y28646D01*
G01X36971D01*
G01X36838Y28643D01*
G01X36740Y28634D01*
G01X36704Y28627D01*
G01X36676Y28619D01*
G01X36657Y28610D01*
G01X36647Y28599D01*
G01X36636Y28578D01*
G01X36613Y28543D01*
G01X36595Y28524D01*
G01X36584Y28508D01*
G01X36566Y28476D01*
G01X36543Y28420D01*
G01X36522Y28377D01*
G01X36497Y28334D01*
G01X36416Y28204D01*
G01X36382Y28139D01*
G01X36359Y28104D01*
G01X36341Y28085D01*
G01X36330Y28069D01*
G01X36312Y28037D01*
G01X36278Y27958D01*
G01X36266Y27937D01*
G01X36232Y27881D01*
G01X36185Y27794D01*
G01X36139Y27719D01*
G01X36093Y27632D01*
G01X36047Y27557D01*
G01X36012Y27490D01*
G01X35966Y27410D01*
G01X35888Y27283D01*
G01X35870Y27239D01*
G01X35851Y27196D01*
G01X35828Y27156D01*
G01X35793Y27101D01*
G01X35742Y27028D01*
G01X35727Y27003D01*
G01X35713Y26976D01*
G01X35689Y26919D01*
G01X35667Y26876D01*
G01X35643Y26833D01*
G01X35562Y26703D01*
G01X35516Y26616D01*
G01X35470Y26541D01*
G01X35423Y26455D01*
G01X35377Y26379D01*
G01X35331Y26293D01*
G01X35285Y26218D01*
G01X35239Y26132D01*
G01X35193Y26056D01*
G01X35146Y25969D01*
G01X35100Y25895D01*
G01X35065Y25828D01*
G01X35019Y25747D01*
G01X34995Y25706D01*
G01X34950Y25622D01*
G01X34927Y25587D01*
G01X34904Y25561D01*
G01X34892Y25543D01*
G01X34858Y25467D01*
G01X34835Y25426D01*
G01X34817Y25406D01*
G01X34806Y25390D01*
G01X34788Y25358D01*
G01X34765Y25303D01*
G01X34744Y25260D01*
G01X34719Y25217D01*
G01X34638Y25087D01*
G01X34615Y25043D01*
G01X34603Y25024D01*
G01X34589Y25011D01*
G01X34574Y25006D01*
G01X34558Y25008D01*
G01X34549Y25012D01*
G01X34541Y25017D01*
G01X34533Y25024D01*
G01X34526Y25032D01*
G01X34512Y25052D01*
G01X34488Y25104D01*
G01X34465Y25145D01*
G01X34448Y25165D01*
G01X34436Y25181D01*
G01X34419Y25213D01*
G01X34395Y25268D01*
G01X34374Y25312D01*
G01X34350Y25355D01*
G01X34269Y25485D01*
G01X34234Y25552D01*
G01X34188Y25632D01*
G01X34164Y25674D01*
G01X34119Y25758D01*
G01X34096Y25792D01*
G01X34073Y25819D01*
G01X34061Y25837D01*
G01X34026Y25913D01*
G01X34003Y25953D01*
G01X33986Y25973D01*
G01X33975Y25989D01*
G01X33957Y26021D01*
G01X33923Y26100D01*
G01X33911Y26121D01*
G01X33876Y26178D01*
G01X33842Y26242D01*
G01X33819Y26277D01*
G01X33801Y26297D01*
G01X33790Y26312D01*
G01X33772Y26344D01*
G01X33749Y26400D01*
G01X33728Y26443D01*
G01X33703Y26487D01*
G01X33622Y26616D01*
G01X33587Y26683D01*
G01X33566Y26717D01*
G01X33525Y26776D01*
G01X33510Y26801D01*
G01X33496Y26827D01*
G01X33461Y26908D01*
G01X33449Y26930D01*
G01X33415Y26985D01*
G01X33379Y27053D01*
G01X33334Y27133D01*
G01X33310Y27174D01*
G01X33264Y27258D01*
G01X33241Y27293D01*
G01X33218Y27320D01*
G01X33207Y27338D01*
G01X33172Y27414D01*
G01X33149Y27454D01*
G01X33137Y27468D01*
G01X33126Y27481D01*
G01X33114Y27500D01*
G01X33080Y27575D01*
G01X33057Y27616D01*
G01X33045Y27630D01*
G01X33034Y27643D01*
G01X33022Y27661D01*
G01X32987Y27737D01*
G01X32964Y27777D01*
G01X32947Y27797D01*
G01X32936Y27813D01*
G01X32918Y27845D01*
G01X32895Y27901D01*
G01X32873Y27944D01*
G01X32849Y27987D01*
G01X32768Y28117D01*
G01X32733Y28182D01*
G01X32710Y28217D01*
G01X32693Y28236D01*
G01X32682Y28252D01*
G01X32664Y28284D01*
G01X32629Y28363D01*
G01X32618Y28384D01*
G01X32583Y28440D01*
G01X32548Y28507D01*
G01X32502Y28588D01*
G01X32468Y28646D01*
G37*
G04 //text: JLCJLCJLCJLC*
G36*
G01X87393Y12409D02*
G01X87392Y12408D01*
G01X87388D01*
G01X87376D01*
G01X87365D01*
G01X87359Y12409D01*
G01X87357D01*
G01X87355Y12410D01*
G01X87352D01*
G01X87339D01*
G01X87335Y12411D01*
G01X87331Y12412D01*
G01X87324Y12413D01*
G01X87321Y12414D01*
G01X87315Y12415D01*
G01X87311Y12416D01*
G01X87301Y12419D01*
G01X87297Y12420D01*
G01X87291Y12422D01*
G01X87287Y12423D01*
G01X87285Y12424D01*
G01X87282Y12426D01*
G01X87278Y12428D01*
G01X87271Y12430D01*
G01X87267Y12432D01*
G01X87263Y12434D01*
G01X87255Y12438D01*
G01X87251Y12440D01*
G01X87250Y12441D01*
G01X87248Y12443D01*
G01X87244Y12445D01*
G01X87238Y12449D01*
G01X87235Y12451D01*
G01X87230Y12455D01*
G01X87225Y12459D01*
G01X87221Y12462D01*
G01X87216Y12466D01*
G01X87213Y12469D01*
G01X87209Y12474D01*
G01X87206Y12477D01*
G01X87201Y12481D01*
G01X87197Y12486D01*
G01X87194Y12489D01*
G01X87190Y12491D01*
G01X87189Y12493D01*
G01X87188Y12495D01*
G01X87187Y12498D01*
G01X87186Y12500D01*
G01X87185Y12501D01*
G01X87182Y12504D01*
G01X87179Y12508D01*
G01X87178Y12510D01*
G01Y12512D01*
G01X87180Y12514D01*
G01X87182Y12516D01*
G01X87186Y12518D01*
G01X87190Y12521D01*
G01X87195Y12525D01*
G01X87204Y12532D01*
G01X87214Y12540D01*
G01X87220Y12544D01*
G01X87222Y12546D01*
G01X87224Y12547D01*
G01X87225D01*
G01X87226Y12546D01*
G01X87228Y12543D01*
G01X87232Y12540D01*
G01X87235Y12537D01*
G01X87236Y12536D01*
G01X87237Y12535D01*
G01X87239Y12532D01*
G01X87240Y12531D01*
G01X87244Y12527D01*
G01X87249Y12522D01*
G01X87261Y12512D01*
G01X87265Y12508D01*
G01X87270Y12505D01*
G01X87282Y12496D01*
G01X87285Y12494D01*
G01X87288Y12493D01*
G01X87298Y12488D01*
G01X87304Y12485D01*
G01X87308Y12483D01*
G01X87320Y12479D01*
G01X87333Y12474D01*
G01X87335D01*
G01X87341Y12473D01*
G01X87352Y12471D01*
G01X87359Y12469D01*
G01X87364Y12468D01*
G01X87374D01*
G01X87378Y12467D01*
G01X87381D01*
G01X87382D01*
G01X87384D01*
G01X87388Y12468D01*
G01X87392D01*
G01X87399Y12469D01*
G01X87405Y12470D01*
G01X87410Y12471D01*
G01X87418D01*
G01X87421Y12472D01*
G01X87424Y12473D01*
G01X87430Y12474D01*
G01X87437Y12475D01*
G01X87441Y12476D01*
G01X87443Y12477D01*
G01X87448Y12480D01*
G01X87455Y12482D01*
G01X87460Y12484D01*
G01X87462Y12485D01*
G01X87469Y12489D01*
G01X87473Y12491D01*
G01X87485Y12499D01*
G01X87490Y12502D01*
G01X87498Y12507D01*
G01X87504Y12512D01*
G01X87506Y12514D01*
G01X87512Y12521D01*
G01X87516Y12525D01*
G01X87518Y12529D01*
G01X87523Y12533D01*
G01X87527Y12536D01*
G01X87540Y12554D01*
G01X87545Y12562D01*
G01X87547Y12566D01*
G01X87551Y12576D01*
G01X87554Y12580D01*
G01X87557Y12585D01*
G01X87559Y12591D01*
G01X87563Y12600D01*
G01X87567Y12610D01*
G01X87569Y12617D01*
G01X87571Y12625D01*
G01X87576Y12642D01*
G01X87577Y12646D01*
G01X87578Y12650D01*
G01X87579Y12653D01*
G01Y12659D01*
G01Y12664D01*
G01X87581Y12668D01*
G01X87582Y12674D01*
G01Y12678D01*
G01X87583Y12685D01*
G01Y12691D01*
G01X87584Y12703D01*
G01Y12707D01*
G01X87585Y12711D01*
G01X87586Y12717D01*
G01Y12730D01*
G01Y12742D01*
G01X87585Y12749D01*
G01Y12751D01*
G01X87584Y12753D01*
G01Y12757D01*
G01Y12767D01*
G01X87583Y12774D01*
G01Y12778D01*
G01Y12782D01*
G01X87582Y12784D01*
G01X87581Y12790D01*
G01X87579Y12801D01*
G01X87577Y12807D01*
G01X87576Y12811D01*
G01X87571Y12828D01*
G01X87568Y12838D01*
G01X87562Y12854D01*
G01X87560Y12861D01*
G01X87558Y12866D01*
G01X87554Y12871D01*
G01X87551Y12880D01*
G01X87549Y12883D01*
G01X87548Y12885D01*
G01X87544Y12889D01*
G01X87541Y12894D01*
G01X87535Y12904D01*
G01X87532Y12907D01*
G01X87527Y12911D01*
G01X87524Y12914D01*
G01X87522Y12918D01*
G01X87518Y12922D01*
G01X87516Y12924D01*
G01X87511Y12929D01*
G01X87505Y12934D01*
G01X87494Y12942D01*
G01X87489Y12946D01*
G01X87483Y12950D01*
G01X87478Y12952D01*
G01X87474Y12954D01*
G01X87468Y12957D01*
G01X87465Y12959D01*
G01X87463Y12960D01*
G01X87461Y12962D01*
G01X87459Y12963D01*
G01X87457D01*
G01X87451Y12965D01*
G01X87447Y12966D01*
G01X87445Y12967D01*
G01X87442Y12969D01*
G01X87440Y12970D01*
G01X87438D01*
G01X87433D01*
G01X87431Y12971D01*
G01X87428Y12972D01*
G01X87425Y12973D01*
G01X87422Y12974D01*
G01X87420Y12975D01*
G01X87418D01*
G01X87412D01*
G01X87408Y12976D01*
G01X87407Y12977D01*
G01X87402D01*
G01X87378D01*
G01X87355D01*
G01X87348D01*
G01X87343Y12975D01*
G01X87332Y12973D01*
G01X87317Y12968D01*
G01X87310Y12965D01*
G01X87298Y12960D01*
G01X87290Y12956D01*
G01X87285Y12954D01*
G01X87270Y12945D01*
G01X87267Y12942D01*
G01X87265Y12940D01*
G01X87263Y12938D01*
G01X87255Y12933D01*
G01X87251Y12930D01*
G01X87250Y12929D01*
G01X87248Y12926D01*
G01X87245Y12923D01*
G01X87241Y12920D01*
G01X87240Y12919D01*
G01X87238Y12917D01*
G01X87234Y12910D01*
G01X87233Y12908D01*
G01X87227Y12902D01*
G01X87226Y12901D01*
G01X87224D01*
G01X87222Y12902D01*
G01X87219Y12904D01*
G01X87215Y12906D01*
G01X87211Y12909D01*
G01X87206Y12913D01*
G01X87185Y12928D01*
G01X87182Y12931D01*
G01X87180Y12933D01*
G01X87178Y12934D01*
G01Y12936D01*
G01Y12938D01*
G01X87179Y12940D01*
G01X87182Y12945D01*
G01X87187Y12950D01*
G01X87191Y12955D01*
G01X87193Y12958D01*
G01X87208Y12973D01*
G01X87211Y12976D01*
G01X87214Y12979D01*
G01X87220Y12982D01*
G01X87224Y12986D01*
G01X87228Y12990D01*
G01X87233Y12993D01*
G01X87236Y12996D01*
G01X87240Y12998D01*
G01X87246Y13001D01*
G01X87249Y13002D01*
G01X87251Y13004D01*
G01X87256Y13007D01*
G01X87259Y13009D01*
G01X87262Y13010D01*
G01X87269Y13013D01*
G01X87274Y13016D01*
G01X87280Y13019D01*
G01X87283Y13020D01*
G01X87287Y13022D01*
G01X87294Y13023D01*
G01X87298Y13024D01*
G01X87300Y13025D01*
G01X87303Y13027D01*
G01X87305Y13028D01*
G01X87307D01*
G01X87312Y13029D01*
G01X87314D01*
G01X87317Y13030D01*
G01X87321Y13031D01*
G01X87323Y13032D01*
G01X87326Y13033D01*
G01X87329D01*
G01X87336Y13034D01*
G01X87339D01*
G01X87342Y13035D01*
G01X87346D01*
G01X87356Y13036D01*
G01X87364D01*
G01X87368D01*
G01X87371Y13037D01*
G01X87374D01*
G01X87376Y13038D01*
G01X87384D01*
G01X87389D01*
G01X87394Y13037D01*
G01X87396D01*
G01X87398Y13036D01*
G01X87401D01*
G01X87411D01*
G01X87419Y13035D01*
G01X87423D01*
G01X87427D01*
G01X87429Y13034D01*
G01X87435Y13033D01*
G01X87444Y13031D01*
G01X87455Y13028D01*
G01X87462Y13026D01*
G01X87470Y13022D01*
G01X87474Y13021D01*
G01X87482Y13018D01*
G01X87493Y13013D01*
G01X87500Y13010D01*
G01X87503Y13009D01*
G01X87506Y13007D01*
G01X87513Y13002D01*
G01X87516Y13001D01*
G01X87519Y13000D01*
G01X87521Y12998D01*
G01X87524Y12997D01*
G01X87533Y12990D01*
G01X87542Y12984D01*
G01X87545Y12981D01*
G01X87547Y12980D01*
G01X87548Y12977D01*
G01X87552Y12974D01*
G01X87557Y12970D01*
G01X87561Y12965D01*
G01X87564Y12962D01*
G01X87569Y12958D01*
G01X87571Y12956D01*
G01X87574Y12952D01*
G01X87579Y12947D01*
G01X87585Y12939D01*
G01X87591Y12931D01*
G01X87597Y12923D01*
G01X87600Y12918D01*
G01X87604Y12910D01*
G01X87607Y12906D01*
G01X87614Y12894D01*
G01X87616Y12890D01*
G01X87618Y12885D01*
G01X87620Y12880D01*
G01X87624Y12871D01*
G01X87627Y12864D01*
G01X87628Y12859D01*
G01X87631Y12854D01*
G01X87633Y12848D01*
G01X87635Y12837D01*
G01X87637Y12831D01*
G01X87641Y12819D01*
G01Y12816D01*
G01X87642Y12810D01*
G01X87644Y12797D01*
G01X87646Y12790D01*
G01X87647Y12786D01*
G01Y12779D01*
G01X87648Y12775D01*
G01Y12772D01*
G01X87649Y12768D01*
G01Y12739D01*
G01X87650Y12733D01*
G01X87651Y12729D01*
G01Y12725D01*
G01Y12721D01*
G01Y12716D01*
G01X87650Y12713D01*
G01X87649Y12707D01*
G01Y12676D01*
G01X87648Y12670D01*
G01X87647Y12666D01*
G01Y12662D01*
G01X87646Y12655D01*
G01X87645Y12649D01*
G01X87644Y12643D01*
G01X87643Y12639D01*
G01X87642Y12633D01*
G01X87641Y12630D01*
G01X87638Y12622D01*
G01X87637Y12618D01*
G01X87636Y12614D01*
G01X87635Y12606D01*
G01X87634Y12601D01*
G01X87633Y12599D01*
G01X87630Y12594D01*
G01X87628Y12587D01*
G01X87626Y12582D01*
G01X87623Y12575D01*
G01X87620Y12568D01*
G01X87619Y12565D01*
G01X87618Y12562D01*
G01X87614Y12555D01*
G01X87612Y12550D01*
G01X87609Y12544D01*
G01X87607Y12541D01*
G01X87606Y12539D01*
G01X87604Y12537D01*
G01X87603Y12536D01*
G01X87602Y12534D01*
G01X87601Y12531D01*
G01X87600Y12528D01*
G01X87598Y12526D01*
G01X87591Y12517D01*
G01X87585Y12507D01*
G01X87582Y12503D01*
G01X87578Y12498D01*
G01X87575Y12495D01*
G01X87572Y12491D01*
G01X87567Y12487D01*
G01X87563Y12482D01*
G01X87560Y12479D01*
G01X87555Y12476D01*
G01X87549Y12470D01*
G01X87544Y12466D01*
G01X87531Y12456D01*
G01X87525Y12452D01*
G01X87519Y12448D01*
G01X87515Y12445D01*
G01X87510Y12443D01*
G01X87504Y12440D01*
G01X87501Y12439D01*
G01X87499Y12437D01*
G01X87497Y12436D01*
G01X87493Y12433D01*
G01X87490Y12432D01*
G01X87481Y12428D01*
G01X87471Y12425D01*
G01X87464Y12422D01*
G01X87456Y12420D01*
G01X87445Y12417D01*
G01X87442Y12416D01*
G01X87420Y12413D01*
G01X87413Y12411D01*
G01X87410Y12410D01*
G01X87403D01*
G01X87399D01*
G01X87395D01*
G01X87394D01*
G01Y12409D01*
G01X87393D01*
G37*
G36*
G01X86043Y12409D02*
G01X86041Y12408D01*
G01X86038D01*
G01X86026D01*
G01X86015D01*
G01X86008Y12409D01*
G01X86007D01*
G01X86005Y12410D01*
G01X85999D01*
G01X85989D01*
G01X85986Y12411D01*
G01X85983Y12412D01*
G01X85975Y12413D01*
G01X85965Y12415D01*
G01X85960Y12416D01*
G01X85957Y12417D01*
G01X85956D01*
G01X85954Y12419D01*
G01X85951Y12420D01*
G01X85948D01*
G01X85941Y12422D01*
G01X85937Y12423D01*
G01X85935Y12424D01*
G01X85930Y12427D01*
G01X85923Y12429D01*
G01X85919Y12431D01*
G01X85907Y12438D01*
G01X85895Y12445D01*
G01X85885Y12451D01*
G01X85879Y12456D01*
G01X85864Y12468D01*
G01X85861Y12471D01*
G01X85858Y12473D01*
G01X85856Y12476D01*
G01X85854Y12479D01*
G01X85851Y12482D01*
G01X85847Y12484D01*
G01X85845Y12486D01*
G01X85844Y12489D01*
G01X85839Y12495D01*
G01X85836Y12499D01*
G01X85832Y12504D01*
G01X85830Y12508D01*
G01X85829Y12509D01*
G01Y12511D01*
G01X85828Y12512D01*
G01X85829Y12513D01*
G01X85830Y12514D01*
G01X85831Y12516D01*
G01X85838Y12519D01*
G01X85840Y12521D01*
G01X85845Y12525D01*
G01X85865Y12540D01*
G01X85869Y12543D01*
G01X85871Y12545D01*
G01X85873Y12546D01*
G01X85874Y12547D01*
G01X85876Y12546D01*
G01X85878Y12545D01*
G01X85882Y12540D01*
G01X85885Y12536D01*
G01X85888Y12533D01*
G01X85894Y12529D01*
G01X85898Y12524D01*
G01X85901Y12521D01*
G01X85906Y12517D01*
G01X85910Y12513D01*
G01X85914Y12510D01*
G01X85918Y12507D01*
G01X85921Y12504D01*
G01X85922Y12502D01*
G01X85924Y12500D01*
G01X85926Y12499D01*
G01X85930Y12498D01*
G01X85932Y12497D01*
G01X85934Y12496D01*
G01X85937Y12494D01*
G01X85941Y12491D01*
G01X85948Y12488D01*
G01X85953Y12486D01*
G01X85959Y12482D01*
G01X85962Y12481D01*
G01X85965Y12480D01*
G01X85971Y12479D01*
G01X85976Y12477D01*
G01X85981Y12475D01*
G01X85985Y12474D01*
G01X85989Y12473D01*
G01X86001Y12471D01*
G01X86009Y12469D01*
G01X86011D01*
G01X86024Y12468D01*
G01X86028D01*
G01X86029Y12467D01*
G01X86031D01*
G01X86032D01*
G01X86034D01*
G01X86038Y12468D01*
G01X86042D01*
G01X86049Y12469D01*
G01X86055Y12470D01*
G01X86059Y12471D01*
G01X86068D01*
G01X86071Y12472D01*
G01X86074Y12473D01*
G01X86080Y12474D01*
G01X86086Y12475D01*
G01X86090Y12476D01*
G01X86093Y12477D01*
G01X86100Y12480D01*
G01X86108Y12483D01*
G01X86112Y12485D01*
G01X86119Y12489D01*
G01X86123Y12491D01*
G01X86131Y12496D01*
G01X86138Y12500D01*
G01X86141Y12502D01*
G01X86145Y12506D01*
G01X86154Y12512D01*
G01X86160Y12517D01*
G01X86162Y12519D01*
G01X86165Y12522D01*
G01X86168Y12526D01*
G01X86171Y12530D01*
G01X86175Y12535D01*
G01X86178Y12538D01*
G01X86181Y12541D01*
G01X86183Y12542D01*
G01X86184Y12544D01*
G01X86185Y12545D01*
G01X86187Y12549D01*
G01X86188Y12550D01*
G01Y12552D01*
G01X86191Y12555D01*
G01X86193Y12558D01*
G01X86198Y12567D01*
G01X86203Y12576D01*
G01X86205Y12580D01*
G01X86210Y12592D01*
G01X86214Y12599D01*
G01X86216Y12607D01*
G01X86218Y12611D01*
G01X86220Y12616D01*
G01X86221Y12619D01*
G01X86222Y12622D01*
G01X86224Y12632D01*
G01X86226Y12641D01*
G01X86228Y12652D01*
G01X86230Y12658D01*
G01X86231Y12662D01*
G01Y12669D01*
G01X86232Y12673D01*
G01X86233Y12676D01*
G01Y12679D01*
G01Y12687D01*
G01Y12700D01*
G01X86234Y12705D01*
G01Y12707D01*
G01X86235Y12710D01*
G01Y12714D01*
G01X86236Y12729D01*
G01X86235Y12744D01*
G01Y12749D01*
G01X86234Y12751D01*
G01Y12753D01*
G01Y12757D01*
G01X86233Y12780D01*
G01X86232Y12785D01*
G01Y12789D01*
G01X86231Y12793D01*
G01Y12798D01*
G01X86230Y12800D01*
G01X86229Y12802D01*
G01X86227Y12806D01*
G01Y12808D01*
G01X86226Y12810D01*
G01Y12815D01*
G01X86225Y12819D01*
G01Y12821D01*
G01X86221Y12832D01*
G01X86217Y12844D01*
G01X86211Y12857D01*
G01X86210Y12862D01*
G01X86207Y12866D01*
G01X86204Y12871D01*
G01X86200Y12880D01*
G01X86199Y12883D01*
G01X86197Y12885D01*
G01X86192Y12893D01*
G01X86186Y12903D01*
G01X86183Y12906D01*
G01X86179Y12910D01*
G01X86173Y12918D01*
G01X86171Y12921D01*
G01X86168Y12923D01*
G01X86163Y12927D01*
G01X86159Y12930D01*
G01X86154Y12934D01*
G01X86151Y12937D01*
G01X86148Y12940D01*
G01X86147Y12942D01*
G01X86146Y12943D01*
G01X86144Y12944D01*
G01X86141Y12945D01*
G01X86137Y12947D01*
G01X86131Y12951D01*
G01X86120Y12957D01*
G01X86113Y12961D01*
G01X86110Y12962D01*
G01X86107Y12963D01*
G01X86101Y12965D01*
G01X86097Y12966D01*
G01X86095Y12967D01*
G01X86092Y12969D01*
G01X86090Y12970D01*
G01X86088D01*
G01X86083D01*
G01X86081Y12971D01*
G01X86079Y12972D01*
G01X86075Y12974D01*
G01X86073D01*
G01X86070Y12975D01*
G01X86064D01*
G01X86059Y12976D01*
G01X86058D01*
G01X86056Y12977D01*
G01X86052D01*
G01X86027D01*
G01X86004D01*
G01X85998D01*
G01X85993Y12975D01*
G01X85984Y12973D01*
G01X85979Y12971D01*
G01X85971Y12968D01*
G01X85962Y12966D01*
G01X85957Y12964D01*
G01X85948Y12960D01*
G01X85941Y12957D01*
G01X85937Y12955D01*
G01X85936Y12954D01*
G01X85934Y12952D01*
G01X85930Y12950D01*
G01X85925Y12947D01*
G01X85923Y12945D01*
G01X85917Y12941D01*
G01X85911Y12937D01*
G01X85902Y12931D01*
G01X85899Y12928D01*
G01X85897Y12926D01*
G01X85893Y12921D01*
G01X85890Y12918D01*
G01X85889Y12916D01*
G01X85884Y12908D01*
G01X85881Y12905D01*
G01X85879Y12903D01*
G01X85878Y12902D01*
G01X85876D01*
G01X85874D01*
G01X85871Y12903D01*
G01X85868Y12905D01*
G01X85861Y12911D01*
G01X85844Y12922D01*
G01X85839Y12925D01*
G01X85834Y12930D01*
G01X85830Y12933D01*
G01X85829Y12934D01*
G01Y12935D01*
G01X85828Y12936D01*
G01X85829Y12938D01*
G01X85830Y12940D01*
G01X85831Y12942D01*
G01X85833Y12945D01*
G01X85843Y12957D01*
G01X85845Y12960D01*
G01X85848Y12962D01*
G01X85851Y12965D01*
G01X85853Y12967D01*
G01X85856Y12970D01*
G01X85860Y12975D01*
G01X85864Y12977D01*
G01X85870Y12982D01*
G01X85873Y12985D01*
G01X85879Y12990D01*
G01X85883Y12993D01*
G01X85887Y12996D01*
G01X85894Y12999D01*
G01X85907Y13008D01*
G01X85910Y13010D01*
G01X85914Y13011D01*
G01X85917Y13013D01*
G01X85925Y13016D01*
G01X85930Y13018D01*
G01X85933Y13020D01*
G01X85936Y13021D01*
G01X85938Y13022D01*
G01X85944Y13023D01*
G01X85950Y13025D01*
G01X85955Y13027D01*
G01X85958Y13028D01*
G01X85961Y13029D01*
G01X85971Y13031D01*
G01X85977Y13033D01*
G01X85981D01*
G01X85988Y13034D01*
G01X85992D01*
G01X85994Y13035D01*
G01X85998D01*
G01X86008Y13036D01*
G01X86016D01*
G01X86020D01*
G01X86023Y13037D01*
G01X86026D01*
G01X86031Y13038D01*
G01X86038D01*
G01X86043Y13037D01*
G01X86045D01*
G01X86048Y13036D01*
G01X86051D01*
G01X86061D01*
G01X86069Y13035D01*
G01X86073D01*
G01X86076D01*
G01X86079Y13034D01*
G01X86084Y13033D01*
G01X86094Y13031D01*
G01X86105Y13028D01*
G01X86112Y13026D01*
G01X86119Y13022D01*
G01X86125Y13021D01*
G01X86131Y13019D01*
G01X86134Y13018D01*
G01X86137Y13017D01*
G01X86142Y13014D01*
G01X86151Y13010D01*
G01X86156Y13007D01*
G01X86161Y13004D01*
G01X86169Y13000D01*
G01X86173Y12997D01*
G01X86184Y12990D01*
G01X86190Y12985D01*
G01X86193Y12982D01*
G01X86199Y12977D01*
G01X86209Y12968D01*
G01X86218Y12961D01*
G01X86220Y12958D01*
G01X86223Y12955D01*
G01X86229Y12948D01*
G01X86241Y12933D01*
G01X86244Y12928D01*
G01X86247Y12923D01*
G01X86250Y12918D01*
G01X86252Y12914D01*
G01X86256Y12910D01*
G01X86257Y12907D01*
G01X86259Y12904D01*
G01X86262Y12897D01*
G01X86264Y12892D01*
G01X86267Y12887D01*
G01X86270Y12882D01*
G01X86274Y12870D01*
G01X86278Y12861D01*
G01X86280Y12856D01*
G01X86282Y12851D01*
G01X86284Y12843D01*
G01X86287Y12834D01*
G01X86289Y12827D01*
G01X86292Y12813D01*
G01X86294Y12807D01*
G01X86295Y12802D01*
G01X86296Y12798D01*
G01Y12794D01*
G01Y12784D01*
G01X86297Y12780D01*
G01X86298Y12777D01*
G01Y12775D01*
G01Y12772D01*
G01X86299Y12758D01*
G01Y12753D01*
G01X86300Y12751D01*
G01Y12750D01*
G01X86301Y12745D01*
G01Y12720D01*
G01Y12698D01*
G01X86300Y12691D01*
G01X86299Y12688D01*
G01Y12683D01*
G01X86298Y12673D01*
G01Y12669D01*
G01X86297Y12666D01*
G01Y12664D01*
G01X86296Y12652D01*
G01X86295Y12647D01*
G01X86294Y12644D01*
G01X86293Y12640D01*
G01X86292Y12638D01*
G01Y12636D01*
G01X86291Y12631D01*
G01Y12627D01*
G01X86290Y12625D01*
G01X86287Y12614D01*
G01X86284Y12607D01*
G01X86282Y12598D01*
G01X86280Y12592D01*
G01X86277Y12585D01*
G01X86274Y12577D01*
G01X86270Y12568D01*
G01X86268Y12561D01*
G01X86266Y12556D01*
G01X86259Y12545D01*
G01X86256Y12540D01*
G01X86254Y12536D01*
G01X86251Y12530D01*
G01X86250Y12526D01*
G01X86248Y12525D01*
G01X86244Y12520D01*
G01X86238Y12511D01*
G01X86230Y12501D01*
G01X86227Y12497D01*
G01X86224Y12494D01*
G01X86219Y12490D01*
G01X86215Y12485D01*
G01X86212Y12482D01*
G01X86207Y12478D01*
G01X86204Y12474D01*
G01X86203Y12473D01*
G01X86201Y12471D01*
G01X86198Y12469D01*
G01X86192Y12465D01*
G01X86188Y12462D01*
G01X86183Y12457D01*
G01X86178Y12454D01*
G01X86175Y12451D01*
G01X86174Y12450D01*
G01X86169Y12448D01*
G01X86161Y12444D01*
G01X86160Y12443D01*
G01X86157Y12441D01*
G01X86155Y12440D01*
G01X86154Y12439D01*
G01X86148Y12437D01*
G01X86143Y12433D01*
G01X86141Y12432D01*
G01X86135Y12430D01*
G01X86129Y12427D01*
G01X86122Y12425D01*
G01X86117Y12423D01*
G01X86112Y12421D01*
G01X86107Y12419D01*
G01X86098Y12417D01*
G01X86092Y12416D01*
G01X86088Y12415D01*
G01X86081D01*
G01X86075Y12413D01*
G01X86069Y12412D01*
G01X86065Y12411D01*
G01X86057Y12410D01*
G01X86048D01*
G01X86045D01*
G01X86044D01*
G01X86043Y12409D01*
G37*
G36*
G01X90091Y12409D02*
G01X90090Y12408D01*
G01X90087D01*
G01X90074D01*
G01X90063D01*
G01X90057Y12409D01*
G01X90055D01*
G01X90053Y12410D01*
G01X90048D01*
G01X90038D01*
G01X90034Y12411D01*
G01X90031Y12412D01*
G01X90024Y12413D01*
G01X90014Y12415D01*
G01X90009Y12416D01*
G01X90006Y12417D01*
G01X90005D01*
G01X90002Y12419D01*
G01X90000Y12420D01*
G01X89997D01*
G01X89990Y12422D01*
G01X89986Y12423D01*
G01X89983Y12424D01*
G01X89979Y12427D01*
G01X89971Y12430D01*
G01X89967Y12432D01*
G01X89960Y12436D01*
G01X89956Y12438D01*
G01X89944Y12445D01*
G01X89934Y12451D01*
G01X89929Y12455D01*
G01X89923Y12460D01*
G01X89915Y12466D01*
G01X89909Y12471D01*
G01X89907Y12473D01*
G01X89904Y12476D01*
G01X89902Y12479D01*
G01X89899Y12482D01*
G01X89896Y12484D01*
G01X89894Y12486D01*
G01X89893Y12488D01*
G01X89890Y12492D01*
G01X89889Y12494D01*
G01X89887Y12496D01*
G01X89885Y12497D01*
G01X89884Y12499D01*
G01X89882Y12500D01*
G01X89881Y12502D01*
G01X89880Y12505D01*
G01X89879Y12507D01*
G01Y12508D01*
G01X89878D01*
G01Y12510D01*
G01Y12512D01*
G01X89879Y12513D01*
G01X89880Y12514D01*
G01X89883Y12517D01*
G01X89903Y12531D01*
G01X89907Y12535D01*
G01X89912Y12539D01*
G01X89914Y12540D01*
G01X89918Y12543D01*
G01X89919Y12545D01*
G01X89921Y12546D01*
G01X89923D01*
G01X89925Y12545D01*
G01X89928Y12544D01*
G01X89931Y12540D01*
G01X89934Y12537D01*
G01X89936Y12533D01*
G01X89939Y12530D01*
G01X89944Y12526D01*
G01X89948Y12521D01*
G01X89952Y12518D01*
G01X89960Y12512D01*
G01X89963Y12510D01*
G01X89969Y12504D01*
G01X89973Y12501D01*
G01X89976Y12499D01*
G01X89983Y12495D01*
G01X89989Y12491D01*
G01X89991Y12490D01*
G01X90005Y12484D01*
G01X90012Y12481D01*
G01X90020Y12478D01*
G01X90036Y12473D01*
G01X90042Y12472D01*
G01X90050Y12470D01*
G01X90055D01*
G01X90067Y12468D01*
G01X90075D01*
G01X90077D01*
G01X90079Y12467D01*
G01X90081D01*
G01X90082D01*
G01X90086Y12468D01*
G01X90090D01*
G01X90097Y12469D01*
G01X90103Y12470D01*
G01X90108Y12471D01*
G01X90116D01*
G01X90120Y12472D01*
G01X90122Y12473D01*
G01X90127D01*
G01X90131D01*
G01X90134Y12474D01*
G01X90136Y12475D01*
G01X90139Y12477D01*
G01X90142Y12478D01*
G01X90144Y12479D01*
G01X90150Y12480D01*
G01X90154Y12481D01*
G01X90156Y12482D01*
G01X90161Y12485D01*
G01X90172Y12491D01*
G01X90176Y12494D01*
G01X90185Y12499D01*
G01X90189Y12501D01*
G01X90191Y12503D01*
G01X90193Y12504D01*
G01X90194Y12506D01*
G01X90196Y12508D01*
G01X90198Y12509D01*
G01X90199Y12511D01*
G01X90204Y12513D01*
G01X90206Y12515D01*
G01X90208Y12516D01*
G01X90210Y12520D01*
G01X90213Y12523D01*
G01X90217Y12525D01*
G01X90221Y12529D01*
G01X90222Y12531D01*
G01X90230Y12541D01*
G01X90236Y12550D01*
G01X90241Y12557D01*
G01X90247Y12567D01*
G01X90249Y12571D01*
G01X90251Y12576D01*
G01X90254Y12583D01*
G01X90257Y12587D01*
G01X90259Y12590D01*
G01X90260Y12593D01*
G01X90262Y12599D01*
G01X90271Y12625D01*
G01X90272Y12629D01*
G01X90276Y12645D01*
G01X90278Y12654D01*
G01X90279Y12658D01*
G01Y12666D01*
G01X90280Y12671D01*
G01X90281Y12673D01*
G01Y12676D01*
G01Y12679D01*
G01X90282Y12689D01*
G01Y12697D01*
G01Y12701D01*
G01X90283Y12704D01*
G01Y12706D01*
G01X90284Y12713D01*
G01Y12729D01*
G01Y12745D01*
G01X90283Y12752D01*
G01Y12753D01*
G01Y12754D01*
G01X90282Y12760D01*
G01Y12782D01*
G01X90281Y12788D01*
G01X90280Y12792D01*
G01X90279Y12797D01*
G01X90277Y12807D01*
G01X90274Y12816D01*
G01X90272Y12826D01*
G01X90271Y12830D01*
G01X90265Y12845D01*
G01X90262Y12853D01*
G01X90255Y12868D01*
G01X90252Y12875D01*
G01X90249Y12879D01*
G01X90242Y12891D01*
G01X90239Y12896D01*
G01X90233Y12904D01*
G01X90227Y12911D01*
G01X90225Y12915D01*
G01X90222Y12918D01*
G01X90217Y12922D01*
G01X90213Y12927D01*
G01X90210Y12930D01*
G01X90201Y12936D01*
G01X90190Y12945D01*
G01X90188Y12946D01*
G01X90179Y12952D01*
G01X90175Y12954D01*
G01X90170Y12957D01*
G01X90165Y12958D01*
G01X90160Y12962D01*
G01X90156Y12963D01*
G01X90148Y12966D01*
G01X90141Y12969D01*
G01X90138Y12970D01*
G01X90135Y12971D01*
G01X90125Y12973D01*
G01X90118Y12974D01*
G01X90111Y12976D01*
G01X90106D01*
G01X90098Y12977D01*
G01X90075D01*
G01X90072D01*
G01X90053D01*
G01X90047D01*
G01X90039Y12974D01*
G01X90030Y12972D01*
G01X90003Y12963D01*
G01X89998Y12961D01*
G01X89993Y12959D01*
G01X89982Y12952D01*
G01X89970Y12945D01*
G01X89966Y12942D01*
G01X89962Y12939D01*
G01X89957Y12935D01*
G01X89954Y12933D01*
G01X89951Y12930D01*
G01X89947Y12924D01*
G01X89942Y12920D01*
G01X89939Y12917D01*
G01X89933Y12909D01*
G01X89925Y12900D01*
G01X89919Y12904D01*
G01X89915Y12906D01*
G01X89907Y12912D01*
G01X89901Y12917D01*
G01X89891Y12923D01*
G01X89887Y12926D01*
G01X89882Y12930D01*
G01X89881Y12931D01*
G01X89879Y12933D01*
G01X89878Y12934D01*
G01Y12936D01*
G01Y12939D01*
G01X89879Y12941D01*
G01X89880Y12943D01*
G01X89881Y12945D01*
G01X89885Y12947D01*
G01X89887Y12949D01*
G01X89888Y12952D01*
G01X89892Y12957D01*
G01X89895Y12961D01*
G01X89897Y12962D01*
G01X89899Y12964D01*
G01X89902Y12967D01*
G01X89906Y12972D01*
G01X89910Y12975D01*
G01X89914Y12979D01*
G01X89920Y12984D01*
G01X89925Y12987D01*
G01X89929Y12991D01*
G01X89931Y12992D01*
G01X89936Y12996D01*
G01X89956Y13008D01*
G01X89959Y13010D01*
G01X89962Y13011D01*
G01X89965Y13013D01*
G01X89974Y13016D01*
G01X89979Y13018D01*
G01X89982Y13020D01*
G01X89984Y13021D01*
G01X89987Y13022D01*
G01X89993Y13023D01*
G01X89998Y13025D01*
G01X90003Y13027D01*
G01X90006Y13028D01*
G01X90009Y13029D01*
G01X90019Y13031D01*
G01X90025Y13033D01*
G01X90030D01*
G01X90037Y13034D01*
G01X90041D01*
G01X90043Y13035D01*
G01X90046D01*
G01X90056Y13036D01*
G01X90064D01*
G01X90068D01*
G01X90072Y13037D01*
G01X90074D01*
G01X90080Y13038D01*
G01X90086D01*
G01X90092Y13037D01*
G01X90094D01*
G01X90096Y13036D01*
G01X90100D01*
G01X90110D01*
G01X90118Y13035D01*
G01X90121D01*
G01X90125D01*
G01X90127Y13034D01*
G01X90133Y13033D01*
G01X90143Y13031D01*
G01X90153Y13028D01*
G01X90161Y13026D01*
G01X90168Y13022D01*
G01X90173Y13021D01*
G01X90179Y13019D01*
G01X90182Y13018D01*
G01X90185Y13017D01*
G01X90193Y13012D01*
G01X90198Y13010D01*
G01X90205Y13007D01*
G01X90209Y13005D01*
G01X90230Y12992D01*
G01X90234Y12988D01*
G01X90240Y12984D01*
G01X90249Y12977D01*
G01X90254Y12973D01*
G01X90257Y12970D01*
G01X90259Y12967D01*
G01X90261Y12965D01*
G01X90264Y12962D01*
G01X90269Y12958D01*
G01X90272Y12954D01*
G01X90276Y12950D01*
G01X90281Y12944D01*
G01X90287Y12935D01*
G01X90289Y12933D01*
G01X90294Y12927D01*
G01X90305Y12908D01*
G01X90310Y12900D01*
G01X90316Y12888D01*
G01X90319Y12881D01*
G01X90321Y12877D01*
G01X90324Y12868D01*
G01X90328Y12861D01*
G01X90331Y12850D01*
G01X90333Y12842D01*
G01X90336Y12833D01*
G01X90338Y12827D01*
G01X90340Y12816D01*
G01X90342Y12808D01*
G01X90343Y12804D01*
G01X90344Y12800D01*
G01X90345Y12795D01*
G01Y12784D01*
G01Y12780D01*
G01X90347Y12773D01*
G01X90348Y12768D01*
G01X90349Y12766D01*
G01Y12753D01*
G01X90350Y12720D01*
G01X90349Y12682D01*
G01Y12677D01*
G01X90348Y12676D01*
G01X90347Y12671D01*
G01X90346Y12666D01*
G01X90345Y12661D01*
G01Y12657D01*
G01X90344Y12648D01*
G01Y12645D01*
G01X90342Y12640D01*
G01X90339Y12626D01*
G01X90338Y12620D01*
G01X90332Y12602D01*
G01X90330Y12594D01*
G01X90327Y12587D01*
G01X90325Y12582D01*
G01X90323Y12575D01*
G01X90318Y12564D01*
G01X90314Y12555D01*
G01X90311Y12551D01*
G01X90308Y12546D01*
G01X90304Y12537D01*
G01X90295Y12523D01*
G01X90293Y12519D01*
G01X90290Y12515D01*
G01X90285Y12510D01*
G01X90279Y12502D01*
G01X90275Y12496D01*
G01X90272Y12494D01*
G01X90269Y12491D01*
G01X90267Y12489D01*
G01X90264Y12486D01*
G01X90260Y12481D01*
G01X90255Y12477D01*
G01X90252Y12474D01*
G01X90249Y12470D01*
G01X90247Y12468D01*
G01X90245Y12467D01*
G01X90238Y12462D01*
G01X90234Y12459D01*
G01X90229Y12455D01*
G01X90220Y12449D01*
G01X90216Y12447D01*
G01X90205Y12441D01*
G01X90196Y12436D01*
G01X90191Y12433D01*
G01X90180Y12428D01*
G01X90173Y12425D01*
G01X90161Y12422D01*
G01X90148Y12417D01*
G01X90145Y12416D01*
G01X90141D01*
G01X90138Y12415D01*
G01X90132D01*
G01X90127Y12414D01*
G01X90121Y12413D01*
G01X90116Y12411D01*
G01X90113D01*
G01X90109Y12410D01*
G01X90097D01*
G01X90093D01*
G01X90092Y12409D01*
G01X90091D01*
G37*
G36*
G01X88744Y12409D02*
G01X88742Y12408D01*
G01X88738D01*
G01X88725D01*
G01X88713D01*
G01X88707Y12409D01*
G01X88705D01*
G01X88703Y12410D01*
G01X88697D01*
G01X88688D01*
G01X88684Y12411D01*
G01X88681Y12412D01*
G01X88675Y12413D01*
G01X88665Y12415D01*
G01X88659Y12416D01*
G01X88646Y12420D01*
G01X88641Y12422D01*
G01X88636Y12424D01*
G01X88631Y12427D01*
G01X88624Y12429D01*
G01X88619Y12431D01*
G01X88616Y12432D01*
G01X88610Y12436D01*
G01X88605Y12438D01*
G01X88582Y12453D01*
G01X88578Y12456D01*
G01X88573Y12460D01*
G01X88568Y12464D01*
G01X88565Y12466D01*
G01X88558Y12473D01*
G01X88553Y12478D01*
G01X88546Y12487D01*
G01X88544Y12489D01*
G01X88541Y12492D01*
G01X88538Y12494D01*
G01X88537Y12495D01*
G01X88536Y12497D01*
G01X88534Y12500D01*
G01X88533Y12502D01*
G01X88532Y12503D01*
G01X88529Y12506D01*
G01X88528Y12507D01*
G01Y12509D01*
G01Y12511D01*
G01X88529Y12513D01*
G01X88530Y12514D01*
G01X88532Y12516D01*
G01X88539Y12521D01*
G01X88543Y12523D01*
G01X88545Y12525D01*
G01X88547Y12527D01*
G01X88556Y12533D01*
G01X88560Y12536D01*
G01X88565Y12540D01*
G01X88570Y12544D01*
G01X88573Y12546D01*
G01X88574Y12547D01*
G01X88575D01*
G01X88576Y12546D01*
G01X88579Y12543D01*
G01X88582Y12540D01*
G01X88585Y12537D01*
G01X88587Y12536D01*
G01X88588Y12534D01*
G01X88589Y12531D01*
G01X88590Y12529D01*
G01X88592Y12528D01*
G01X88595Y12525D01*
G01X88598Y12522D01*
G01X88601Y12519D01*
G01X88602Y12517D01*
G01X88604Y12516D01*
G01X88609Y12513D01*
G01X88611Y12512D01*
G01X88613Y12510D01*
G01X88614Y12508D01*
G01X88615Y12507D01*
G01X88617Y12505D01*
G01X88618Y12504D01*
G01X88622Y12503D01*
G01X88626Y12500D01*
G01X88632Y12496D01*
G01X88636Y12494D01*
G01X88643Y12490D01*
G01X88648Y12487D01*
G01X88653Y12485D01*
G01X88660Y12483D01*
G01X88667Y12479D01*
G01X88672Y12478D01*
G01X88681Y12475D01*
G01X88685Y12474D01*
G01X88690Y12473D01*
G01X88700Y12471D01*
G01X88705Y12470D01*
G01X88707Y12469D01*
G01X88710D01*
G01X88722Y12468D01*
G01X88726D01*
G01X88727Y12467D01*
G01X88729D01*
G01X88731D01*
G01X88732D01*
G01X88736Y12468D01*
G01X88741D01*
G01X88749Y12469D01*
G01X88752D01*
G01X88755Y12470D01*
G01X88760Y12471D01*
G01X88768D01*
G01X88772Y12472D01*
G01X88777Y12473D01*
G01X88785Y12475D01*
G01X88791Y12477D01*
G01X88798Y12480D01*
G01X88805Y12482D01*
G01X88808Y12484D01*
G01X88811Y12485D01*
G01X88818Y12489D01*
G01X88823Y12491D01*
G01X88829Y12494D01*
G01X88832Y12496D01*
G01X88834Y12497D01*
G01X88839Y12501D01*
G01X88847Y12507D01*
G01X88853Y12512D01*
G01X88855Y12514D01*
G01X88858Y12517D01*
G01X88860Y12520D01*
G01X88863Y12523D01*
G01X88868Y12527D01*
G01X88872Y12532D01*
G01X88875Y12535D01*
G01X88879Y12538D01*
G01X88880Y12539D01*
G01X88881Y12541D01*
G01X88883Y12544D01*
G01X88885Y12548D01*
G01X88890Y12556D01*
G01X88894Y12562D01*
G01X88899Y12570D01*
G01X88903Y12579D01*
G01X88908Y12586D01*
G01X88909Y12589D01*
G01X88910Y12592D01*
G01X88912Y12599D01*
G01X88916Y12607D01*
G01X88917Y12611D01*
G01X88920Y12620D01*
G01X88921Y12624D01*
G01X88922Y12630D01*
G01X88924Y12637D01*
G01Y12640D01*
G01X88925Y12643D01*
G01X88928Y12648D01*
G01Y12651D01*
G01X88929Y12655D01*
G01Y12664D01*
G01X88930Y12669D01*
G01X88931Y12675D01*
G01X88933Y12680D01*
G01Y12684D01*
G01X88934Y12690D01*
G01Y12707D01*
G01Y12711D01*
G01X88935Y12714D01*
G01X88936Y12717D01*
G01Y12720D01*
G01Y12729D01*
G01Y12736D01*
G01Y12741D01*
G01X88935Y12745D01*
G01X88934Y12750D01*
G01Y12772D01*
G01X88933Y12778D01*
G01X88931Y12784D01*
G01X88930Y12790D01*
G01X88927Y12808D01*
G01X88926Y12812D01*
G01X88925Y12816D01*
G01X88923Y12820D01*
G01X88922Y12822D01*
G01Y12825D01*
G01Y12830D01*
G01X88921Y12832D01*
G01X88920Y12834D01*
G01X88918Y12838D01*
G01X88917Y12840D01*
G01X88916Y12842D01*
G01X88915Y12849D01*
G01X88914Y12851D01*
G01X88913Y12853D01*
G01X88911Y12855D01*
G01X88910Y12857D01*
G01X88909Y12859D01*
G01X88907Y12866D01*
G01X88905Y12870D01*
G01X88902Y12874D01*
G01X88899Y12882D01*
G01X88897Y12885D01*
G01X88895Y12888D01*
G01X88888Y12897D01*
G01X88882Y12906D01*
G01X88880Y12910D01*
G01X88878Y12911D01*
G01X88875Y12913D01*
G01X88872Y12916D01*
G01X88868Y12921D01*
G01X88863Y12925D01*
G01X88860Y12928D01*
G01X88857Y12932D01*
G01X88855Y12934D01*
G01X88853Y12936D01*
G01X88846Y12940D01*
G01X88838Y12946D01*
G01X88835Y12948D01*
G01X88833Y12950D01*
G01X88829Y12952D01*
G01X88825Y12954D01*
G01X88819Y12957D01*
G01X88817Y12958D01*
G01X88811Y12960D01*
G01X88799Y12965D01*
G01X88793Y12968D01*
G01X88785Y12970D01*
G01X88773Y12973D01*
G01X88770Y12974D01*
G01X88756Y12976D01*
G01X88750Y12977D01*
G01X88734D01*
G01X88723D01*
G01X88703D01*
G01X88696D01*
G01X88695Y12976D01*
G01X88684Y12973D01*
G01X88677Y12970D01*
G01X88668Y12968D01*
G01X88664Y12967D01*
G01X88662Y12966D01*
G01X88659Y12964D01*
G01X88655Y12962D01*
G01X88648Y12960D01*
G01X88644Y12958D01*
G01X88641Y12956D01*
G01X88635Y12954D01*
G01X88631Y12952D01*
G01X88616Y12942D01*
G01X88612Y12939D01*
G01X88607Y12935D01*
G01X88604Y12933D01*
G01X88601Y12930D01*
G01X88597Y12924D01*
G01X88593Y12922D01*
G01X88591Y12920D01*
G01X88590Y12918D01*
G01X88588Y12916D01*
G01X88584Y12910D01*
G01X88581Y12907D01*
G01X88580Y12905D01*
G01X88577Y12904D01*
G01X88575Y12903D01*
G01X88574Y12902D01*
G01X88573D01*
G01X88571Y12903D01*
G01X88569Y12904D01*
G01X88567Y12905D01*
G01X88558Y12912D01*
G01X88548Y12918D01*
G01X88544Y12921D01*
G01X88539Y12925D01*
G01X88536Y12928D01*
G01X88532Y12931D01*
G01X88530Y12933D01*
G01X88529Y12934D01*
G01X88528Y12936D01*
G01Y12938D01*
G01X88529Y12940D01*
G01X88534Y12947D01*
G01X88542Y12957D01*
G01X88545Y12961D01*
G01X88548Y12964D01*
G01X88553Y12968D01*
G01X88556Y12971D01*
G01X88557Y12973D01*
G01X88559Y12975D01*
G01X88561Y12977D01*
G01X88567Y12980D01*
G01X88570Y12983D01*
G01X88572Y12985D01*
G01X88574Y12988D01*
G01X88575Y12989D01*
G01X88577Y12990D01*
G01X88580Y12991D01*
G01X88582Y12992D01*
G01X88583Y12993D01*
G01X88586Y12996D01*
G01X88590Y12998D01*
G01X88597Y13002D01*
G01X88603Y13005D01*
G01X88605Y13007D01*
G01X88614Y13011D01*
G01X88619Y13013D01*
G01X88624Y13016D01*
G01X88630Y13019D01*
G01X88641Y13023D01*
G01X88643Y13024D01*
G01X88659Y13028D01*
G01X88670Y13031D01*
G01X88673Y13032D01*
G01X88681Y13033D01*
G01X88690Y13034D01*
G01X88702Y13035D01*
G01X88715Y13036D01*
G01X88720D01*
G01X88724Y13037D01*
G01X88729Y13038D01*
G01X88736D01*
G01X88742Y13037D01*
G01X88744D01*
G01X88746Y13036D01*
G01X88749D01*
G01X88759D01*
G01X88767Y13035D01*
G01X88771D01*
G01X88775D01*
G01X88777Y13034D01*
G01X88783Y13033D01*
G01X88792Y13031D01*
G01X88801Y13028D01*
G01X88810Y13026D01*
G01X88815Y13025D01*
G01X88822Y13021D01*
G01X88830Y13019D01*
G01X88834Y13017D01*
G01X88837Y13016D01*
G01X88847Y13011D01*
G01X88853Y13008D01*
G01X88862Y13003D01*
G01X88867Y13001D01*
G01X88872Y12998D01*
G01X88875Y12997D01*
G01X88877Y12995D01*
G01X88878Y12993D01*
G01X88879Y12992D01*
G01X88881Y12990D01*
G01X88882Y12989D01*
G01X88886Y12988D01*
G01X88888Y12987D01*
G01X88889Y12986D01*
G01X88892Y12984D01*
G01X88896Y12980D01*
G01X88900Y12977D01*
G01X88904Y12972D01*
G01X88907Y12969D01*
G01X88912Y12965D01*
G01X88916Y12960D01*
G01X88919Y12957D01*
G01X88924Y12953D01*
G01X88927Y12950D01*
G01X88932Y12943D01*
G01X88940Y12932D01*
G01X88946Y12923D01*
G01X88952Y12913D01*
G01X88959Y12901D01*
G01X88964Y12893D01*
G01X88965Y12890D01*
G01X88968Y12884D01*
G01X88970Y12879D01*
G01X88974Y12868D01*
G01X88978Y12859D01*
G01X88981Y12851D01*
G01X88983Y12846D01*
G01X88985Y12837D01*
G01X88987Y12829D01*
G01X88990Y12818D01*
G01X88991Y12812D01*
G01X88993Y12806D01*
G01Y12802D01*
G01X88996Y12785D01*
G01X88997Y12777D01*
G01X88998Y12773D01*
G01Y12771D01*
G01X88999Y12764D01*
G01Y12722D01*
G01Y12677D01*
G01X88998Y12672D01*
G01X88997Y12667D01*
G01X88996Y12661D01*
G01X88995Y12657D01*
G01X88994Y12650D01*
G01Y12646D01*
G01X88992Y12637D01*
G01X88990Y12627D01*
G01X88987Y12618D01*
G01X88985Y12610D01*
G01X88983Y12604D01*
G01X88980Y12597D01*
G01X88977Y12585D01*
G01X88976Y12584D01*
G01X88973Y12574D01*
G01X88969Y12565D01*
G01X88965Y12556D01*
G01X88962Y12549D01*
G01X88960Y12546D01*
G01X88959Y12544D01*
G01X88957Y12542D01*
G01X88954Y12538D01*
G01X88952Y12532D01*
G01X88950Y12529D01*
G01X88948Y12526D01*
G01X88940Y12515D01*
G01X88934Y12506D01*
G01X88929Y12501D01*
G01X88927Y12498D01*
G01X88924Y12496D01*
G01X88921Y12494D01*
G01X88918Y12491D01*
G01X88914Y12486D01*
G01X88912Y12483D01*
G01X88909Y12480D01*
G01X88901Y12473D01*
G01X88898Y12471D01*
G01X88896Y12468D01*
G01X88894Y12465D01*
G01X88892Y12464D01*
G01X88890Y12462D01*
G01X88884Y12459D01*
G01X88881Y12457D01*
G01X88876Y12453D01*
G01X88867Y12447D01*
G01X88863Y12444D01*
G01X88855Y12440D01*
G01X88851Y12439D01*
G01X88850Y12437D01*
G01X88848Y12436D01*
G01X88846Y12435D01*
G01X88844Y12434D01*
G01X88837Y12432D01*
G01X88831Y12428D01*
G01X88827Y12427D01*
G01X88820Y12424D01*
G01X88813Y12421D01*
G01X88810Y12420D01*
G01X88806Y12419D01*
G01X88797Y12417D01*
G01X88790Y12416D01*
G01X88783Y12414D01*
G01X88771Y12413D01*
G01X88763Y12411D01*
G01X88761Y12410D01*
G01X88753D01*
G01X88749D01*
G01X88746D01*
G01X88745D01*
G01X88744Y12409D01*
G37*
G36*
G01X88049Y12723D02*
G01X88049Y12420D01*
G01X87683D01*
G01X87681Y12428D01*
G01Y12433D01*
G01Y12454D01*
G01Y12476D01*
G01X87687Y12477D01*
G01X87688D01*
G01X87738Y12478D01*
G01X87839D01*
G01X87986D01*
G01Y13026D01*
G01X88049D01*
G01Y12723D01*
G37*
G36*
G01X90748Y12422D02*
G01X90748Y12422D01*
G01X90745D01*
G01X90713Y12421D01*
G01X90564Y12420D01*
G01X90381D01*
G01Y12478D01*
G01X90684D01*
G01Y13024D01*
G01X90692Y13025D01*
G01X90698D01*
G01X90722Y13026D01*
G01X90747D01*
G01X90748Y13017D01*
G01X90749Y13004D01*
G01X90750Y12717D01*
G01X90749Y12424D01*
G01X90748Y12422D01*
G37*
G36*
G01X89398Y12421D02*
G01X89397Y12421D01*
G01X89372Y12420D01*
G01X89214D01*
G01X89031D01*
G01Y12478D01*
G01X89336D01*
G01Y13026D01*
G01X89397D01*
G01X89398Y13020D01*
G01Y13014D01*
G01X89399Y12718D01*
G01X89398Y12423D01*
G01Y12421D01*
G37*
G36*
G01X86699Y12723D02*
G01X86699Y12420D01*
G01X86333D01*
G01Y12478D01*
G01X86636D01*
G01Y13024D01*
G01X86644Y13025D01*
G01X86649D01*
G01X86673Y13026D01*
G01X86699D01*
G01Y12723D01*
G37*
G36*
G01X86992Y12409D02*
G01X86987Y12408D01*
G01X86973D01*
G01X86969D01*
G01X86954D01*
G01X86949Y12409D01*
G01X86935Y12413D01*
G01X86919Y12417D01*
G01X86914Y12419D01*
G01X86906Y12423D01*
G01X86898Y12426D01*
G01X86895Y12427D01*
G01X86893Y12429D01*
G01X86882Y12437D01*
G01X86878Y12440D01*
G01X86874Y12445D01*
G01X86871Y12448D01*
G01X86868Y12450D01*
G01X86866Y12452D01*
G01X86865Y12454D01*
G01X86861Y12461D01*
G01X86854Y12472D01*
G01X86848Y12482D01*
G01X86846Y12485D01*
G01X86845Y12488D01*
G01X86844Y12491D01*
G01X86842Y12497D01*
G01X86841Y12500D01*
G01X86840Y12503D01*
G01X86838Y12506D01*
G01X86837Y12508D01*
G01X86836Y12511D01*
G01X86834Y12521D01*
G01X86832Y12530D01*
G01X86831Y12535D01*
G01X86830Y12542D01*
G01X86828Y12552D01*
G01X86826Y12574D01*
G01Y12585D01*
G01X86825Y12803D01*
G01X86827Y13010D01*
G01X86828Y13019D01*
G01Y13022D01*
G01Y13023D01*
G01Y13024D01*
G01X86830D01*
G01X86835Y13025D01*
G01X86842Y13026D01*
G01X86860D01*
G01X86888D01*
G01X86889Y13020D01*
G01Y13015D01*
G01X86890Y12787D01*
G01X86891Y12559D01*
G01Y12557D01*
G01X86893Y12553D01*
G01X86894Y12547D01*
G01X86896Y12534D01*
G01X86897Y12530D01*
G01X86898Y12526D01*
G01X86899Y12524D01*
G01X86902Y12519D01*
G01X86904Y12512D01*
G01X86905Y12510D01*
G01X86906Y12509D01*
G01X86908Y12506D01*
G01X86909Y12504D01*
G01X86910Y12503D01*
G01X86912Y12499D01*
G01X86913Y12498D01*
G01X86914Y12496D01*
G01X86917Y12494D01*
G01X86920Y12491D01*
G01X86923Y12487D01*
G01X86925Y12485D01*
G01X86927Y12484D01*
G01X86930Y12482D01*
G01X86939Y12477D01*
G01X86945Y12474D01*
G01X86953Y12471D01*
G01X86957Y12470D01*
G01X86963Y12469D01*
G01X86969D01*
G01X86976Y12468D01*
G01X86985Y12469D01*
G01X86992D01*
G01X86996Y12470D01*
G01X86999Y12472D01*
G01X87004Y12474D01*
G01X87009Y12475D01*
G01X87013Y12477D01*
G01X87025Y12485D01*
G01X87028Y12488D01*
G01X87032Y12493D01*
G01X87035Y12496D01*
G01X87039Y12499D01*
G01X87040Y12500D01*
G01X87041Y12502D01*
G01X87042Y12505D01*
G01X87044Y12509D01*
G01X87048Y12515D01*
G01X87050Y12519D01*
G01X87055Y12529D01*
G01X87057Y12534D01*
G01X87059Y12539D01*
G01Y12541D01*
G01X87061Y12543D01*
G01X87062Y12544D01*
G01X87064Y12545D01*
G01X87065D01*
G01X87067D01*
G01X87069D01*
G01X87073Y12542D01*
G01X87076Y12541D01*
G01X87082Y12538D01*
G01X87087Y12535D01*
G01X87092Y12533D01*
G01X87098Y12531D01*
G01X87102Y12529D01*
G01X87107Y12527D01*
G01X87115Y12523D01*
G01X87117Y12521D01*
G01X87118D01*
G01Y12520D01*
G01X87119Y12519D01*
G01Y12518D01*
G01X87120Y12516D01*
G01Y12514D01*
G01X87119Y12512D01*
G01X87116Y12505D01*
G01X87114Y12499D01*
G01X87113Y12497D01*
G01X87107Y12487D01*
G01X87105Y12482D01*
G01X87102Y12476D01*
G01X87101Y12474D01*
G01X87099Y12472D01*
G01X87098Y12471D01*
G01X87096Y12469D01*
G01X87094Y12468D01*
G01X87093Y12466D01*
G01X87090Y12461D01*
G01X87089Y12459D01*
G01X87087Y12458D01*
G01X87084Y12455D01*
G01X87081Y12452D01*
G01X87077Y12447D01*
G01X87073Y12444D01*
G01X87060Y12434D01*
G01X87054Y12431D01*
G01X87049Y12428D01*
G01X87045Y12426D01*
G01X87037Y12423D01*
G01X87033Y12420D01*
G01X87026Y12417D01*
G01X87023Y12416D01*
G01X87018Y12415D01*
G01X87014Y12414D01*
G01X87006Y12413D01*
G01X87001Y12411D01*
G01X86992Y12409D01*
G37*
G36*
G01X91043Y12409D02*
G01X91037Y12408D01*
G01X91023D01*
G01X91019D01*
G01X91003D01*
G01X90997Y12409D01*
G01X90984Y12413D01*
G01X90968Y12417D01*
G01X90963Y12419D01*
G01X90954Y12423D01*
G01X90947Y12426D01*
G01X90943Y12428D01*
G01X90942Y12429D01*
G01X90937Y12433D01*
G01X90928Y12439D01*
G01X90923Y12444D01*
G01X90920Y12446D01*
G01X90918Y12449D01*
G01X90912Y12457D01*
G01X90903Y12471D01*
G01X90901Y12475D01*
G01X90899Y12477D01*
G01X90898Y12479D01*
G01X90897Y12481D01*
G01X90895Y12487D01*
G01X90892Y12493D01*
G01X90890Y12498D01*
G01X90888Y12505D01*
G01X90885Y12511D01*
G01X90884Y12513D01*
G01X90883Y12516D01*
G01Y12519D01*
G01X90882Y12529D01*
G01X90880Y12533D01*
G01X90879Y12536D01*
G01X90878Y12541D01*
G01Y12552D01*
G01X90877Y12557D01*
G01Y12559D01*
G01X90876Y12562D01*
G01Y12565D01*
G01Y12574D01*
G01Y12581D01*
G01X90875Y12586D01*
G01X90874Y12588D01*
G01Y12590D01*
G01X90873Y12805D01*
G01X90875Y13015D01*
G01Y13021D01*
G01X90876Y13022D01*
G01X90877Y13023D01*
G01X90879Y13024D01*
G01X90881Y13025D01*
G01X90885D01*
G01X90895Y13026D01*
G01X90908D01*
G01X90939D01*
G01Y12794D01*
G01X90940Y12561D01*
G01Y12560D01*
G01Y12559D01*
G01X90941Y12555D01*
G01X90942Y12550D01*
G01X90945Y12536D01*
G01Y12533D01*
G01X90946Y12530D01*
G01X90947Y12527D01*
G01X90951Y12519D01*
G01X90953Y12512D01*
G01X90954Y12510D01*
G01X90955Y12509D01*
G01X90957Y12506D01*
G01X90958Y12504D01*
G01X90964Y12496D01*
G01X90966Y12493D01*
G01X90968Y12491D01*
G01X90974Y12487D01*
G01X90979Y12482D01*
G01X90985Y12478D01*
G01X90990Y12476D01*
G01X90994Y12474D01*
G01X91006Y12470D01*
G01X91009Y12469D01*
G01X91014D01*
G01X91026Y12468D01*
G01X91033Y12469D01*
G01X91037D01*
G01X91042Y12470D01*
G01X91045D01*
G01X91050Y12473D01*
G01X91057Y12475D01*
G01X91062Y12477D01*
G01X91064Y12478D01*
G01X91071Y12483D01*
G01X91074Y12486D01*
G01X91078Y12491D01*
G01X91081Y12494D01*
G01X91085Y12496D01*
G01X91086Y12498D01*
G01X91088Y12500D01*
G01X91091Y12507D01*
G01X91093Y12509D01*
G01X91095Y12511D01*
G01X91098Y12515D01*
G01X91102Y12526D01*
G01X91107Y12536D01*
G01X91109Y12541D01*
G01X91110Y12542D01*
G01X91111Y12543D01*
G01Y12544D01*
G01X91112Y12545D01*
G01X91113D01*
G01X91115D01*
G01X91116D01*
G01X91118Y12544D01*
G01X91121Y12543D01*
G01X91124Y12542D01*
G01X91130Y12538D01*
G01X91132Y12537D01*
G01X91135Y12536D01*
G01X91142Y12534D01*
G01X91146Y12531D01*
G01X91150Y12529D01*
G01X91160Y12525D01*
G01X91164Y12522D01*
G01X91165D01*
G01X91167Y12520D01*
G01X91168Y12518D01*
G01Y12516D01*
G01Y12513D01*
G01X91166Y12507D01*
G01X91164Y12502D01*
G01X91161Y12496D01*
G01X91158Y12489D01*
G01X91156Y12485D01*
G01X91155Y12484D01*
G01X91153Y12482D01*
G01X91151Y12478D01*
G01X91148Y12473D01*
G01X91147Y12471D01*
G01X91145Y12470D01*
G01X91144Y12468D01*
G01X91142Y12467D01*
G01X91141Y12466D01*
G01X91139Y12464D01*
G01X91138Y12461D01*
G01X91137Y12459D01*
G01X91136Y12458D01*
G01X91132Y12455D01*
G01X91129Y12452D01*
G01X91125Y12447D01*
G01X91122Y12444D01*
G01X91105Y12432D01*
G01X91101Y12430D01*
G01X91096Y12427D01*
G01X91090Y12424D01*
G01X91081Y12420D01*
G01X91077Y12418D01*
G01X91074Y12416D01*
G01X91071Y12415D01*
G01X91068D01*
G01X91056Y12413D01*
G01X91045Y12410D01*
G01X91043Y12409D01*
G37*
G36*
G01X88341Y12409D02*
G01X88338Y12408D01*
G01X88334D01*
G01X88319D01*
G01X88305D01*
G01X88299Y12409D01*
G01X88293Y12410D01*
G01X88279Y12413D01*
G01X88273Y12415D01*
G01X88267Y12417D01*
G01X88263Y12419D01*
G01X88260Y12420D01*
G01X88253Y12423D01*
G01X88249Y12426D01*
G01X88237Y12433D01*
G01X88234Y12435D01*
G01X88231Y12438D01*
G01X88229Y12440D01*
G01X88227Y12442D01*
G01X88224Y12445D01*
G01X88219Y12449D01*
G01X88216Y12453D01*
G01X88207Y12466D01*
G01X88203Y12472D01*
G01X88198Y12480D01*
G01X88196Y12485D01*
G01X88194Y12490D01*
G01X88192Y12497D01*
G01X88190Y12501D01*
G01X88188Y12503D01*
G01Y12505D01*
G01X88187Y12508D01*
G01X88185Y12516D01*
G01X88183Y12523D01*
G01X88182Y12529D01*
G01X88180Y12542D01*
G01X88178Y12549D01*
G01Y12554D01*
G01X88177Y12562D01*
G01Y12566D01*
G01X88176Y12567D01*
G01Y12568D01*
G01X88175Y12797D01*
G01Y13024D01*
G01X88183Y13025D01*
G01X88188D01*
G01X88213Y13026D01*
G01X88238D01*
G01X88239Y13020D01*
G01X88240Y13015D01*
G01X88241Y12785D01*
G01X88242Y12554D01*
G01Y12552D01*
G01Y12550D01*
G01X88244Y12545D01*
G01X88245Y12535D01*
G01X88247Y12530D01*
G01X88250Y12520D01*
G01X88252Y12516D01*
G01X88255Y12511D01*
G01X88256Y12508D01*
G01X88262Y12499D01*
G01X88266Y12494D01*
G01X88267Y12493D01*
G01X88271Y12490D01*
G01X88276Y12485D01*
G01X88283Y12479D01*
G01X88287Y12477D01*
G01X88292Y12475D01*
G01X88299Y12473D01*
G01X88304Y12471D01*
G01X88305Y12470D01*
G01X88309Y12469D01*
G01X88314D01*
G01X88325Y12468D01*
G01X88335Y12469D01*
G01X88339D01*
G01X88343Y12470D01*
G01X88345D01*
G01X88348Y12472D01*
G01X88350Y12473D01*
G01X88353Y12474D01*
G01X88360Y12476D01*
G01X88362D01*
G01X88364Y12477D01*
G01X88367Y12480D01*
G01X88373Y12484D01*
G01X88375Y12485D01*
G01X88377Y12486D01*
G01X88378Y12488D01*
G01X88380Y12491D01*
G01X88383Y12494D01*
G01X88386Y12496D01*
G01X88388Y12498D01*
G01X88389Y12499D01*
G01X88390Y12503D01*
G01X88393Y12507D01*
G01X88396Y12512D01*
G01X88398Y12515D01*
G01X88399Y12518D01*
G01X88402Y12525D01*
G01X88405Y12529D01*
G01X88407Y12532D01*
G01X88408Y12536D01*
G01X88409Y12539D01*
G01X88410Y12541D01*
G01X88411Y12542D01*
G01X88414Y12543D01*
G01X88416Y12544D01*
G01X88419Y12543D01*
G01X88422D01*
G01X88424Y12542D01*
G01X88426Y12541D01*
G01X88430Y12539D01*
G01X88444Y12533D01*
G01X88453Y12528D01*
G01X88460Y12525D01*
G01X88464Y12523D01*
G01X88466Y12521D01*
G01X88467Y12520D01*
G01X88469Y12519D01*
G01Y12517D01*
G01Y12514D01*
G01X88468Y12512D01*
G01X88466Y12507D01*
G01X88464Y12500D01*
G01X88462Y12496D01*
G01X88459Y12490D01*
G01X88454Y12481D01*
G01X88447Y12470D01*
G01X88444Y12466D01*
G01X88441Y12464D01*
G01X88439Y12462D01*
G01X88438Y12461D01*
G01X88436Y12459D01*
G01X88435Y12456D01*
G01X88434Y12454D01*
G01X88433Y12453D01*
G01X88424Y12446D01*
G01X88421Y12444D01*
G01X88415Y12439D01*
G01X88411Y12436D01*
G01X88408Y12433D01*
G01X88401Y12430D01*
G01X88395Y12426D01*
G01X88393Y12425D01*
G01X88387Y12422D01*
G01X88375Y12417D01*
G01X88371Y12416D01*
G01X88366Y12415D01*
G01X88363Y12414D01*
G01X88351Y12411D01*
G01X88345Y12410D01*
G01X88341Y12409D01*
G37*
G36*
G01X89690Y12409D02*
G01X89688Y12408D01*
G01X89684D01*
G01X89668D01*
G01X89653D01*
G01X89647Y12409D01*
G01X89633Y12413D01*
G01X89618Y12417D01*
G01X89613Y12419D01*
G01X89604Y12423D01*
G01X89597Y12426D01*
G01X89594Y12427D01*
G01X89592Y12429D01*
G01X89591Y12431D01*
G01X89590Y12432D01*
G01X89588Y12434D01*
G01X89587Y12435D01*
G01X89583Y12436D01*
G01X89581Y12437D01*
G01X89580Y12438D01*
G01X89579Y12439D01*
G01X89574Y12444D01*
G01X89571Y12447D01*
G01X89567Y12453D01*
G01X89561Y12460D01*
G01X89559Y12462D01*
G01X89546Y12484D01*
G01X89544Y12488D01*
G01X89542Y12495D01*
G01X89538Y12504D01*
G01X89535Y12512D01*
G01X89534Y12515D01*
G01X89533Y12519D01*
G01Y12523D01*
G01X89532Y12529D01*
G01X89530Y12537D01*
G01X89529Y12542D01*
G01X89528Y12547D01*
G01Y12551D01*
G01Y12560D01*
G01X89527Y12563D01*
G01Y12564D01*
G01X89526Y12565D01*
G01X89525Y12797D01*
G01Y13026D01*
G01X89588D01*
G01X89590Y13015D01*
G01Y13003D01*
G01X89591Y12780D01*
G01X89592Y12554D01*
G01Y12552D01*
G01X89593Y12550D01*
G01Y12546D01*
G01Y12541D01*
G01X89594Y12539D01*
G01X89595Y12536D01*
G01X89597Y12531D01*
G01X89599Y12526D01*
G01X89600Y12520D01*
G01X89601Y12516D01*
G01X89602Y12514D01*
G01X89605Y12509D01*
G01X89610Y12500D01*
G01X89612Y12498D01*
G01X89616Y12493D01*
G01X89619Y12490D01*
G01X89621Y12488D01*
G01X89623Y12487D01*
G01X89627Y12484D01*
G01X89629Y12483D01*
G01X89631Y12481D01*
G01X89632Y12479D01*
G01X89634Y12478D01*
G01X89636Y12476D01*
G01X89638Y12475D01*
G01X89645Y12474D01*
G01X89648Y12473D01*
G01X89651Y12472D01*
G01X89655Y12470D01*
G01X89659Y12469D01*
G01X89665D01*
G01X89676Y12468D01*
G01X89685Y12469D01*
G01X89689D01*
G01X89694Y12470D01*
G01X89695D01*
G01X89696D01*
G01X89698Y12472D01*
G01X89702Y12474D01*
G01X89709Y12476D01*
G01X89713Y12478D01*
G01X89722Y12484D01*
G01X89726Y12487D01*
G01X89730Y12492D01*
G01X89734Y12496D01*
G01X89738Y12501D01*
G01X89740Y12504D01*
G01X89741Y12506D01*
G01X89745Y12511D01*
G01X89750Y12519D01*
G01X89751Y12522D01*
G01X89754Y12528D01*
G01X89758Y12537D01*
G01X89760Y12541D01*
G01X89761Y12542D01*
G01X89762Y12544D01*
G01X89764D01*
G01X89766D01*
G01X89769D01*
G01X89781Y12539D01*
G01X89785Y12537D01*
G01X89790Y12534D01*
G01X89793Y12533D01*
G01X89795Y12531D01*
G01X89805Y12528D01*
G01X89809Y12526D01*
G01X89811Y12525D01*
G01X89814Y12522D01*
G01X89816Y12520D01*
G01X89817D01*
G01X89818Y12518D01*
G01X89819Y12517D01*
G01Y12514D01*
G01Y12512D01*
G01X89818Y12510D01*
G01X89817Y12508D01*
G01X89815Y12504D01*
G01X89813Y12500D01*
G01X89811Y12495D01*
G01X89807Y12487D01*
G01X89802Y12478D01*
G01X89794Y12467D01*
G01X89792Y12464D01*
G01X89788Y12461D01*
G01X89787Y12460D01*
G01X89785Y12458D01*
G01X89784Y12457D01*
G01X89783Y12453D01*
G01X89781Y12451D01*
G01X89779Y12450D01*
G01X89773Y12446D01*
G01X89770Y12443D01*
G01X89768Y12441D01*
G01X89767Y12439D01*
G01X89765Y12437D01*
G01X89763Y12436D01*
G01X89760Y12435D01*
G01X89756Y12432D01*
G01X89751Y12429D01*
G01X89748Y12427D01*
G01X89745Y12426D01*
G01X89734Y12421D01*
G01X89729Y12419D01*
G01X89724Y12417D01*
G01X89718Y12415D01*
G01X89712Y12413D01*
G01X89705Y12412D01*
G01X89696Y12410D01*
G01X89692D01*
G01X89690Y12409D01*
G37*
G04 Text End*
G54D10*

M02*
