G04 Layer: TopLayer*
G04 EasyEDA Pro v1.7.27, 2022-09-03 12:36:09*
G04 Gerber Generator version 0.3*
G04 Scale: 100 percent, Rotated: No, Reflected: No*
G04 Dimensions in millimeters*
G04 Leading zeros omitted, absolute positions, 3 integers and 3 decimals*
%FSLAX33Y33*%
%MOMM*%
%ADD999C,0.2032*%
G75*


G04 Copper Start*
G36*
G01X17527Y367D02*
G02X13644Y4170I0J3884D01*
G03X13654Y4251I-349J81D01*
G03X9106Y8851I-4600J0D01*
G01X9102Y8852D01*
G03X9000Y8867I-102J-343D01*
G01X2000D01*
G02X358Y10509I0J1642D01*
G01Y41008D01*
G02X2000Y42650I1642J-0D01*
G01X2001D01*
G01X8763Y42648D01*
G03X8882Y42668I0J358D01*
G03X13364Y47267I-118J4599D01*
G03X13359Y47330I-358J-0D01*
G02X17242Y51151I3883J-63D01*
G01X77173D01*
G02X81056Y47348I-0J-3884D01*
G03X81046Y47267I349J-81D01*
G03X85603Y42667I4600J0D01*
G01X85641Y42658D01*
G03X85725Y42648I84J348D01*
G01X92699Y42650D01*
G01X92700D01*
G02X94342Y41008I0J-1642D01*
G01Y10510D01*
G02X92700Y8868I-1642J0D01*
G01X92699D01*
G01X85937Y8870D01*
G03X85818Y8850I0J-358D01*
G03X81336Y4251I118J-4599D01*
G03X81341Y4188I358J0D01*
G02X77458Y367I-3883J63D01*
G01X17527D01*
G37*
%LPC*%
G36*
G01X72850Y43651D02*
G03X73208Y44009I0J358D01*
G01Y49009D01*
G03X72850Y49367I-358J0D01*
G01X21850D01*
G03X21492Y49009I0J-358D01*
G01Y44009D01*
G03X21850Y43651I358J0D01*
G01X72850D01*
G37*
G36*
G01X72850Y2151D02*
G03X73208Y2509I0J358D01*
G01Y7509D01*
G03X72850Y7867I-358J0D01*
G01X21850D01*
G03X21492Y7509I0J-358D01*
G01Y2509D01*
G03X21850Y2151I358J0D01*
G01X72850D01*
G37*
G36*
G01X92342Y13259D02*
G03X92700Y12901I358J0D01*
G01X93700D01*
G03X94058Y13259I0J358D01*
G01Y38259D01*
G03X93700Y38617I-358J0D01*
G01X92700D01*
G03X92342Y38259I0J-358D01*
G01Y13259D01*
G37*
G36*
G01X88775Y9265D02*
G03X89133Y9623I0J358D01*
G01Y10623D01*
G03X88775Y10981I-358J0D01*
G01X63775D01*
G03X63417Y10623I0J-358D01*
G01Y9623D01*
G03X63775Y9265I358J0D01*
G01X88775D01*
G37*
G36*
G01X30925Y9265D02*
G03X31283Y9623I0J358D01*
G01Y10623D01*
G03X30925Y10981I-358J0D01*
G01X5925D01*
G03X5567Y10623I0J-358D01*
G01Y9623D01*
G03X5925Y9265I358J0D01*
G01X30925D01*
G37*
G36*
G01X2000Y12901D02*
G03X2358Y13259I0J358D01*
G01Y38259D01*
G03X2000Y38617I-358J0D01*
G01X1000D01*
G03X642Y38259I0J-358D01*
G01Y13259D01*
G03X1000Y12901I358J0D01*
G01X2000D01*
G37*
G36*
G01X63417Y40895D02*
G03X63775Y40537I358J0D01*
G01X88775D01*
G03X89133Y40895I0J358D01*
G01Y41895D01*
G03X88775Y42253I-358J0D01*
G01X63775D01*
G03X63417Y41895I0J-358D01*
G01Y40895D01*
G37*
G36*
G01X5567Y40895D02*
G03X5925Y40537I358J0D01*
G01X30925D01*
G03X31283Y40895I0J358D01*
G01Y41895D01*
G03X30925Y42253I-358J0D01*
G01X5925D01*
G03X5567Y41895I0J-358D01*
G01Y40895D01*
G37*
%LPD*%
G54D999*
G01X17527Y367D02*
G02X13644Y4170I0J3884D01*
G03X13654Y4251I-349J81D01*
G03X9106Y8851I-4600J0D01*
G01X9102Y8852D01*
G03X9000Y8867I-102J-343D01*
G01X2000D01*
G02X358Y10509I0J1642D01*
G01Y41008D01*
G02X2000Y42650I1642J-0D01*
G01X2001D01*
G01X8763Y42648D01*
G03X8882Y42668I0J358D01*
G03X13364Y47267I-118J4599D01*
G03X13359Y47330I-358J-0D01*
G02X17242Y51151I3883J-63D01*
G01X77173D01*
G02X81056Y47348I-0J-3884D01*
G03X81046Y47267I349J-81D01*
G03X85603Y42667I4600J0D01*
G01X85641Y42658D01*
G03X85725Y42648I84J348D01*
G01X92699Y42650D01*
G01X92700D01*
G02X94342Y41008I0J-1642D01*
G01Y10510D01*
G02X92700Y8868I-1642J0D01*
G01X92699D01*
G01X85937Y8870D01*
G03X85818Y8850I0J-358D01*
G03X81336Y4251I118J-4599D01*
G03X81341Y4188I358J0D01*
G02X77458Y367I-3883J63D01*
G01X17527D01*
G01X72850Y43651D02*
G03X73208Y44009I0J358D01*
G01Y49009D01*
G03X72850Y49367I-358J0D01*
G01X21850D01*
G03X21492Y49009I0J-358D01*
G01Y44009D01*
G03X21850Y43651I358J0D01*
G01X72850D01*
G01X72850Y2151D02*
G03X73208Y2509I0J358D01*
G01Y7509D01*
G03X72850Y7867I-358J0D01*
G01X21850D01*
G03X21492Y7509I0J-358D01*
G01Y2509D01*
G03X21850Y2151I358J0D01*
G01X72850D01*
G01X92342Y13259D02*
G03X92700Y12901I358J0D01*
G01X93700D01*
G03X94058Y13259I0J358D01*
G01Y38259D01*
G03X93700Y38617I-358J0D01*
G01X92700D01*
G03X92342Y38259I0J-358D01*
G01Y13259D01*
G01X88775Y9265D02*
G03X89133Y9623I0J358D01*
G01Y10623D01*
G03X88775Y10981I-358J0D01*
G01X63775D01*
G03X63417Y10623I0J-358D01*
G01Y9623D01*
G03X63775Y9265I358J0D01*
G01X88775D01*
G01X30925Y9265D02*
G03X31283Y9623I0J358D01*
G01Y10623D01*
G03X30925Y10981I-358J0D01*
G01X5925D01*
G03X5567Y10623I0J-358D01*
G01Y9623D01*
G03X5925Y9265I358J0D01*
G01X30925D01*
G01X2000Y12901D02*
G03X2358Y13259I0J358D01*
G01Y38259D01*
G03X2000Y38617I-358J0D01*
G01X1000D01*
G03X642Y38259I0J-358D01*
G01Y13259D01*
G03X1000Y12901I358J0D01*
G01X2000D01*
G01X63417Y40895D02*
G03X63775Y40537I358J0D01*
G01X88775D01*
G03X89133Y40895I0J358D01*
G01Y41895D01*
G03X88775Y42253I-358J0D01*
G01X63775D01*
G03X63417Y41895I0J-358D01*
G01Y40895D01*
G01X5567Y40895D02*
G03X5925Y40537I358J0D01*
G01X30925D01*
G03X31283Y40895I0J358D01*
G01Y41895D01*
G03X30925Y42253I-358J0D01*
G01X5925D01*
G03X5567Y41895I0J-358D01*
G01Y40895D01*
G04 Copper End*

M02*
