;TYPE=PLATED
;Layer: PTH_Through
;EasyEDA Pro v1.7.27, 2022-08-27 15:43:31
;Gerber Generator version 0.3
M48
METRIC,LZ,000.000
;Hole size 1 = 1.000 METRIC
T01C1.000
%
G05
G90
T01
X020826Y044625
X027826Y044625
X021826Y044625
X022826Y044625
X023826Y044625
X024826Y044625
X025826Y044625
X026826Y044625
X005826Y044625
X006826Y044625
X018826Y044625
X019826Y044625
X004826Y044625
X004699Y021209
X005699Y021209
X006699Y021209
X007699Y021209
X057530Y064897
X057530Y062897
X057530Y061897
X057530Y063897
X057530Y058897
X057530Y060897
X057530Y048897
X057530Y056897
X057530Y057897
X057530Y055897
X057530Y050897
X057530Y049897
X057530Y051897
X057530Y054897
X057530Y053897
X057530Y052897
X057530Y059897
X057530Y047897
X007826Y044625
X008826Y044625
X009826Y044625
X010826Y044625
X012826Y044625
X013826Y044625
X011826Y044625
X017826Y044625
X014826Y044625
X015826Y044625
X016826Y044625
X024699Y021209
X025699Y021209
X026699Y021209
X027699Y021209
X011699Y021209
X012699Y021209
X013699Y021209
X014699Y021209
X015699Y021209
X008699Y021209
X009699Y021209
X010699Y021209
X016699Y021209
X018699Y021209
X019699Y021209
X020699Y021209
X021699Y021209
X022699Y021209
X023699Y021209
X017699Y021209
X033300Y060897
X033300Y061897
X033300Y062897
X033300Y063897
X033300Y057897
X033300Y049897
X033300Y050897
X033300Y051897
X033300Y052897
X033300Y053897
X033300Y054897
X033300Y055897
X033300Y048897
X033300Y047897
X033300Y058897
X033300Y056897
X033300Y059897
X033300Y064897
M30