G04 Layer: BottomSilkscreenLayer*
G04 EasyEDA Pro v1.7.27, 2022-09-03 12:31:21*
G04 Gerber Generator version 0.3*
G04 Scale: 100 percent, Rotated: No, Reflected: No*
G04 Dimensions in millimeters*
G04 Leading zeros omitted, absolute positions, 3 integers and 3 decimals*
%FSLAX33Y33*%
%MOMM*%
%ADD10C,0.254*%
G75*


G04 Text Start*
G04 //text: JLCJLCJLCJLC*
G36*
G01X43959Y56224D02*
G01X43958Y56223D01*
G01X43954D01*
G01X43942D01*
G01X43931D01*
G01X43925Y56224D01*
G01X43923D01*
G01X43921Y56225D01*
G01X43918D01*
G01X43905D01*
G01X43901Y56226D01*
G01X43897Y56227D01*
G01X43890Y56228D01*
G01X43887Y56229D01*
G01X43881Y56230D01*
G01X43877Y56231D01*
G01X43867Y56234D01*
G01X43863Y56235D01*
G01X43857Y56237D01*
G01X43853Y56238D01*
G01X43851Y56239D01*
G01X43848Y56241D01*
G01X43844Y56243D01*
G01X43837Y56245D01*
G01X43833Y56247D01*
G01X43829Y56249D01*
G01X43821Y56253D01*
G01X43817Y56255D01*
G01X43816Y56256D01*
G01X43814Y56258D01*
G01X43810Y56260D01*
G01X43804Y56264D01*
G01X43801Y56266D01*
G01X43796Y56270D01*
G01X43791Y56274D01*
G01X43787Y56277D01*
G01X43782Y56281D01*
G01X43779Y56284D01*
G01X43775Y56289D01*
G01X43772Y56292D01*
G01X43767Y56296D01*
G01X43763Y56301D01*
G01X43760Y56304D01*
G01X43756Y56306D01*
G01X43755Y56308D01*
G01X43754Y56310D01*
G01X43753Y56313D01*
G01X43752Y56315D01*
G01X43751Y56316D01*
G01X43748Y56319D01*
G01X43745Y56323D01*
G01X43744Y56325D01*
G01Y56327D01*
G01X43746Y56329D01*
G01X43748Y56331D01*
G01X43752Y56333D01*
G01X43756Y56336D01*
G01X43761Y56340D01*
G01X43770Y56347D01*
G01X43780Y56355D01*
G01X43786Y56359D01*
G01X43788Y56361D01*
G01X43790Y56362D01*
G01X43791D01*
G01X43792Y56361D01*
G01X43794Y56358D01*
G01X43798Y56355D01*
G01X43801Y56352D01*
G01X43802Y56351D01*
G01X43803Y56350D01*
G01X43805Y56347D01*
G01X43806Y56346D01*
G01X43810Y56342D01*
G01X43815Y56337D01*
G01X43827Y56327D01*
G01X43831Y56323D01*
G01X43836Y56320D01*
G01X43848Y56311D01*
G01X43851Y56309D01*
G01X43854Y56308D01*
G01X43864Y56303D01*
G01X43870Y56300D01*
G01X43874Y56298D01*
G01X43886Y56294D01*
G01X43899Y56289D01*
G01X43901D01*
G01X43907Y56288D01*
G01X43918Y56286D01*
G01X43925Y56284D01*
G01X43930Y56283D01*
G01X43940D01*
G01X43944Y56282D01*
G01X43947D01*
G01X43948D01*
G01X43950D01*
G01X43954Y56283D01*
G01X43958D01*
G01X43965Y56284D01*
G01X43971Y56285D01*
G01X43976Y56286D01*
G01X43984D01*
G01X43987Y56287D01*
G01X43990Y56288D01*
G01X43996Y56289D01*
G01X44003Y56290D01*
G01X44007Y56291D01*
G01X44009Y56292D01*
G01X44014Y56295D01*
G01X44021Y56297D01*
G01X44026Y56299D01*
G01X44028Y56300D01*
G01X44035Y56304D01*
G01X44039Y56306D01*
G01X44051Y56314D01*
G01X44056Y56317D01*
G01X44064Y56322D01*
G01X44070Y56327D01*
G01X44072Y56329D01*
G01X44078Y56336D01*
G01X44082Y56340D01*
G01X44084Y56344D01*
G01X44089Y56348D01*
G01X44093Y56351D01*
G01X44106Y56369D01*
G01X44111Y56377D01*
G01X44113Y56381D01*
G01X44117Y56391D01*
G01X44120Y56395D01*
G01X44123Y56400D01*
G01X44125Y56406D01*
G01X44129Y56415D01*
G01X44133Y56425D01*
G01X44135Y56432D01*
G01X44137Y56440D01*
G01X44142Y56457D01*
G01X44143Y56461D01*
G01X44144Y56465D01*
G01X44145Y56468D01*
G01Y56474D01*
G01Y56479D01*
G01X44147Y56483D01*
G01X44148Y56489D01*
G01Y56493D01*
G01X44149Y56500D01*
G01Y56506D01*
G01X44150Y56518D01*
G01Y56522D01*
G01X44151Y56526D01*
G01X44152Y56532D01*
G01Y56545D01*
G01Y56557D01*
G01X44151Y56564D01*
G01Y56566D01*
G01X44150Y56568D01*
G01Y56572D01*
G01Y56582D01*
G01X44149Y56589D01*
G01Y56593D01*
G01Y56597D01*
G01X44148Y56599D01*
G01X44147Y56605D01*
G01X44145Y56616D01*
G01X44143Y56622D01*
G01X44142Y56626D01*
G01X44137Y56643D01*
G01X44134Y56653D01*
G01X44128Y56669D01*
G01X44126Y56676D01*
G01X44124Y56681D01*
G01X44120Y56686D01*
G01X44117Y56695D01*
G01X44115Y56698D01*
G01X44114Y56700D01*
G01X44110Y56704D01*
G01X44107Y56709D01*
G01X44101Y56719D01*
G01X44098Y56722D01*
G01X44093Y56726D01*
G01X44090Y56729D01*
G01X44088Y56733D01*
G01X44084Y56737D01*
G01X44082Y56739D01*
G01X44077Y56744D01*
G01X44071Y56749D01*
G01X44060Y56757D01*
G01X44055Y56761D01*
G01X44049Y56765D01*
G01X44044Y56767D01*
G01X44040Y56769D01*
G01X44034Y56772D01*
G01X44031Y56774D01*
G01X44029Y56775D01*
G01X44027Y56777D01*
G01X44025Y56778D01*
G01X44023D01*
G01X44017Y56780D01*
G01X44013Y56781D01*
G01X44011Y56782D01*
G01X44008Y56784D01*
G01X44006Y56785D01*
G01X44004D01*
G01X43999D01*
G01X43997Y56786D01*
G01X43994Y56787D01*
G01X43991Y56788D01*
G01X43988Y56789D01*
G01X43986Y56790D01*
G01X43984D01*
G01X43978D01*
G01X43974Y56791D01*
G01X43973Y56792D01*
G01X43968D01*
G01X43944D01*
G01X43921D01*
G01X43914D01*
G01X43909Y56790D01*
G01X43898Y56788D01*
G01X43883Y56783D01*
G01X43876Y56780D01*
G01X43864Y56775D01*
G01X43856Y56771D01*
G01X43851Y56769D01*
G01X43836Y56760D01*
G01X43833Y56757D01*
G01X43831Y56755D01*
G01X43829Y56753D01*
G01X43821Y56748D01*
G01X43817Y56745D01*
G01X43816Y56744D01*
G01X43814Y56741D01*
G01X43811Y56738D01*
G01X43807Y56735D01*
G01X43806Y56734D01*
G01X43804Y56732D01*
G01X43800Y56725D01*
G01X43799Y56723D01*
G01X43793Y56717D01*
G01X43792Y56716D01*
G01X43790D01*
G01X43788Y56717D01*
G01X43785Y56719D01*
G01X43781Y56721D01*
G01X43777Y56724D01*
G01X43772Y56728D01*
G01X43751Y56743D01*
G01X43748Y56746D01*
G01X43746Y56748D01*
G01X43744Y56749D01*
G01Y56751D01*
G01Y56753D01*
G01X43745Y56755D01*
G01X43748Y56760D01*
G01X43753Y56765D01*
G01X43757Y56770D01*
G01X43759Y56773D01*
G01X43774Y56788D01*
G01X43777Y56791D01*
G01X43780Y56794D01*
G01X43786Y56797D01*
G01X43790Y56801D01*
G01X43794Y56805D01*
G01X43799Y56808D01*
G01X43802Y56811D01*
G01X43806Y56813D01*
G01X43812Y56816D01*
G01X43815Y56817D01*
G01X43817Y56819D01*
G01X43822Y56822D01*
G01X43825Y56824D01*
G01X43828Y56825D01*
G01X43835Y56828D01*
G01X43840Y56831D01*
G01X43846Y56834D01*
G01X43849Y56835D01*
G01X43853Y56837D01*
G01X43860Y56838D01*
G01X43864Y56839D01*
G01X43866Y56840D01*
G01X43869Y56842D01*
G01X43871Y56843D01*
G01X43873D01*
G01X43878Y56844D01*
G01X43880D01*
G01X43883Y56845D01*
G01X43887Y56846D01*
G01X43889Y56847D01*
G01X43892Y56848D01*
G01X43895D01*
G01X43902Y56849D01*
G01X43905D01*
G01X43908Y56850D01*
G01X43912D01*
G01X43922Y56851D01*
G01X43930D01*
G01X43934D01*
G01X43937Y56852D01*
G01X43940D01*
G01X43942Y56853D01*
G01X43950D01*
G01X43955D01*
G01X43960Y56852D01*
G01X43962D01*
G01X43964Y56851D01*
G01X43967D01*
G01X43977D01*
G01X43985Y56850D01*
G01X43989D01*
G01X43993D01*
G01X43995Y56849D01*
G01X44001Y56848D01*
G01X44010Y56846D01*
G01X44021Y56843D01*
G01X44028Y56841D01*
G01X44036Y56837D01*
G01X44040Y56836D01*
G01X44048Y56833D01*
G01X44059Y56828D01*
G01X44066Y56825D01*
G01X44069Y56824D01*
G01X44072Y56822D01*
G01X44079Y56817D01*
G01X44082Y56816D01*
G01X44085Y56815D01*
G01X44087Y56813D01*
G01X44090Y56812D01*
G01X44099Y56805D01*
G01X44108Y56799D01*
G01X44111Y56796D01*
G01X44113Y56795D01*
G01X44114Y56792D01*
G01X44118Y56789D01*
G01X44123Y56785D01*
G01X44127Y56780D01*
G01X44130Y56777D01*
G01X44135Y56773D01*
G01X44137Y56771D01*
G01X44140Y56767D01*
G01X44145Y56762D01*
G01X44151Y56754D01*
G01X44157Y56746D01*
G01X44163Y56738D01*
G01X44166Y56733D01*
G01X44170Y56725D01*
G01X44173Y56721D01*
G01X44180Y56709D01*
G01X44182Y56705D01*
G01X44184Y56700D01*
G01X44186Y56695D01*
G01X44190Y56686D01*
G01X44193Y56679D01*
G01X44194Y56674D01*
G01X44197Y56669D01*
G01X44199Y56663D01*
G01X44201Y56652D01*
G01X44203Y56646D01*
G01X44207Y56634D01*
G01Y56631D01*
G01X44208Y56625D01*
G01X44210Y56612D01*
G01X44212Y56605D01*
G01X44213Y56601D01*
G01Y56594D01*
G01X44214Y56590D01*
G01Y56587D01*
G01X44215Y56583D01*
G01Y56554D01*
G01X44216Y56548D01*
G01X44217Y56544D01*
G01Y56540D01*
G01Y56536D01*
G01Y56531D01*
G01X44216Y56528D01*
G01X44215Y56522D01*
G01Y56491D01*
G01X44214Y56485D01*
G01X44213Y56481D01*
G01Y56477D01*
G01X44212Y56470D01*
G01X44211Y56464D01*
G01X44210Y56458D01*
G01X44209Y56454D01*
G01X44208Y56448D01*
G01X44207Y56445D01*
G01X44204Y56437D01*
G01X44203Y56433D01*
G01X44202Y56429D01*
G01X44201Y56421D01*
G01X44200Y56416D01*
G01X44199Y56414D01*
G01X44196Y56409D01*
G01X44194Y56402D01*
G01X44192Y56397D01*
G01X44189Y56390D01*
G01X44186Y56383D01*
G01X44185Y56380D01*
G01X44184Y56377D01*
G01X44180Y56370D01*
G01X44178Y56365D01*
G01X44175Y56359D01*
G01X44173Y56356D01*
G01X44172Y56354D01*
G01X44170Y56352D01*
G01X44169Y56351D01*
G01X44168Y56349D01*
G01X44167Y56346D01*
G01X44166Y56343D01*
G01X44164Y56341D01*
G01X44157Y56332D01*
G01X44151Y56322D01*
G01X44148Y56318D01*
G01X44144Y56313D01*
G01X44141Y56310D01*
G01X44138Y56306D01*
G01X44133Y56302D01*
G01X44129Y56297D01*
G01X44126Y56294D01*
G01X44121Y56291D01*
G01X44115Y56285D01*
G01X44110Y56281D01*
G01X44097Y56271D01*
G01X44091Y56267D01*
G01X44085Y56263D01*
G01X44081Y56260D01*
G01X44076Y56258D01*
G01X44070Y56255D01*
G01X44067Y56254D01*
G01X44065Y56252D01*
G01X44063Y56251D01*
G01X44059Y56248D01*
G01X44056Y56247D01*
G01X44047Y56243D01*
G01X44037Y56240D01*
G01X44030Y56237D01*
G01X44022Y56235D01*
G01X44011Y56232D01*
G01X44008Y56231D01*
G01X43986Y56228D01*
G01X43979Y56226D01*
G01X43976Y56225D01*
G01X43969D01*
G01X43965D01*
G01X43961D01*
G01X43960D01*
G01Y56224D01*
G01X43959D01*
G37*
G36*
G01X42609Y56224D02*
G01X42607Y56223D01*
G01X42604D01*
G01X42592D01*
G01X42581D01*
G01X42574Y56224D01*
G01X42573D01*
G01X42571Y56225D01*
G01X42565D01*
G01X42555D01*
G01X42552Y56226D01*
G01X42549Y56227D01*
G01X42541Y56228D01*
G01X42531Y56230D01*
G01X42526Y56231D01*
G01X42523Y56232D01*
G01X42522D01*
G01X42520Y56234D01*
G01X42517Y56235D01*
G01X42514D01*
G01X42507Y56237D01*
G01X42503Y56238D01*
G01X42501Y56239D01*
G01X42496Y56242D01*
G01X42489Y56244D01*
G01X42485Y56246D01*
G01X42473Y56253D01*
G01X42461Y56260D01*
G01X42451Y56266D01*
G01X42445Y56271D01*
G01X42430Y56283D01*
G01X42427Y56286D01*
G01X42424Y56288D01*
G01X42422Y56291D01*
G01X42420Y56294D01*
G01X42417Y56297D01*
G01X42413Y56299D01*
G01X42411Y56301D01*
G01X42410Y56304D01*
G01X42405Y56310D01*
G01X42402Y56314D01*
G01X42398Y56319D01*
G01X42396Y56323D01*
G01X42395Y56324D01*
G01Y56326D01*
G01X42394Y56327D01*
G01X42395Y56328D01*
G01X42396Y56329D01*
G01X42397Y56331D01*
G01X42404Y56334D01*
G01X42406Y56336D01*
G01X42411Y56340D01*
G01X42431Y56355D01*
G01X42435Y56358D01*
G01X42437Y56360D01*
G01X42439Y56361D01*
G01X42440Y56362D01*
G01X42442Y56361D01*
G01X42444Y56360D01*
G01X42448Y56355D01*
G01X42451Y56351D01*
G01X42454Y56348D01*
G01X42460Y56344D01*
G01X42464Y56339D01*
G01X42467Y56336D01*
G01X42472Y56332D01*
G01X42476Y56328D01*
G01X42480Y56325D01*
G01X42484Y56322D01*
G01X42487Y56319D01*
G01X42488Y56317D01*
G01X42490Y56315D01*
G01X42492Y56314D01*
G01X42496Y56313D01*
G01X42498Y56312D01*
G01X42500Y56311D01*
G01X42503Y56309D01*
G01X42507Y56306D01*
G01X42514Y56303D01*
G01X42519Y56301D01*
G01X42525Y56297D01*
G01X42528Y56296D01*
G01X42531Y56295D01*
G01X42537Y56294D01*
G01X42542Y56292D01*
G01X42547Y56290D01*
G01X42551Y56289D01*
G01X42555Y56288D01*
G01X42567Y56286D01*
G01X42575Y56284D01*
G01X42577D01*
G01X42590Y56283D01*
G01X42594D01*
G01X42595Y56282D01*
G01X42597D01*
G01X42598D01*
G01X42600D01*
G01X42604Y56283D01*
G01X42608D01*
G01X42615Y56284D01*
G01X42621Y56285D01*
G01X42625Y56286D01*
G01X42634D01*
G01X42637Y56287D01*
G01X42640Y56288D01*
G01X42646Y56289D01*
G01X42652Y56290D01*
G01X42656Y56291D01*
G01X42659Y56292D01*
G01X42666Y56295D01*
G01X42674Y56298D01*
G01X42678Y56300D01*
G01X42685Y56304D01*
G01X42689Y56306D01*
G01X42697Y56311D01*
G01X42704Y56315D01*
G01X42707Y56317D01*
G01X42711Y56321D01*
G01X42720Y56327D01*
G01X42726Y56332D01*
G01X42728Y56334D01*
G01X42731Y56337D01*
G01X42734Y56341D01*
G01X42737Y56345D01*
G01X42741Y56350D01*
G01X42744Y56353D01*
G01X42747Y56356D01*
G01X42749Y56357D01*
G01X42750Y56359D01*
G01X42751Y56360D01*
G01X42753Y56364D01*
G01X42754Y56365D01*
G01Y56367D01*
G01X42757Y56370D01*
G01X42759Y56373D01*
G01X42764Y56382D01*
G01X42769Y56391D01*
G01X42771Y56395D01*
G01X42776Y56407D01*
G01X42780Y56414D01*
G01X42782Y56422D01*
G01X42784Y56426D01*
G01X42786Y56431D01*
G01X42787Y56434D01*
G01X42788Y56437D01*
G01X42790Y56447D01*
G01X42792Y56456D01*
G01X42794Y56467D01*
G01X42796Y56473D01*
G01X42797Y56477D01*
G01Y56484D01*
G01X42798Y56488D01*
G01X42799Y56491D01*
G01Y56494D01*
G01Y56502D01*
G01Y56515D01*
G01X42800Y56520D01*
G01Y56522D01*
G01X42801Y56525D01*
G01Y56529D01*
G01X42802Y56544D01*
G01X42801Y56559D01*
G01Y56564D01*
G01X42800Y56566D01*
G01Y56568D01*
G01Y56572D01*
G01X42799Y56595D01*
G01X42798Y56600D01*
G01Y56604D01*
G01X42797Y56608D01*
G01Y56613D01*
G01X42796Y56615D01*
G01X42795Y56617D01*
G01X42793Y56621D01*
G01Y56623D01*
G01X42792Y56625D01*
G01Y56630D01*
G01X42791Y56634D01*
G01Y56636D01*
G01X42787Y56647D01*
G01X42783Y56659D01*
G01X42777Y56672D01*
G01X42776Y56677D01*
G01X42773Y56681D01*
G01X42770Y56686D01*
G01X42766Y56695D01*
G01X42765Y56698D01*
G01X42763Y56700D01*
G01X42758Y56708D01*
G01X42752Y56718D01*
G01X42749Y56721D01*
G01X42745Y56725D01*
G01X42739Y56733D01*
G01X42737Y56736D01*
G01X42734Y56738D01*
G01X42729Y56742D01*
G01X42725Y56745D01*
G01X42720Y56749D01*
G01X42717Y56752D01*
G01X42714Y56755D01*
G01X42713Y56757D01*
G01X42712Y56758D01*
G01X42710Y56759D01*
G01X42707Y56760D01*
G01X42703Y56762D01*
G01X42697Y56766D01*
G01X42686Y56772D01*
G01X42679Y56776D01*
G01X42676Y56777D01*
G01X42673Y56778D01*
G01X42667Y56780D01*
G01X42663Y56781D01*
G01X42661Y56782D01*
G01X42658Y56784D01*
G01X42656Y56785D01*
G01X42654D01*
G01X42649D01*
G01X42647Y56786D01*
G01X42645Y56787D01*
G01X42641Y56789D01*
G01X42639D01*
G01X42636Y56790D01*
G01X42630D01*
G01X42625Y56791D01*
G01X42624D01*
G01X42622Y56792D01*
G01X42618D01*
G01X42593D01*
G01X42570D01*
G01X42564D01*
G01X42559Y56790D01*
G01X42550Y56788D01*
G01X42545Y56786D01*
G01X42537Y56783D01*
G01X42528Y56781D01*
G01X42523Y56779D01*
G01X42514Y56775D01*
G01X42507Y56772D01*
G01X42503Y56770D01*
G01X42502Y56769D01*
G01X42500Y56767D01*
G01X42496Y56765D01*
G01X42491Y56762D01*
G01X42489Y56760D01*
G01X42483Y56756D01*
G01X42477Y56752D01*
G01X42468Y56746D01*
G01X42465Y56743D01*
G01X42463Y56741D01*
G01X42459Y56736D01*
G01X42456Y56733D01*
G01X42455Y56731D01*
G01X42450Y56723D01*
G01X42447Y56720D01*
G01X42445Y56718D01*
G01X42444Y56717D01*
G01X42442D01*
G01X42440D01*
G01X42437Y56718D01*
G01X42434Y56720D01*
G01X42427Y56726D01*
G01X42410Y56737D01*
G01X42405Y56740D01*
G01X42400Y56745D01*
G01X42396Y56748D01*
G01X42395Y56749D01*
G01Y56750D01*
G01X42394Y56751D01*
G01X42395Y56753D01*
G01X42396Y56755D01*
G01X42397Y56757D01*
G01X42399Y56760D01*
G01X42409Y56772D01*
G01X42411Y56775D01*
G01X42414Y56777D01*
G01X42417Y56780D01*
G01X42419Y56782D01*
G01X42422Y56785D01*
G01X42426Y56790D01*
G01X42430Y56792D01*
G01X42436Y56797D01*
G01X42439Y56800D01*
G01X42445Y56805D01*
G01X42449Y56808D01*
G01X42453Y56811D01*
G01X42460Y56814D01*
G01X42473Y56823D01*
G01X42476Y56825D01*
G01X42480Y56826D01*
G01X42483Y56828D01*
G01X42491Y56831D01*
G01X42496Y56833D01*
G01X42499Y56835D01*
G01X42502Y56836D01*
G01X42504Y56837D01*
G01X42510Y56838D01*
G01X42516Y56840D01*
G01X42521Y56842D01*
G01X42524Y56843D01*
G01X42527Y56844D01*
G01X42537Y56846D01*
G01X42543Y56848D01*
G01X42547D01*
G01X42554Y56849D01*
G01X42558D01*
G01X42560Y56850D01*
G01X42564D01*
G01X42574Y56851D01*
G01X42582D01*
G01X42586D01*
G01X42589Y56852D01*
G01X42592D01*
G01X42597Y56853D01*
G01X42604D01*
G01X42609Y56852D01*
G01X42611D01*
G01X42614Y56851D01*
G01X42617D01*
G01X42627D01*
G01X42635Y56850D01*
G01X42639D01*
G01X42642D01*
G01X42645Y56849D01*
G01X42650Y56848D01*
G01X42660Y56846D01*
G01X42671Y56843D01*
G01X42678Y56841D01*
G01X42685Y56837D01*
G01X42691Y56836D01*
G01X42697Y56834D01*
G01X42700Y56833D01*
G01X42703Y56832D01*
G01X42708Y56829D01*
G01X42717Y56825D01*
G01X42722Y56822D01*
G01X42727Y56819D01*
G01X42735Y56815D01*
G01X42739Y56812D01*
G01X42750Y56805D01*
G01X42756Y56800D01*
G01X42759Y56797D01*
G01X42765Y56792D01*
G01X42775Y56783D01*
G01X42784Y56776D01*
G01X42786Y56773D01*
G01X42789Y56770D01*
G01X42795Y56763D01*
G01X42807Y56748D01*
G01X42810Y56743D01*
G01X42813Y56738D01*
G01X42816Y56733D01*
G01X42818Y56729D01*
G01X42822Y56725D01*
G01X42823Y56722D01*
G01X42825Y56719D01*
G01X42828Y56712D01*
G01X42830Y56707D01*
G01X42833Y56702D01*
G01X42836Y56697D01*
G01X42840Y56685D01*
G01X42844Y56676D01*
G01X42846Y56671D01*
G01X42848Y56666D01*
G01X42850Y56658D01*
G01X42853Y56649D01*
G01X42855Y56642D01*
G01X42858Y56628D01*
G01X42860Y56622D01*
G01X42861Y56617D01*
G01X42862Y56613D01*
G01Y56609D01*
G01Y56599D01*
G01X42863Y56595D01*
G01X42864Y56592D01*
G01Y56590D01*
G01Y56587D01*
G01X42865Y56573D01*
G01Y56568D01*
G01X42866Y56566D01*
G01Y56565D01*
G01X42867Y56560D01*
G01Y56535D01*
G01Y56513D01*
G01X42866Y56506D01*
G01X42865Y56503D01*
G01Y56498D01*
G01X42864Y56488D01*
G01Y56484D01*
G01X42863Y56481D01*
G01Y56479D01*
G01X42862Y56467D01*
G01X42861Y56462D01*
G01X42860Y56459D01*
G01X42859Y56455D01*
G01X42858Y56453D01*
G01Y56451D01*
G01X42857Y56446D01*
G01Y56442D01*
G01X42856Y56440D01*
G01X42853Y56429D01*
G01X42850Y56422D01*
G01X42848Y56413D01*
G01X42846Y56407D01*
G01X42843Y56400D01*
G01X42840Y56392D01*
G01X42836Y56383D01*
G01X42834Y56376D01*
G01X42832Y56371D01*
G01X42825Y56360D01*
G01X42822Y56355D01*
G01X42820Y56351D01*
G01X42817Y56345D01*
G01X42816Y56341D01*
G01X42814Y56340D01*
G01X42810Y56335D01*
G01X42804Y56326D01*
G01X42796Y56316D01*
G01X42793Y56312D01*
G01X42790Y56309D01*
G01X42785Y56305D01*
G01X42781Y56300D01*
G01X42778Y56297D01*
G01X42773Y56293D01*
G01X42770Y56289D01*
G01X42769Y56288D01*
G01X42767Y56286D01*
G01X42764Y56284D01*
G01X42758Y56280D01*
G01X42754Y56277D01*
G01X42749Y56272D01*
G01X42744Y56269D01*
G01X42741Y56266D01*
G01X42740Y56265D01*
G01X42735Y56263D01*
G01X42727Y56259D01*
G01X42726Y56258D01*
G01X42723Y56256D01*
G01X42721Y56255D01*
G01X42720Y56254D01*
G01X42714Y56252D01*
G01X42709Y56248D01*
G01X42707Y56247D01*
G01X42701Y56245D01*
G01X42695Y56242D01*
G01X42688Y56240D01*
G01X42683Y56238D01*
G01X42678Y56236D01*
G01X42673Y56234D01*
G01X42664Y56232D01*
G01X42658Y56231D01*
G01X42654Y56230D01*
G01X42647D01*
G01X42641Y56228D01*
G01X42635Y56227D01*
G01X42631Y56226D01*
G01X42623Y56225D01*
G01X42614D01*
G01X42611D01*
G01X42610D01*
G01X42609Y56224D01*
G37*
G36*
G01X46657Y56224D02*
G01X46656Y56223D01*
G01X46653D01*
G01X46640D01*
G01X46629D01*
G01X46623Y56224D01*
G01X46621D01*
G01X46619Y56225D01*
G01X46614D01*
G01X46604D01*
G01X46600Y56226D01*
G01X46597Y56227D01*
G01X46590Y56228D01*
G01X46580Y56230D01*
G01X46575Y56231D01*
G01X46572Y56232D01*
G01X46571D01*
G01X46568Y56234D01*
G01X46566Y56235D01*
G01X46563D01*
G01X46556Y56237D01*
G01X46552Y56238D01*
G01X46549Y56239D01*
G01X46545Y56242D01*
G01X46537Y56245D01*
G01X46533Y56247D01*
G01X46526Y56251D01*
G01X46522Y56253D01*
G01X46510Y56260D01*
G01X46500Y56266D01*
G01X46495Y56270D01*
G01X46489Y56275D01*
G01X46481Y56281D01*
G01X46475Y56286D01*
G01X46473Y56288D01*
G01X46470Y56291D01*
G01X46468Y56294D01*
G01X46465Y56297D01*
G01X46462Y56299D01*
G01X46460Y56301D01*
G01X46459Y56303D01*
G01X46456Y56307D01*
G01X46455Y56309D01*
G01X46453Y56311D01*
G01X46451Y56312D01*
G01X46450Y56314D01*
G01X46448Y56315D01*
G01X46447Y56317D01*
G01X46446Y56320D01*
G01X46445Y56322D01*
G01Y56323D01*
G01X46444D01*
G01Y56325D01*
G01Y56327D01*
G01X46445Y56328D01*
G01X46446Y56329D01*
G01X46449Y56332D01*
G01X46469Y56346D01*
G01X46473Y56350D01*
G01X46478Y56354D01*
G01X46480Y56355D01*
G01X46484Y56358D01*
G01X46485Y56360D01*
G01X46487Y56361D01*
G01X46489D01*
G01X46491Y56360D01*
G01X46494Y56359D01*
G01X46497Y56355D01*
G01X46500Y56352D01*
G01X46502Y56348D01*
G01X46505Y56345D01*
G01X46510Y56341D01*
G01X46514Y56336D01*
G01X46518Y56333D01*
G01X46526Y56327D01*
G01X46529Y56325D01*
G01X46535Y56319D01*
G01X46539Y56316D01*
G01X46542Y56314D01*
G01X46549Y56310D01*
G01X46555Y56306D01*
G01X46557Y56305D01*
G01X46571Y56299D01*
G01X46578Y56296D01*
G01X46586Y56293D01*
G01X46602Y56288D01*
G01X46608Y56287D01*
G01X46616Y56285D01*
G01X46621D01*
G01X46633Y56283D01*
G01X46641D01*
G01X46643D01*
G01X46645Y56282D01*
G01X46647D01*
G01X46648D01*
G01X46652Y56283D01*
G01X46656D01*
G01X46663Y56284D01*
G01X46669Y56285D01*
G01X46674Y56286D01*
G01X46682D01*
G01X46686Y56287D01*
G01X46688Y56288D01*
G01X46693D01*
G01X46697D01*
G01X46700Y56289D01*
G01X46702Y56290D01*
G01X46705Y56292D01*
G01X46708Y56293D01*
G01X46710Y56294D01*
G01X46716Y56295D01*
G01X46720Y56296D01*
G01X46722Y56297D01*
G01X46727Y56300D01*
G01X46738Y56306D01*
G01X46742Y56309D01*
G01X46751Y56314D01*
G01X46755Y56316D01*
G01X46757Y56318D01*
G01X46759Y56319D01*
G01X46760Y56321D01*
G01X46762Y56323D01*
G01X46764Y56324D01*
G01X46765Y56326D01*
G01X46770Y56328D01*
G01X46772Y56330D01*
G01X46774Y56331D01*
G01X46776Y56335D01*
G01X46779Y56338D01*
G01X46783Y56340D01*
G01X46787Y56344D01*
G01X46788Y56346D01*
G01X46796Y56356D01*
G01X46802Y56365D01*
G01X46807Y56372D01*
G01X46813Y56382D01*
G01X46815Y56386D01*
G01X46817Y56391D01*
G01X46820Y56398D01*
G01X46823Y56402D01*
G01X46825Y56405D01*
G01X46826Y56408D01*
G01X46828Y56414D01*
G01X46837Y56440D01*
G01X46838Y56444D01*
G01X46842Y56460D01*
G01X46844Y56469D01*
G01X46845Y56473D01*
G01Y56481D01*
G01X46846Y56486D01*
G01X46847Y56488D01*
G01Y56491D01*
G01Y56494D01*
G01X46848Y56504D01*
G01Y56512D01*
G01Y56516D01*
G01X46849Y56519D01*
G01Y56521D01*
G01X46850Y56528D01*
G01Y56544D01*
G01Y56560D01*
G01X46849Y56567D01*
G01Y56568D01*
G01Y56569D01*
G01X46848Y56575D01*
G01Y56597D01*
G01X46847Y56603D01*
G01X46846Y56607D01*
G01X46845Y56612D01*
G01X46843Y56622D01*
G01X46840Y56631D01*
G01X46838Y56641D01*
G01X46837Y56645D01*
G01X46831Y56660D01*
G01X46828Y56668D01*
G01X46821Y56683D01*
G01X46818Y56690D01*
G01X46815Y56694D01*
G01X46808Y56706D01*
G01X46805Y56711D01*
G01X46799Y56719D01*
G01X46793Y56726D01*
G01X46791Y56730D01*
G01X46788Y56733D01*
G01X46783Y56737D01*
G01X46779Y56742D01*
G01X46776Y56745D01*
G01X46767Y56751D01*
G01X46756Y56760D01*
G01X46754Y56761D01*
G01X46745Y56767D01*
G01X46741Y56769D01*
G01X46736Y56772D01*
G01X46731Y56773D01*
G01X46726Y56777D01*
G01X46722Y56778D01*
G01X46714Y56781D01*
G01X46707Y56784D01*
G01X46704Y56785D01*
G01X46701Y56786D01*
G01X46691Y56788D01*
G01X46684Y56789D01*
G01X46677Y56791D01*
G01X46672D01*
G01X46664Y56792D01*
G01X46641D01*
G01X46638D01*
G01X46619D01*
G01X46613D01*
G01X46605Y56789D01*
G01X46596Y56787D01*
G01X46569Y56778D01*
G01X46564Y56776D01*
G01X46559Y56774D01*
G01X46548Y56767D01*
G01X46536Y56760D01*
G01X46532Y56757D01*
G01X46528Y56754D01*
G01X46523Y56750D01*
G01X46520Y56748D01*
G01X46517Y56745D01*
G01X46513Y56739D01*
G01X46508Y56735D01*
G01X46505Y56732D01*
G01X46499Y56724D01*
G01X46491Y56715D01*
G01X46485Y56719D01*
G01X46481Y56721D01*
G01X46473Y56727D01*
G01X46467Y56732D01*
G01X46457Y56738D01*
G01X46453Y56741D01*
G01X46448Y56745D01*
G01X46447Y56746D01*
G01X46445Y56748D01*
G01X46444Y56749D01*
G01Y56751D01*
G01Y56754D01*
G01X46445Y56756D01*
G01X46446Y56758D01*
G01X46447Y56760D01*
G01X46451Y56762D01*
G01X46453Y56764D01*
G01X46454Y56767D01*
G01X46458Y56772D01*
G01X46461Y56776D01*
G01X46463Y56777D01*
G01X46465Y56779D01*
G01X46468Y56782D01*
G01X46472Y56787D01*
G01X46476Y56790D01*
G01X46480Y56794D01*
G01X46486Y56799D01*
G01X46491Y56802D01*
G01X46495Y56806D01*
G01X46497Y56807D01*
G01X46502Y56811D01*
G01X46522Y56823D01*
G01X46525Y56825D01*
G01X46528Y56826D01*
G01X46531Y56828D01*
G01X46540Y56831D01*
G01X46545Y56833D01*
G01X46548Y56835D01*
G01X46550Y56836D01*
G01X46553Y56837D01*
G01X46559Y56838D01*
G01X46564Y56840D01*
G01X46569Y56842D01*
G01X46572Y56843D01*
G01X46575Y56844D01*
G01X46585Y56846D01*
G01X46591Y56848D01*
G01X46596D01*
G01X46603Y56849D01*
G01X46607D01*
G01X46609Y56850D01*
G01X46612D01*
G01X46622Y56851D01*
G01X46630D01*
G01X46634D01*
G01X46638Y56852D01*
G01X46640D01*
G01X46646Y56853D01*
G01X46652D01*
G01X46658Y56852D01*
G01X46660D01*
G01X46662Y56851D01*
G01X46666D01*
G01X46676D01*
G01X46684Y56850D01*
G01X46687D01*
G01X46691D01*
G01X46693Y56849D01*
G01X46699Y56848D01*
G01X46709Y56846D01*
G01X46719Y56843D01*
G01X46727Y56841D01*
G01X46734Y56837D01*
G01X46739Y56836D01*
G01X46745Y56834D01*
G01X46748Y56833D01*
G01X46751Y56832D01*
G01X46759Y56827D01*
G01X46764Y56825D01*
G01X46771Y56822D01*
G01X46775Y56820D01*
G01X46796Y56807D01*
G01X46800Y56803D01*
G01X46806Y56799D01*
G01X46815Y56792D01*
G01X46820Y56788D01*
G01X46823Y56785D01*
G01X46825Y56782D01*
G01X46827Y56780D01*
G01X46830Y56777D01*
G01X46835Y56773D01*
G01X46838Y56769D01*
G01X46842Y56765D01*
G01X46847Y56759D01*
G01X46853Y56750D01*
G01X46855Y56748D01*
G01X46860Y56742D01*
G01X46871Y56723D01*
G01X46876Y56715D01*
G01X46882Y56703D01*
G01X46885Y56696D01*
G01X46887Y56692D01*
G01X46890Y56683D01*
G01X46894Y56676D01*
G01X46897Y56665D01*
G01X46899Y56657D01*
G01X46902Y56648D01*
G01X46904Y56642D01*
G01X46906Y56631D01*
G01X46908Y56623D01*
G01X46909Y56619D01*
G01X46910Y56615D01*
G01X46911Y56610D01*
G01Y56599D01*
G01Y56595D01*
G01X46913Y56588D01*
G01X46914Y56583D01*
G01X46915Y56581D01*
G01Y56568D01*
G01X46916Y56535D01*
G01X46915Y56497D01*
G01Y56492D01*
G01X46914Y56491D01*
G01X46913Y56486D01*
G01X46912Y56481D01*
G01X46911Y56476D01*
G01Y56472D01*
G01X46910Y56463D01*
G01Y56460D01*
G01X46908Y56455D01*
G01X46905Y56441D01*
G01X46904Y56435D01*
G01X46898Y56417D01*
G01X46896Y56409D01*
G01X46893Y56402D01*
G01X46891Y56397D01*
G01X46889Y56390D01*
G01X46884Y56379D01*
G01X46880Y56370D01*
G01X46877Y56366D01*
G01X46874Y56361D01*
G01X46870Y56352D01*
G01X46861Y56338D01*
G01X46859Y56334D01*
G01X46856Y56330D01*
G01X46851Y56325D01*
G01X46845Y56317D01*
G01X46841Y56311D01*
G01X46838Y56309D01*
G01X46835Y56306D01*
G01X46833Y56304D01*
G01X46830Y56301D01*
G01X46826Y56296D01*
G01X46821Y56292D01*
G01X46818Y56289D01*
G01X46815Y56285D01*
G01X46813Y56283D01*
G01X46811Y56282D01*
G01X46804Y56277D01*
G01X46800Y56274D01*
G01X46795Y56270D01*
G01X46786Y56264D01*
G01X46782Y56262D01*
G01X46771Y56256D01*
G01X46762Y56251D01*
G01X46757Y56248D01*
G01X46746Y56243D01*
G01X46739Y56240D01*
G01X46727Y56237D01*
G01X46714Y56232D01*
G01X46711Y56231D01*
G01X46707D01*
G01X46704Y56230D01*
G01X46698D01*
G01X46693Y56229D01*
G01X46687Y56228D01*
G01X46682Y56226D01*
G01X46679D01*
G01X46675Y56225D01*
G01X46663D01*
G01X46659D01*
G01X46658Y56224D01*
G01X46657D01*
G37*
G36*
G01X45310Y56224D02*
G01X45308Y56223D01*
G01X45304D01*
G01X45291D01*
G01X45279D01*
G01X45273Y56224D01*
G01X45271D01*
G01X45269Y56225D01*
G01X45263D01*
G01X45254D01*
G01X45250Y56226D01*
G01X45247Y56227D01*
G01X45241Y56228D01*
G01X45231Y56230D01*
G01X45225Y56231D01*
G01X45212Y56235D01*
G01X45207Y56237D01*
G01X45202Y56239D01*
G01X45197Y56242D01*
G01X45190Y56244D01*
G01X45185Y56246D01*
G01X45182Y56247D01*
G01X45176Y56251D01*
G01X45171Y56253D01*
G01X45148Y56268D01*
G01X45144Y56271D01*
G01X45139Y56275D01*
G01X45134Y56279D01*
G01X45131Y56281D01*
G01X45124Y56288D01*
G01X45119Y56293D01*
G01X45112Y56302D01*
G01X45110Y56304D01*
G01X45107Y56307D01*
G01X45104Y56309D01*
G01X45103Y56310D01*
G01X45102Y56312D01*
G01X45100Y56315D01*
G01X45099Y56317D01*
G01X45098Y56318D01*
G01X45095Y56321D01*
G01X45094Y56322D01*
G01Y56324D01*
G01Y56326D01*
G01X45095Y56328D01*
G01X45096Y56329D01*
G01X45098Y56331D01*
G01X45105Y56336D01*
G01X45109Y56338D01*
G01X45111Y56340D01*
G01X45113Y56342D01*
G01X45122Y56348D01*
G01X45126Y56351D01*
G01X45131Y56355D01*
G01X45136Y56359D01*
G01X45139Y56361D01*
G01X45140Y56362D01*
G01X45141D01*
G01X45142Y56361D01*
G01X45145Y56358D01*
G01X45148Y56355D01*
G01X45151Y56352D01*
G01X45153Y56351D01*
G01X45154Y56349D01*
G01X45155Y56346D01*
G01X45156Y56344D01*
G01X45158Y56343D01*
G01X45161Y56340D01*
G01X45164Y56337D01*
G01X45167Y56334D01*
G01X45168Y56332D01*
G01X45170Y56331D01*
G01X45175Y56328D01*
G01X45177Y56327D01*
G01X45179Y56325D01*
G01X45180Y56323D01*
G01X45181Y56322D01*
G01X45183Y56320D01*
G01X45184Y56319D01*
G01X45188Y56318D01*
G01X45192Y56315D01*
G01X45198Y56311D01*
G01X45202Y56309D01*
G01X45209Y56305D01*
G01X45214Y56302D01*
G01X45219Y56300D01*
G01X45226Y56298D01*
G01X45233Y56294D01*
G01X45238Y56293D01*
G01X45247Y56290D01*
G01X45251Y56289D01*
G01X45256Y56288D01*
G01X45266Y56286D01*
G01X45271Y56285D01*
G01X45273Y56284D01*
G01X45276D01*
G01X45288Y56283D01*
G01X45292D01*
G01X45293Y56282D01*
G01X45295D01*
G01X45297D01*
G01X45298D01*
G01X45302Y56283D01*
G01X45307D01*
G01X45315Y56284D01*
G01X45318D01*
G01X45321Y56285D01*
G01X45326Y56286D01*
G01X45334D01*
G01X45338Y56287D01*
G01X45343Y56288D01*
G01X45351Y56290D01*
G01X45357Y56292D01*
G01X45364Y56295D01*
G01X45371Y56297D01*
G01X45374Y56299D01*
G01X45377Y56300D01*
G01X45384Y56304D01*
G01X45389Y56306D01*
G01X45395Y56309D01*
G01X45398Y56311D01*
G01X45400Y56312D01*
G01X45405Y56316D01*
G01X45413Y56322D01*
G01X45419Y56327D01*
G01X45421Y56329D01*
G01X45424Y56332D01*
G01X45426Y56335D01*
G01X45429Y56338D01*
G01X45434Y56342D01*
G01X45438Y56347D01*
G01X45441Y56350D01*
G01X45445Y56353D01*
G01X45446Y56354D01*
G01X45447Y56356D01*
G01X45449Y56359D01*
G01X45451Y56363D01*
G01X45456Y56371D01*
G01X45460Y56377D01*
G01X45465Y56385D01*
G01X45469Y56394D01*
G01X45474Y56401D01*
G01X45475Y56404D01*
G01X45476Y56407D01*
G01X45478Y56414D01*
G01X45482Y56422D01*
G01X45483Y56426D01*
G01X45486Y56435D01*
G01X45487Y56439D01*
G01X45488Y56445D01*
G01X45490Y56452D01*
G01Y56455D01*
G01X45491Y56458D01*
G01X45494Y56463D01*
G01Y56466D01*
G01X45495Y56470D01*
G01Y56479D01*
G01X45496Y56484D01*
G01X45497Y56490D01*
G01X45499Y56495D01*
G01Y56499D01*
G01X45500Y56505D01*
G01Y56522D01*
G01Y56526D01*
G01X45501Y56529D01*
G01X45502Y56532D01*
G01Y56535D01*
G01Y56544D01*
G01Y56551D01*
G01Y56556D01*
G01X45501Y56560D01*
G01X45500Y56565D01*
G01Y56587D01*
G01X45499Y56593D01*
G01X45497Y56599D01*
G01X45496Y56605D01*
G01X45493Y56623D01*
G01X45492Y56627D01*
G01X45491Y56631D01*
G01X45489Y56635D01*
G01X45488Y56637D01*
G01Y56640D01*
G01Y56645D01*
G01X45487Y56647D01*
G01X45486Y56649D01*
G01X45484Y56653D01*
G01X45483Y56655D01*
G01X45482Y56657D01*
G01X45481Y56664D01*
G01X45480Y56666D01*
G01X45479Y56668D01*
G01X45477Y56670D01*
G01X45476Y56672D01*
G01X45475Y56674D01*
G01X45473Y56681D01*
G01X45471Y56685D01*
G01X45468Y56689D01*
G01X45465Y56697D01*
G01X45463Y56700D01*
G01X45461Y56703D01*
G01X45454Y56712D01*
G01X45448Y56721D01*
G01X45446Y56725D01*
G01X45444Y56726D01*
G01X45441Y56728D01*
G01X45438Y56731D01*
G01X45434Y56736D01*
G01X45429Y56740D01*
G01X45426Y56743D01*
G01X45423Y56747D01*
G01X45421Y56749D01*
G01X45419Y56751D01*
G01X45412Y56755D01*
G01X45404Y56761D01*
G01X45401Y56763D01*
G01X45399Y56765D01*
G01X45395Y56767D01*
G01X45391Y56769D01*
G01X45385Y56772D01*
G01X45383Y56773D01*
G01X45377Y56775D01*
G01X45365Y56780D01*
G01X45359Y56783D01*
G01X45351Y56785D01*
G01X45339Y56788D01*
G01X45336Y56789D01*
G01X45322Y56791D01*
G01X45316Y56792D01*
G01X45300D01*
G01X45289D01*
G01X45269D01*
G01X45262D01*
G01X45261Y56791D01*
G01X45250Y56788D01*
G01X45243Y56785D01*
G01X45234Y56783D01*
G01X45230Y56782D01*
G01X45228Y56781D01*
G01X45225Y56779D01*
G01X45221Y56777D01*
G01X45214Y56775D01*
G01X45210Y56773D01*
G01X45207Y56771D01*
G01X45201Y56769D01*
G01X45197Y56767D01*
G01X45182Y56757D01*
G01X45178Y56754D01*
G01X45173Y56750D01*
G01X45170Y56748D01*
G01X45167Y56745D01*
G01X45163Y56739D01*
G01X45159Y56737D01*
G01X45157Y56735D01*
G01X45156Y56733D01*
G01X45154Y56731D01*
G01X45150Y56725D01*
G01X45147Y56722D01*
G01X45146Y56720D01*
G01X45143Y56719D01*
G01X45141Y56718D01*
G01X45140Y56717D01*
G01X45139D01*
G01X45137Y56718D01*
G01X45135Y56719D01*
G01X45133Y56720D01*
G01X45124Y56727D01*
G01X45114Y56733D01*
G01X45110Y56736D01*
G01X45105Y56740D01*
G01X45102Y56743D01*
G01X45098Y56746D01*
G01X45096Y56748D01*
G01X45095Y56749D01*
G01X45094Y56751D01*
G01Y56753D01*
G01X45095Y56755D01*
G01X45100Y56762D01*
G01X45108Y56772D01*
G01X45111Y56776D01*
G01X45114Y56779D01*
G01X45119Y56783D01*
G01X45122Y56786D01*
G01X45123Y56788D01*
G01X45125Y56790D01*
G01X45127Y56792D01*
G01X45133Y56795D01*
G01X45136Y56798D01*
G01X45138Y56800D01*
G01X45140Y56803D01*
G01X45141Y56804D01*
G01X45143Y56805D01*
G01X45146Y56806D01*
G01X45148Y56807D01*
G01X45149Y56808D01*
G01X45152Y56811D01*
G01X45156Y56813D01*
G01X45163Y56817D01*
G01X45169Y56820D01*
G01X45171Y56822D01*
G01X45180Y56826D01*
G01X45185Y56828D01*
G01X45190Y56831D01*
G01X45196Y56834D01*
G01X45207Y56838D01*
G01X45209Y56839D01*
G01X45225Y56843D01*
G01X45236Y56846D01*
G01X45239Y56847D01*
G01X45247Y56848D01*
G01X45256Y56849D01*
G01X45268Y56850D01*
G01X45281Y56851D01*
G01X45286D01*
G01X45290Y56852D01*
G01X45295Y56853D01*
G01X45302D01*
G01X45308Y56852D01*
G01X45310D01*
G01X45312Y56851D01*
G01X45315D01*
G01X45325D01*
G01X45333Y56850D01*
G01X45337D01*
G01X45341D01*
G01X45343Y56849D01*
G01X45349Y56848D01*
G01X45358Y56846D01*
G01X45367Y56843D01*
G01X45376Y56841D01*
G01X45381Y56840D01*
G01X45388Y56836D01*
G01X45396Y56834D01*
G01X45400Y56832D01*
G01X45403Y56831D01*
G01X45413Y56826D01*
G01X45419Y56823D01*
G01X45428Y56818D01*
G01X45433Y56816D01*
G01X45438Y56813D01*
G01X45441Y56812D01*
G01X45443Y56810D01*
G01X45444Y56808D01*
G01X45445Y56807D01*
G01X45447Y56805D01*
G01X45448Y56804D01*
G01X45452Y56803D01*
G01X45454Y56802D01*
G01X45455Y56801D01*
G01X45458Y56799D01*
G01X45462Y56795D01*
G01X45466Y56792D01*
G01X45470Y56787D01*
G01X45473Y56784D01*
G01X45478Y56780D01*
G01X45482Y56775D01*
G01X45485Y56772D01*
G01X45490Y56768D01*
G01X45493Y56765D01*
G01X45498Y56758D01*
G01X45506Y56747D01*
G01X45512Y56738D01*
G01X45518Y56728D01*
G01X45525Y56716D01*
G01X45530Y56708D01*
G01X45531Y56705D01*
G01X45534Y56699D01*
G01X45536Y56694D01*
G01X45540Y56683D01*
G01X45544Y56674D01*
G01X45547Y56666D01*
G01X45549Y56661D01*
G01X45551Y56652D01*
G01X45553Y56644D01*
G01X45556Y56633D01*
G01X45557Y56627D01*
G01X45559Y56621D01*
G01Y56617D01*
G01X45562Y56600D01*
G01X45563Y56592D01*
G01X45564Y56588D01*
G01Y56586D01*
G01X45565Y56579D01*
G01Y56537D01*
G01Y56492D01*
G01X45564Y56487D01*
G01X45563Y56482D01*
G01X45562Y56476D01*
G01X45561Y56472D01*
G01X45560Y56465D01*
G01Y56461D01*
G01X45558Y56452D01*
G01X45556Y56442D01*
G01X45553Y56433D01*
G01X45551Y56425D01*
G01X45549Y56419D01*
G01X45546Y56412D01*
G01X45543Y56400D01*
G01X45542Y56399D01*
G01X45539Y56389D01*
G01X45535Y56380D01*
G01X45531Y56371D01*
G01X45528Y56364D01*
G01X45526Y56361D01*
G01X45525Y56359D01*
G01X45523Y56357D01*
G01X45520Y56353D01*
G01X45518Y56347D01*
G01X45516Y56344D01*
G01X45514Y56341D01*
G01X45506Y56330D01*
G01X45500Y56321D01*
G01X45495Y56316D01*
G01X45493Y56313D01*
G01X45490Y56311D01*
G01X45487Y56309D01*
G01X45484Y56306D01*
G01X45480Y56301D01*
G01X45478Y56298D01*
G01X45475Y56295D01*
G01X45467Y56288D01*
G01X45464Y56286D01*
G01X45462Y56283D01*
G01X45460Y56280D01*
G01X45458Y56279D01*
G01X45456Y56277D01*
G01X45450Y56274D01*
G01X45447Y56272D01*
G01X45442Y56268D01*
G01X45433Y56262D01*
G01X45429Y56259D01*
G01X45421Y56255D01*
G01X45417Y56254D01*
G01X45416Y56252D01*
G01X45414Y56251D01*
G01X45412Y56250D01*
G01X45410Y56249D01*
G01X45403Y56247D01*
G01X45397Y56243D01*
G01X45393Y56242D01*
G01X45386Y56239D01*
G01X45379Y56236D01*
G01X45376Y56235D01*
G01X45372Y56234D01*
G01X45363Y56232D01*
G01X45356Y56231D01*
G01X45349Y56229D01*
G01X45337Y56228D01*
G01X45329Y56226D01*
G01X45327Y56225D01*
G01X45319D01*
G01X45315D01*
G01X45312D01*
G01X45311D01*
G01X45310Y56224D01*
G37*
G36*
G01X44615Y56538D02*
G01X44615Y56235D01*
G01X44249D01*
G01X44247Y56243D01*
G01Y56248D01*
G01Y56269D01*
G01Y56291D01*
G01X44253Y56292D01*
G01X44254D01*
G01X44304Y56293D01*
G01X44405D01*
G01X44552D01*
G01Y56841D01*
G01X44615D01*
G01Y56538D01*
G37*
G36*
G01X47314Y56237D02*
G01X47314Y56237D01*
G01X47311D01*
G01X47279Y56236D01*
G01X47130Y56235D01*
G01X46947D01*
G01Y56293D01*
G01X47250D01*
G01Y56839D01*
G01X47258Y56840D01*
G01X47264D01*
G01X47288Y56841D01*
G01X47313D01*
G01X47314Y56832D01*
G01X47315Y56819D01*
G01X47316Y56532D01*
G01X47315Y56239D01*
G01X47314Y56237D01*
G37*
G36*
G01X45964Y56236D02*
G01X45963Y56236D01*
G01X45938Y56235D01*
G01X45780D01*
G01X45597D01*
G01Y56293D01*
G01X45902D01*
G01Y56841D01*
G01X45963D01*
G01X45964Y56835D01*
G01Y56829D01*
G01X45965Y56533D01*
G01X45964Y56238D01*
G01Y56236D01*
G37*
G36*
G01X43265Y56538D02*
G01X43265Y56235D01*
G01X42899D01*
G01Y56293D01*
G01X43202D01*
G01Y56839D01*
G01X43210Y56840D01*
G01X43215D01*
G01X43239Y56841D01*
G01X43265D01*
G01Y56538D01*
G37*
G36*
G01X43558Y56224D02*
G01X43553Y56223D01*
G01X43539D01*
G01X43535D01*
G01X43520D01*
G01X43515Y56224D01*
G01X43501Y56228D01*
G01X43485Y56232D01*
G01X43480Y56234D01*
G01X43472Y56238D01*
G01X43464Y56241D01*
G01X43461Y56242D01*
G01X43459Y56244D01*
G01X43448Y56252D01*
G01X43444Y56255D01*
G01X43440Y56260D01*
G01X43437Y56263D01*
G01X43434Y56265D01*
G01X43432Y56267D01*
G01X43431Y56269D01*
G01X43427Y56276D01*
G01X43420Y56287D01*
G01X43414Y56297D01*
G01X43412Y56300D01*
G01X43411Y56303D01*
G01X43410Y56306D01*
G01X43408Y56312D01*
G01X43407Y56315D01*
G01X43406Y56318D01*
G01X43404Y56321D01*
G01X43403Y56323D01*
G01X43402Y56326D01*
G01X43400Y56336D01*
G01X43398Y56345D01*
G01X43397Y56350D01*
G01X43396Y56357D01*
G01X43394Y56367D01*
G01X43392Y56389D01*
G01Y56400D01*
G01X43391Y56618D01*
G01X43393Y56825D01*
G01X43394Y56834D01*
G01Y56837D01*
G01Y56838D01*
G01Y56839D01*
G01X43396D01*
G01X43401Y56840D01*
G01X43408Y56841D01*
G01X43426D01*
G01X43454D01*
G01X43455Y56835D01*
G01Y56830D01*
G01X43456Y56602D01*
G01X43457Y56374D01*
G01Y56372D01*
G01X43459Y56368D01*
G01X43460Y56362D01*
G01X43462Y56349D01*
G01X43463Y56345D01*
G01X43464Y56341D01*
G01X43465Y56339D01*
G01X43468Y56334D01*
G01X43470Y56327D01*
G01X43471Y56325D01*
G01X43472Y56324D01*
G01X43474Y56321D01*
G01X43475Y56319D01*
G01X43476Y56318D01*
G01X43478Y56314D01*
G01X43479Y56313D01*
G01X43480Y56311D01*
G01X43483Y56309D01*
G01X43486Y56306D01*
G01X43489Y56302D01*
G01X43491Y56300D01*
G01X43493Y56299D01*
G01X43496Y56297D01*
G01X43505Y56292D01*
G01X43511Y56289D01*
G01X43519Y56286D01*
G01X43523Y56285D01*
G01X43529Y56284D01*
G01X43535D01*
G01X43542Y56283D01*
G01X43551Y56284D01*
G01X43558D01*
G01X43562Y56285D01*
G01X43565Y56287D01*
G01X43570Y56289D01*
G01X43575Y56290D01*
G01X43579Y56292D01*
G01X43591Y56300D01*
G01X43594Y56303D01*
G01X43598Y56308D01*
G01X43601Y56311D01*
G01X43605Y56314D01*
G01X43606Y56315D01*
G01X43607Y56317D01*
G01X43608Y56320D01*
G01X43610Y56324D01*
G01X43614Y56330D01*
G01X43616Y56334D01*
G01X43621Y56344D01*
G01X43623Y56349D01*
G01X43625Y56354D01*
G01Y56356D01*
G01X43627Y56358D01*
G01X43628Y56359D01*
G01X43630Y56360D01*
G01X43631D01*
G01X43633D01*
G01X43635D01*
G01X43639Y56357D01*
G01X43642Y56356D01*
G01X43648Y56353D01*
G01X43653Y56350D01*
G01X43658Y56348D01*
G01X43664Y56346D01*
G01X43668Y56344D01*
G01X43673Y56342D01*
G01X43681Y56338D01*
G01X43683Y56336D01*
G01X43684D01*
G01Y56335D01*
G01X43685Y56334D01*
G01Y56333D01*
G01X43686Y56331D01*
G01Y56329D01*
G01X43685Y56327D01*
G01X43682Y56320D01*
G01X43680Y56314D01*
G01X43679Y56312D01*
G01X43673Y56302D01*
G01X43671Y56297D01*
G01X43668Y56291D01*
G01X43667Y56289D01*
G01X43665Y56287D01*
G01X43664Y56286D01*
G01X43662Y56284D01*
G01X43660Y56283D01*
G01X43659Y56281D01*
G01X43656Y56276D01*
G01X43655Y56274D01*
G01X43653Y56273D01*
G01X43650Y56270D01*
G01X43647Y56267D01*
G01X43643Y56262D01*
G01X43639Y56259D01*
G01X43626Y56249D01*
G01X43620Y56246D01*
G01X43615Y56243D01*
G01X43611Y56241D01*
G01X43603Y56238D01*
G01X43599Y56235D01*
G01X43592Y56232D01*
G01X43589Y56231D01*
G01X43584Y56230D01*
G01X43580Y56229D01*
G01X43572Y56228D01*
G01X43567Y56226D01*
G01X43558Y56224D01*
G37*
G36*
G01X47609Y56224D02*
G01X47603Y56223D01*
G01X47589D01*
G01X47585D01*
G01X47569D01*
G01X47563Y56224D01*
G01X47550Y56228D01*
G01X47534Y56232D01*
G01X47529Y56234D01*
G01X47520Y56238D01*
G01X47513Y56241D01*
G01X47509Y56243D01*
G01X47508Y56244D01*
G01X47503Y56248D01*
G01X47494Y56254D01*
G01X47489Y56259D01*
G01X47486Y56261D01*
G01X47484Y56264D01*
G01X47478Y56272D01*
G01X47469Y56286D01*
G01X47467Y56290D01*
G01X47465Y56292D01*
G01X47464Y56294D01*
G01X47463Y56296D01*
G01X47461Y56302D01*
G01X47458Y56308D01*
G01X47456Y56313D01*
G01X47454Y56320D01*
G01X47451Y56326D01*
G01X47450Y56328D01*
G01X47449Y56331D01*
G01Y56334D01*
G01X47448Y56344D01*
G01X47446Y56348D01*
G01X47445Y56351D01*
G01X47444Y56356D01*
G01Y56367D01*
G01X47443Y56372D01*
G01Y56374D01*
G01X47442Y56377D01*
G01Y56380D01*
G01Y56389D01*
G01Y56396D01*
G01X47441Y56401D01*
G01X47440Y56403D01*
G01Y56405D01*
G01X47439Y56620D01*
G01X47441Y56830D01*
G01Y56836D01*
G01X47442Y56837D01*
G01X47443Y56838D01*
G01X47445Y56839D01*
G01X47447Y56840D01*
G01X47451D01*
G01X47461Y56841D01*
G01X47474D01*
G01X47505D01*
G01Y56609D01*
G01X47506Y56376D01*
G01Y56375D01*
G01Y56374D01*
G01X47507Y56370D01*
G01X47508Y56365D01*
G01X47511Y56351D01*
G01Y56348D01*
G01X47512Y56345D01*
G01X47513Y56342D01*
G01X47517Y56334D01*
G01X47519Y56327D01*
G01X47520Y56325D01*
G01X47521Y56324D01*
G01X47523Y56321D01*
G01X47524Y56319D01*
G01X47530Y56311D01*
G01X47532Y56308D01*
G01X47534Y56306D01*
G01X47540Y56302D01*
G01X47545Y56297D01*
G01X47551Y56293D01*
G01X47556Y56291D01*
G01X47560Y56289D01*
G01X47572Y56285D01*
G01X47575Y56284D01*
G01X47580D01*
G01X47592Y56283D01*
G01X47599Y56284D01*
G01X47603D01*
G01X47608Y56285D01*
G01X47611D01*
G01X47616Y56288D01*
G01X47623Y56290D01*
G01X47628Y56292D01*
G01X47630Y56293D01*
G01X47637Y56298D01*
G01X47640Y56301D01*
G01X47644Y56306D01*
G01X47647Y56309D01*
G01X47651Y56311D01*
G01X47652Y56313D01*
G01X47654Y56315D01*
G01X47657Y56322D01*
G01X47659Y56324D01*
G01X47661Y56326D01*
G01X47664Y56330D01*
G01X47668Y56341D01*
G01X47673Y56351D01*
G01X47675Y56356D01*
G01X47676Y56357D01*
G01X47677Y56358D01*
G01Y56359D01*
G01X47678Y56360D01*
G01X47679D01*
G01X47681D01*
G01X47682D01*
G01X47684Y56359D01*
G01X47687Y56358D01*
G01X47690Y56357D01*
G01X47696Y56353D01*
G01X47698Y56352D01*
G01X47701Y56351D01*
G01X47708Y56349D01*
G01X47712Y56346D01*
G01X47716Y56344D01*
G01X47726Y56340D01*
G01X47730Y56337D01*
G01X47731D01*
G01X47733Y56335D01*
G01X47734Y56333D01*
G01Y56331D01*
G01Y56328D01*
G01X47732Y56322D01*
G01X47730Y56317D01*
G01X47727Y56311D01*
G01X47724Y56304D01*
G01X47722Y56300D01*
G01X47721Y56299D01*
G01X47719Y56297D01*
G01X47717Y56293D01*
G01X47714Y56288D01*
G01X47713Y56286D01*
G01X47711Y56285D01*
G01X47710Y56283D01*
G01X47708Y56282D01*
G01X47707Y56281D01*
G01X47705Y56279D01*
G01X47704Y56276D01*
G01X47703Y56274D01*
G01X47702Y56273D01*
G01X47698Y56270D01*
G01X47695Y56267D01*
G01X47691Y56262D01*
G01X47688Y56259D01*
G01X47671Y56247D01*
G01X47667Y56245D01*
G01X47662Y56242D01*
G01X47656Y56239D01*
G01X47647Y56235D01*
G01X47643Y56233D01*
G01X47640Y56231D01*
G01X47637Y56230D01*
G01X47634D01*
G01X47622Y56228D01*
G01X47611Y56225D01*
G01X47609Y56224D01*
G37*
G36*
G01X44907Y56224D02*
G01X44904Y56223D01*
G01X44900D01*
G01X44885D01*
G01X44871D01*
G01X44865Y56224D01*
G01X44859Y56225D01*
G01X44845Y56228D01*
G01X44839Y56230D01*
G01X44833Y56232D01*
G01X44829Y56234D01*
G01X44826Y56235D01*
G01X44819Y56238D01*
G01X44815Y56241D01*
G01X44803Y56248D01*
G01X44800Y56250D01*
G01X44797Y56253D01*
G01X44795Y56255D01*
G01X44793Y56257D01*
G01X44790Y56260D01*
G01X44785Y56264D01*
G01X44782Y56268D01*
G01X44773Y56281D01*
G01X44769Y56287D01*
G01X44764Y56295D01*
G01X44762Y56300D01*
G01X44760Y56305D01*
G01X44758Y56312D01*
G01X44756Y56316D01*
G01X44754Y56318D01*
G01Y56320D01*
G01X44753Y56323D01*
G01X44751Y56331D01*
G01X44749Y56338D01*
G01X44748Y56344D01*
G01X44746Y56357D01*
G01X44744Y56364D01*
G01Y56369D01*
G01X44743Y56377D01*
G01Y56381D01*
G01X44742Y56382D01*
G01Y56383D01*
G01X44741Y56612D01*
G01Y56839D01*
G01X44749Y56840D01*
G01X44754D01*
G01X44779Y56841D01*
G01X44804D01*
G01X44805Y56835D01*
G01X44806Y56830D01*
G01X44807Y56600D01*
G01X44808Y56369D01*
G01Y56367D01*
G01Y56365D01*
G01X44810Y56360D01*
G01X44811Y56350D01*
G01X44813Y56345D01*
G01X44816Y56335D01*
G01X44818Y56331D01*
G01X44821Y56326D01*
G01X44822Y56323D01*
G01X44828Y56314D01*
G01X44832Y56309D01*
G01X44833Y56308D01*
G01X44837Y56305D01*
G01X44842Y56300D01*
G01X44849Y56294D01*
G01X44853Y56292D01*
G01X44858Y56290D01*
G01X44865Y56288D01*
G01X44870Y56286D01*
G01X44871Y56285D01*
G01X44875Y56284D01*
G01X44880D01*
G01X44891Y56283D01*
G01X44901Y56284D01*
G01X44905D01*
G01X44909Y56285D01*
G01X44911D01*
G01X44914Y56287D01*
G01X44916Y56288D01*
G01X44919Y56289D01*
G01X44926Y56291D01*
G01X44928D01*
G01X44930Y56292D01*
G01X44933Y56295D01*
G01X44939Y56299D01*
G01X44941Y56300D01*
G01X44943Y56301D01*
G01X44944Y56303D01*
G01X44946Y56306D01*
G01X44949Y56309D01*
G01X44952Y56311D01*
G01X44954Y56313D01*
G01X44955Y56314D01*
G01X44956Y56318D01*
G01X44959Y56322D01*
G01X44962Y56327D01*
G01X44964Y56330D01*
G01X44965Y56333D01*
G01X44968Y56340D01*
G01X44971Y56344D01*
G01X44973Y56347D01*
G01X44974Y56351D01*
G01X44975Y56354D01*
G01X44976Y56356D01*
G01X44977Y56357D01*
G01X44980Y56358D01*
G01X44982Y56359D01*
G01X44985Y56358D01*
G01X44988D01*
G01X44990Y56357D01*
G01X44992Y56356D01*
G01X44996Y56354D01*
G01X45010Y56348D01*
G01X45019Y56343D01*
G01X45026Y56340D01*
G01X45030Y56338D01*
G01X45032Y56336D01*
G01X45033Y56335D01*
G01X45035Y56334D01*
G01Y56332D01*
G01Y56329D01*
G01X45034Y56327D01*
G01X45032Y56322D01*
G01X45030Y56315D01*
G01X45028Y56311D01*
G01X45025Y56305D01*
G01X45020Y56296D01*
G01X45013Y56285D01*
G01X45010Y56281D01*
G01X45007Y56279D01*
G01X45005Y56277D01*
G01X45004Y56276D01*
G01X45002Y56274D01*
G01X45001Y56271D01*
G01X45000Y56269D01*
G01X44999Y56268D01*
G01X44990Y56261D01*
G01X44987Y56259D01*
G01X44981Y56254D01*
G01X44977Y56251D01*
G01X44974Y56248D01*
G01X44967Y56245D01*
G01X44961Y56241D01*
G01X44959Y56240D01*
G01X44953Y56237D01*
G01X44941Y56232D01*
G01X44937Y56231D01*
G01X44932Y56230D01*
G01X44929Y56229D01*
G01X44917Y56226D01*
G01X44911Y56225D01*
G01X44907Y56224D01*
G37*
G36*
G01X46256Y56224D02*
G01X46254Y56223D01*
G01X46250D01*
G01X46234D01*
G01X46219D01*
G01X46213Y56224D01*
G01X46199Y56228D01*
G01X46184Y56232D01*
G01X46179Y56234D01*
G01X46170Y56238D01*
G01X46163Y56241D01*
G01X46160Y56242D01*
G01X46158Y56244D01*
G01X46157Y56246D01*
G01X46156Y56247D01*
G01X46154Y56249D01*
G01X46153Y56250D01*
G01X46149Y56251D01*
G01X46147Y56252D01*
G01X46146Y56253D01*
G01X46145Y56254D01*
G01X46140Y56259D01*
G01X46137Y56262D01*
G01X46133Y56268D01*
G01X46127Y56275D01*
G01X46125Y56277D01*
G01X46112Y56299D01*
G01X46110Y56303D01*
G01X46108Y56310D01*
G01X46104Y56319D01*
G01X46101Y56327D01*
G01X46100Y56330D01*
G01X46099Y56334D01*
G01Y56338D01*
G01X46098Y56344D01*
G01X46096Y56352D01*
G01X46095Y56357D01*
G01X46094Y56362D01*
G01Y56366D01*
G01Y56375D01*
G01X46093Y56378D01*
G01Y56379D01*
G01X46092Y56380D01*
G01X46091Y56612D01*
G01Y56841D01*
G01X46154D01*
G01X46156Y56830D01*
G01Y56818D01*
G01X46157Y56595D01*
G01X46158Y56369D01*
G01Y56367D01*
G01X46159Y56365D01*
G01Y56361D01*
G01Y56356D01*
G01X46160Y56354D01*
G01X46161Y56351D01*
G01X46163Y56346D01*
G01X46165Y56341D01*
G01X46166Y56335D01*
G01X46167Y56331D01*
G01X46168Y56329D01*
G01X46171Y56324D01*
G01X46176Y56315D01*
G01X46178Y56313D01*
G01X46182Y56308D01*
G01X46185Y56305D01*
G01X46187Y56303D01*
G01X46189Y56302D01*
G01X46193Y56299D01*
G01X46195Y56298D01*
G01X46197Y56296D01*
G01X46198Y56294D01*
G01X46200Y56293D01*
G01X46202Y56291D01*
G01X46204Y56290D01*
G01X46211Y56289D01*
G01X46214Y56288D01*
G01X46217Y56287D01*
G01X46221Y56285D01*
G01X46225Y56284D01*
G01X46231D01*
G01X46242Y56283D01*
G01X46251Y56284D01*
G01X46255D01*
G01X46260Y56285D01*
G01X46261D01*
G01X46262D01*
G01X46264Y56287D01*
G01X46268Y56289D01*
G01X46275Y56291D01*
G01X46279Y56293D01*
G01X46288Y56299D01*
G01X46292Y56302D01*
G01X46296Y56307D01*
G01X46300Y56311D01*
G01X46304Y56316D01*
G01X46306Y56319D01*
G01X46307Y56321D01*
G01X46311Y56326D01*
G01X46316Y56334D01*
G01X46317Y56337D01*
G01X46320Y56343D01*
G01X46324Y56352D01*
G01X46326Y56356D01*
G01X46327Y56357D01*
G01X46328Y56359D01*
G01X46330D01*
G01X46332D01*
G01X46335D01*
G01X46347Y56354D01*
G01X46351Y56352D01*
G01X46356Y56349D01*
G01X46359Y56348D01*
G01X46361Y56346D01*
G01X46371Y56343D01*
G01X46375Y56341D01*
G01X46377Y56340D01*
G01X46380Y56337D01*
G01X46382Y56335D01*
G01X46383D01*
G01X46384Y56333D01*
G01X46385Y56332D01*
G01Y56329D01*
G01Y56327D01*
G01X46384Y56325D01*
G01X46383Y56323D01*
G01X46381Y56319D01*
G01X46379Y56315D01*
G01X46377Y56310D01*
G01X46373Y56302D01*
G01X46368Y56293D01*
G01X46360Y56282D01*
G01X46358Y56279D01*
G01X46354Y56276D01*
G01X46353Y56275D01*
G01X46351Y56273D01*
G01X46350Y56272D01*
G01X46349Y56268D01*
G01X46347Y56266D01*
G01X46345Y56265D01*
G01X46339Y56261D01*
G01X46336Y56258D01*
G01X46334Y56256D01*
G01X46333Y56254D01*
G01X46331Y56252D01*
G01X46329Y56251D01*
G01X46326Y56250D01*
G01X46322Y56247D01*
G01X46317Y56244D01*
G01X46314Y56242D01*
G01X46311Y56241D01*
G01X46300Y56236D01*
G01X46295Y56234D01*
G01X46290Y56232D01*
G01X46284Y56230D01*
G01X46278Y56228D01*
G01X46271Y56227D01*
G01X46262Y56225D01*
G01X46258D01*
G01X46256Y56224D01*
G37*
G04 Text End*
G54D10*

M02*
