G04 Layer: BoardOutlineLayer*
G04 EasyEDA Pro v1.7.27, 2022-08-27 15:43:30*
G04 Gerber Generator version 0.3*
G04 Scale: 100 percent, Rotated: No, Reflected: No*
G04 Dimensions in millimeters*
G04 Leading zeros omitted, absolute positions, 3 integers and 3 decimals*
%FSLAX33Y33*%
%MOMM*%
%ADD10C,0.254*%
%ADD11C,0.0254*%
G75*


G04 PolygonModel Start*
G54D10*
G01X3925Y66830D02*
G01X28925Y66830D01*
G01Y65830D01*
G01X61902D01*
G01Y66830D01*
G01X86902D01*
G01Y65830D01*
G01X90652D01*
G01Y46830D01*
G01X90652Y46830D02*
G01X86902Y46830D01*
G01Y45230D01*
G01X61902D01*
G01Y46830D01*
G01X28925D01*
G01Y45230D01*
G01X28798D01*
G01Y42415D01*
G01X61902D01*
G01Y44015D01*
G01X86775D01*
G01Y42415D01*
G01X90700D01*
G01Y23415D01*
G01X86775D01*
G01Y22415D01*
G01X61902D01*
G01Y23415D01*
G01X57850D01*
G01Y22415D01*
G01X32850D01*
G01Y23415D01*
G01X28798D01*
G01Y19600D01*
G01X32850D01*
G01Y20600D01*
G01X57850D01*
G01Y19600D01*
G01X61902D01*
G01Y20600D01*
G01X86775D01*
G01Y19600D01*
G01X90700D01*
G01Y600D01*
G01X86775D01*
G01Y-1000D01*
G01X61902D01*
G01Y600D01*
G01X28798D01*
G01Y-1000D01*
G01X3925D01*
G01Y600D01*
G01X0D01*
G01Y19600D01*
G01X3925D01*
G01Y23415D01*
G01X3925Y23415D02*
G01X0Y23415D01*
G01Y42415D01*
G01X3925D01*
G01Y46830D01*
G01X175D01*
G01Y65830D01*
G01X3925D01*
G01Y66830D01*
G04 PolygonModel End*

G04 Rect Start*
G54D11*
G01X12421Y58830D02*
G01X19421Y58830D01*
G01Y61830D01*
G01X12421D01*
G01Y58830D01*
G01X73497Y25274D02*
G01X73497Y25047D01*
G03X75004Y23540I1507J0D01*
G01X80990D01*
G03X82497Y25047I0J1507D01*
G01Y25274D01*
G03X80990Y26780I-1507J0D01*
G01X75004D01*
G03X73497Y25274I0J-1507D01*
G01X53325Y29831D02*
G01X53325Y24831D01*
G01X63325D01*
G01Y29831D01*
G01X53325D01*
G01X67640Y61822D02*
G01X63640Y61822D01*
G01Y59741D01*
G01X67640D01*
G01Y61822D01*
G04 Rect End*

M02*
