G04 Layer: BottomLayer*
G04 EasyEDA Pro v1.7.27, 2022-08-27 15:43:30*
G04 Gerber Generator version 0.3*
G04 Scale: 100 percent, Rotated: No, Reflected: No*
G04 Dimensions in millimeters*
G04 Leading zeros omitted, absolute positions, 3 integers and 3 decimals*
%FSLAX33Y33*%
%MOMM*%
%ADD10C,0.00508*%
G75*


G04 Via Start*
G54D10*
G01X20826Y44625D03*
G01X27826Y44625D03*
G01X21826Y44625D03*
G01X22826Y44625D03*
G01X23826Y44625D03*
G01X24826Y44625D03*
G01X25826Y44625D03*
G01X26826Y44625D03*
G01X5826Y44625D03*
G01X6826Y44625D03*
G01X18826Y44625D03*
G01X19826Y44625D03*
G01X4826Y44625D03*
G01X4699Y21209D03*
G01X5699Y21209D03*
G01X6699Y21209D03*
G01X7699Y21209D03*
G01X57530Y64897D03*
G01X57530Y62897D03*
G01X57530Y61897D03*
G01X57530Y63897D03*
G01X57530Y58897D03*
G01X57530Y60897D03*
G01X57530Y48897D03*
G01X57530Y56897D03*
G01X57530Y57897D03*
G01X57530Y55897D03*
G01X57530Y50897D03*
G01X57530Y49897D03*
G01X57530Y51897D03*
G01X57530Y54897D03*
G01X57530Y53897D03*
G01X57530Y52897D03*
G01X57530Y59897D03*
G01X57530Y47897D03*
G01X7826Y44625D03*
G01X8826Y44625D03*
G01X9826Y44625D03*
G01X10826Y44625D03*
G01X12826Y44625D03*
G01X13826Y44625D03*
G01X11826Y44625D03*
G01X17826Y44625D03*
G01X14826Y44625D03*
G01X15826Y44625D03*
G01X16826Y44625D03*
G01X24699Y21209D03*
G01X25699Y21209D03*
G01X26699Y21209D03*
G01X27699Y21209D03*
G01X11699Y21209D03*
G01X12699Y21209D03*
G01X13699Y21209D03*
G01X14699Y21209D03*
G01X15699Y21209D03*
G01X8699Y21209D03*
G01X9699Y21209D03*
G01X10699Y21209D03*
G01X16699Y21209D03*
G01X18699Y21209D03*
G01X19699Y21209D03*
G01X20699Y21209D03*
G01X21699Y21209D03*
G01X22699Y21209D03*
G01X23699Y21209D03*
G01X17699Y21209D03*
G01X33300Y60897D03*
G01X33300Y61897D03*
G01X33300Y62897D03*
G01X33300Y63897D03*
G01X33300Y57897D03*
G01X33300Y49897D03*
G01X33300Y50897D03*
G01X33300Y51897D03*
G01X33300Y52897D03*
G01X33300Y53897D03*
G01X33300Y54897D03*
G01X33300Y55897D03*
G01X33300Y48897D03*
G01X33300Y47897D03*
G01X33300Y58897D03*
G01X33300Y56897D03*
G01X33300Y59897D03*
G01X33300Y64897D03*
G04 Via End*

M02*
