G04 Layer: BottomSolderMaskLayer*
G04 EasyEDA Pro v1.7.27, 2022-09-03 12:31:21*
G04 Gerber Generator version 0.3*
G04 Scale: 100 percent, Rotated: No, Reflected: No*
G04 Dimensions in millimeters*
G04 Leading zeros omitted, absolute positions, 3 integers and 3 decimals*
%FSLAX33Y33*%
%MOMM*%
%ADD10C,0.00508*%
G75*


G04 Rect Start*
G36*
G01X175Y57330D02*
G01X175Y56330D01*
G01X32675D01*
G01Y57330D01*
G01X175D01*
G37*
G54D10*
G01X175Y57330D02*
G01X175Y56330D01*
G01X32675D01*
G01Y57330D01*
G01X175D01*
G36*
G01X175Y49830D02*
G01X175Y48830D01*
G01X32675D01*
G01Y49830D01*
G01X175D01*
G37*
G01X175Y49830D02*
G01X175Y48830D01*
G01X32675D01*
G01Y49830D01*
G01X175D01*
G36*
G01X175Y62330D02*
G01X175Y61330D01*
G01X32675D01*
G01Y62330D01*
G01X175D01*
G37*
G01X175Y62330D02*
G01X175Y61330D01*
G01X32675D01*
G01Y62330D01*
G01X175D01*
G36*
G01X175Y59830D02*
G01X175Y58830D01*
G01X32675D01*
G01Y59830D01*
G01X175D01*
G37*
G01X175Y59830D02*
G01X175Y58830D01*
G01X32675D01*
G01Y59830D01*
G01X175D01*
G36*
G01X175Y52330D02*
G01X175Y51330D01*
G01X32675D01*
G01Y52330D01*
G01X175D01*
G37*
G01X175Y52330D02*
G01X175Y51330D01*
G01X32675D01*
G01Y52330D01*
G01X175D01*
G36*
G01X175Y54830D02*
G01X175Y53830D01*
G01X32675D01*
G01Y54830D01*
G01X175D01*
G37*
G01X175Y54830D02*
G01X175Y53830D01*
G01X32675D01*
G01Y54830D01*
G01X175D01*
G36*
G01X0Y30415D02*
G01X0Y29415D01*
G01X90700D01*
G01Y30415D01*
G01X0D01*
G37*
G01X0Y30415D02*
G01X0Y29415D01*
G01X90700D01*
G01Y30415D01*
G01X0D01*
G36*
G01X0Y27915D02*
G01X0Y26915D01*
G01X90700D01*
G01Y27915D01*
G01X0D01*
G37*
G01X0Y27915D02*
G01X0Y26915D01*
G01X90700D01*
G01Y27915D01*
G01X0D01*
G36*
G01X-5Y32915D02*
G01X-5Y31915D01*
G01X90695D01*
G01Y32915D01*
G01X-5D01*
G37*
G01X-5Y32915D02*
G01X-5Y31915D01*
G01X90695D01*
G01Y32915D01*
G01X-5D01*
G36*
G01X0Y37915D02*
G01X0Y36915D01*
G01X90700D01*
G01Y37915D01*
G01X0D01*
G37*
G01X0Y37915D02*
G01X0Y36915D01*
G01X90700D01*
G01Y37915D01*
G01X0D01*
G36*
G01X0Y35415D02*
G01X0Y34415D01*
G01X90700D01*
G01Y35415D01*
G01X0D01*
G37*
G01X0Y35415D02*
G01X0Y34415D01*
G01X90700D01*
G01Y35415D01*
G01X0D01*
G36*
G01X0Y40415D02*
G01X0Y39415D01*
G01X90700D01*
G01Y40415D01*
G01X0D01*
G37*
G01X0Y40415D02*
G01X0Y39415D01*
G01X90700D01*
G01Y40415D01*
G01X0D01*
G36*
G01X-22Y4218D02*
G01X-22Y3218D01*
G01X90678D01*
G01Y4218D01*
G01X-22D01*
G37*
G01X-22Y4218D02*
G01X-22Y3218D01*
G01X90678D01*
G01Y4218D01*
G01X-22D01*
G36*
G01X-40Y11700D02*
G01X-40Y10700D01*
G01X90660D01*
G01Y11700D01*
G01X-40D01*
G37*
G01X-40Y11700D02*
G01X-40Y10700D01*
G01X90660D01*
G01Y11700D01*
G01X-40D01*
G36*
G01X-40Y9200D02*
G01X-40Y8200D01*
G01X90660D01*
G01Y9200D01*
G01X-40D01*
G37*
G01X-40Y9200D02*
G01X-40Y8200D01*
G01X90660D01*
G01Y9200D01*
G01X-40D01*
G36*
G01X-35Y6700D02*
G01X-35Y5700D01*
G01X90665D01*
G01Y6700D01*
G01X-35D01*
G37*
G01X-35Y6700D02*
G01X-35Y5700D01*
G01X90665D01*
G01Y6700D01*
G01X-35D01*
G36*
G01X-35Y14200D02*
G01X-35Y13200D01*
G01X90665D01*
G01Y14200D01*
G01X-35D01*
G37*
G01X-35Y14200D02*
G01X-35Y13200D01*
G01X90665D01*
G01Y14200D01*
G01X-35D01*
G36*
G01X-40Y16700D02*
G01X-40Y15700D01*
G01X90660D01*
G01Y16700D01*
G01X-40D01*
G37*
G01X-40Y16700D02*
G01X-40Y15700D01*
G01X90660D01*
G01Y16700D01*
G01X-40D01*
G36*
G01X58025Y59830D02*
G01X58025Y58830D01*
G01X90525D01*
G01Y59830D01*
G01X58025D01*
G37*
G01X58025Y59830D02*
G01X58025Y58830D01*
G01X90525D01*
G01Y59830D01*
G01X58025D01*
G36*
G01X58025Y62330D02*
G01X58025Y61330D01*
G01X90525D01*
G01Y62330D01*
G01X58025D01*
G37*
G01X58025Y62330D02*
G01X58025Y61330D01*
G01X90525D01*
G01Y62330D01*
G01X58025D01*
G36*
G01X58025Y49830D02*
G01X58025Y48830D01*
G01X90525D01*
G01Y49830D01*
G01X58025D01*
G37*
G01X58025Y49830D02*
G01X58025Y48830D01*
G01X90525D01*
G01Y49830D01*
G01X58025D01*
G36*
G01X58025Y52330D02*
G01X58025Y51330D01*
G01X90525D01*
G01Y52330D01*
G01X58025D01*
G37*
G01X58025Y52330D02*
G01X58025Y51330D01*
G01X90525D01*
G01Y52330D01*
G01X58025D01*
G36*
G01X58025Y54830D02*
G01X58025Y53830D01*
G01X90525D01*
G01Y54830D01*
G01X58025D01*
G37*
G01X58025Y54830D02*
G01X58025Y53830D01*
G01X90525D01*
G01Y54830D01*
G01X58025D01*
G36*
G01X58025Y57330D02*
G01X58025Y56330D01*
G01X90525D01*
G01Y57330D01*
G01X58025D01*
G37*
G01X58025Y57330D02*
G01X58025Y56330D01*
G01X90525D01*
G01Y57330D01*
G01X58025D01*
G04 Rect End*

M02*
