G04 Layer: DrillDrawingLayer*
G04 EasyEDA Pro v1.7.27, 2022-09-03 12:31:21*
G04 Gerber Generator version 0.3*
G04 Scale: 100 percent, Rotated: No, Reflected: No*
G04 Dimensions in millimeters*
G04 Leading zeros omitted, absolute positions, 3 integers and 3 decimals*
%FSLAX33Y33*%
%MOMM*%
%ADD10C,0.254*%
G75*


G04 Image Start*
G36*
G01X20627Y44824D02*
G01X20627Y44788D01*
G01X20663D01*
G01X20989D01*
G01Y44462D01*
G01X20663D01*
G01Y44788D01*
G01X20627D01*
G01Y44426D01*
G01X21026D01*
G01Y44824D01*
G37*
G36*
G01X27627Y44824D02*
G01X27627Y44788D01*
G01X27663D01*
G01X27989D01*
G01Y44462D01*
G01X27663D01*
G01Y44788D01*
G01X27627D01*
G01Y44426D01*
G01X28025D01*
G01Y44824D01*
G37*
G36*
G01X21627Y44824D02*
G01X21627Y44788D01*
G01X21663D01*
G01X21989D01*
G01Y44462D01*
G01X21663D01*
G01Y44788D01*
G01X21627D01*
G01Y44426D01*
G01X22025D01*
G01Y44824D01*
G37*
G36*
G01X22627Y44824D02*
G01X22627Y44788D01*
G01X22663D01*
G01X22989D01*
G01Y44462D01*
G01X22663D01*
G01Y44788D01*
G01X22627D01*
G01Y44426D01*
G01X23026D01*
G01Y44824D01*
G37*
G36*
G01X23627Y44824D02*
G01X23627Y44788D01*
G01X23663D01*
G01X23989D01*
G01Y44462D01*
G01X23663D01*
G01Y44788D01*
G01X23627D01*
G01Y44426D01*
G01X24025D01*
G01Y44824D01*
G37*
G36*
G01X24627Y44824D02*
G01X24627Y44788D01*
G01X24663D01*
G01X24989D01*
G01Y44462D01*
G01X24663D01*
G01Y44788D01*
G01X24627D01*
G01Y44426D01*
G01X25026D01*
G01Y44824D01*
G37*
G36*
G01X25627Y44824D02*
G01X25627Y44788D01*
G01X25663D01*
G01X25989D01*
G01Y44462D01*
G01X25663D01*
G01Y44788D01*
G01X25627D01*
G01Y44426D01*
G01X26025D01*
G01Y44824D01*
G37*
G36*
G01X26627Y44824D02*
G01X26627Y44788D01*
G01X26663D01*
G01X26989D01*
G01Y44462D01*
G01X26663D01*
G01Y44788D01*
G01X26627D01*
G01Y44426D01*
G01X27026D01*
G01Y44824D01*
G37*
G36*
G01X5627Y44824D02*
G01X5627Y44788D01*
G01X5663D01*
G01X5989D01*
G01Y44462D01*
G01X5663D01*
G01Y44788D01*
G01X5627D01*
G01Y44426D01*
G01X6025D01*
G01Y44824D01*
G37*
G36*
G01X6627Y44824D02*
G01X6627Y44788D01*
G01X6663D01*
G01X6989D01*
G01Y44462D01*
G01X6663D01*
G01Y44788D01*
G01X6627D01*
G01Y44426D01*
G01X7026D01*
G01Y44824D01*
G37*
G36*
G01X18627Y44824D02*
G01X18627Y44788D01*
G01X18663D01*
G01X18989D01*
G01Y44462D01*
G01X18663D01*
G01Y44788D01*
G01X18627D01*
G01Y44426D01*
G01X19026D01*
G01Y44824D01*
G37*
G36*
G01X19627Y44824D02*
G01X19627Y44788D01*
G01X19663D01*
G01X19989D01*
G01Y44462D01*
G01X19663D01*
G01Y44788D01*
G01X19627D01*
G01Y44426D01*
G01X20025D01*
G01Y44824D01*
G37*
G36*
G01X4627Y44824D02*
G01X4627Y44788D01*
G01X4663D01*
G01X4989D01*
G01Y44462D01*
G01X4663D01*
G01Y44788D01*
G01X4627D01*
G01Y44426D01*
G01X5026D01*
G01Y44824D01*
G37*
G36*
G01X7627Y44824D02*
G01X7627Y44788D01*
G01X7663D01*
G01X7989D01*
G01Y44462D01*
G01X7663D01*
G01Y44788D01*
G01X7627D01*
G01Y44426D01*
G01X8025D01*
G01Y44824D01*
G37*
G36*
G01X8627Y44824D02*
G01X8627Y44788D01*
G01X8663D01*
G01X8989D01*
G01Y44462D01*
G01X8663D01*
G01Y44788D01*
G01X8627D01*
G01Y44426D01*
G01X9026D01*
G01Y44824D01*
G37*
G36*
G01X9627Y44824D02*
G01X9627Y44788D01*
G01X9663D01*
G01X9989D01*
G01Y44462D01*
G01X9663D01*
G01Y44788D01*
G01X9627D01*
G01Y44426D01*
G01X10025D01*
G01Y44824D01*
G37*
G36*
G01X10627Y44824D02*
G01X10627Y44788D01*
G01X10663D01*
G01X10989D01*
G01Y44462D01*
G01X10663D01*
G01Y44788D01*
G01X10627D01*
G01Y44426D01*
G01X11026D01*
G01Y44824D01*
G37*
G36*
G01X12627Y44824D02*
G01X12627Y44788D01*
G01X12663D01*
G01X12989D01*
G01Y44462D01*
G01X12663D01*
G01Y44788D01*
G01X12627D01*
G01Y44426D01*
G01X13026D01*
G01Y44824D01*
G37*
G36*
G01X13627Y44824D02*
G01X13627Y44788D01*
G01X13663D01*
G01X13989D01*
G01Y44462D01*
G01X13663D01*
G01Y44788D01*
G01X13627D01*
G01Y44426D01*
G01X14025D01*
G01Y44824D01*
G37*
G36*
G01X11627Y44824D02*
G01X11627Y44788D01*
G01X11663D01*
G01X11989D01*
G01Y44462D01*
G01X11663D01*
G01Y44788D01*
G01X11627D01*
G01Y44426D01*
G01X12025D01*
G01Y44824D01*
G37*
G36*
G01X17627Y44824D02*
G01X17627Y44788D01*
G01X17663D01*
G01X17989D01*
G01Y44462D01*
G01X17663D01*
G01Y44788D01*
G01X17627D01*
G01Y44426D01*
G01X18025D01*
G01Y44824D01*
G37*
G36*
G01X14627Y44824D02*
G01X14627Y44788D01*
G01X14663D01*
G01X14989D01*
G01Y44462D01*
G01X14663D01*
G01Y44788D01*
G01X14627D01*
G01Y44426D01*
G01X15026D01*
G01Y44824D01*
G37*
G36*
G01X15627Y44824D02*
G01X15627Y44788D01*
G01X15663D01*
G01X15989D01*
G01Y44462D01*
G01X15663D01*
G01Y44788D01*
G01X15627D01*
G01Y44426D01*
G01X16025D01*
G01Y44824D01*
G37*
G36*
G01X16627Y44824D02*
G01X16627Y44788D01*
G01X16663D01*
G01X16989D01*
G01Y44462D01*
G01X16663D01*
G01Y44788D01*
G01X16627D01*
G01Y44426D01*
G01X17026D01*
G01Y44824D01*
G37*
G36*
G01X33101Y61096D02*
G01X33101Y61060D01*
G01X33137D01*
G01X33463D01*
G01Y60734D01*
G01X33137D01*
G01Y61060D01*
G01X33101D01*
G01Y60697D01*
G01X33500D01*
G01Y61096D01*
G37*
G36*
G01X33101Y62096D02*
G01X33101Y62060D01*
G01X33137D01*
G01X33463D01*
G01Y61734D01*
G01X33137D01*
G01Y62060D01*
G01X33101D01*
G01Y61698D01*
G01X33500D01*
G01Y62096D01*
G37*
G36*
G01X33101Y63096D02*
G01X33101Y63060D01*
G01X33137D01*
G01X33463D01*
G01Y62734D01*
G01X33137D01*
G01Y63060D01*
G01X33101D01*
G01Y62697D01*
G01X33500D01*
G01Y63096D01*
G37*
G36*
G01X33101Y64096D02*
G01X33101Y64060D01*
G01X33137D01*
G01X33463D01*
G01Y63734D01*
G01X33137D01*
G01Y64060D01*
G01X33101D01*
G01Y63698D01*
G01X33500D01*
G01Y64096D01*
G37*
G36*
G01X33101Y58096D02*
G01X33101Y58060D01*
G01X33137D01*
G01X33463D01*
G01Y57734D01*
G01X33137D01*
G01Y58060D01*
G01X33101D01*
G01Y57698D01*
G01X33500D01*
G01Y58096D01*
G37*
G36*
G01X33101Y50096D02*
G01X33101Y50060D01*
G01X33137D01*
G01X33463D01*
G01Y49734D01*
G01X33137D01*
G01Y50060D01*
G01X33101D01*
G01Y49698D01*
G01X33500D01*
G01Y50096D01*
G37*
G36*
G01X33101Y51096D02*
G01X33101Y51060D01*
G01X33137D01*
G01X33463D01*
G01Y50734D01*
G01X33137D01*
G01Y51060D01*
G01X33101D01*
G01Y50697D01*
G01X33500D01*
G01Y51096D01*
G37*
G36*
G01X33101Y52096D02*
G01X33101Y52060D01*
G01X33137D01*
G01X33463D01*
G01Y51734D01*
G01X33137D01*
G01Y52060D01*
G01X33101D01*
G01Y51698D01*
G01X33500D01*
G01Y52096D01*
G37*
G36*
G01X33101Y53096D02*
G01X33101Y53060D01*
G01X33137D01*
G01X33463D01*
G01Y52734D01*
G01X33137D01*
G01Y53060D01*
G01X33101D01*
G01Y52697D01*
G01X33500D01*
G01Y53096D01*
G37*
G36*
G01X33101Y54096D02*
G01X33101Y54060D01*
G01X33137D01*
G01X33463D01*
G01Y53734D01*
G01X33137D01*
G01Y54060D01*
G01X33101D01*
G01Y53698D01*
G01X33500D01*
G01Y54096D01*
G37*
G36*
G01X33101Y55096D02*
G01X33101Y55060D01*
G01X33137D01*
G01X33463D01*
G01Y54734D01*
G01X33137D01*
G01Y55060D01*
G01X33101D01*
G01Y54697D01*
G01X33500D01*
G01Y55096D01*
G37*
G36*
G01X33101Y56096D02*
G01X33101Y56060D01*
G01X33137D01*
G01X33463D01*
G01Y55734D01*
G01X33137D01*
G01Y56060D01*
G01X33101D01*
G01Y55698D01*
G01X33500D01*
G01Y56096D01*
G37*
G36*
G01X33101Y49096D02*
G01X33101Y49060D01*
G01X33137D01*
G01X33463D01*
G01Y48734D01*
G01X33137D01*
G01Y49060D01*
G01X33101D01*
G01Y48697D01*
G01X33500D01*
G01Y49096D01*
G37*
G36*
G01X33101Y48096D02*
G01X33101Y48060D01*
G01X33137D01*
G01X33463D01*
G01Y47734D01*
G01X33137D01*
G01Y48060D01*
G01X33101D01*
G01Y47698D01*
G01X33500D01*
G01Y48096D01*
G37*
G36*
G01X33101Y59096D02*
G01X33101Y59060D01*
G01X33137D01*
G01X33463D01*
G01Y58734D01*
G01X33137D01*
G01Y59060D01*
G01X33101D01*
G01Y58697D01*
G01X33500D01*
G01Y59096D01*
G37*
G36*
G01X33101Y57096D02*
G01X33101Y57060D01*
G01X33137D01*
G01X33463D01*
G01Y56734D01*
G01X33137D01*
G01Y57060D01*
G01X33101D01*
G01Y56697D01*
G01X33500D01*
G01Y57096D01*
G37*
G36*
G01X33101Y60096D02*
G01X33101Y60060D01*
G01X33137D01*
G01X33463D01*
G01Y59734D01*
G01X33137D01*
G01Y60060D01*
G01X33101D01*
G01Y59698D01*
G01X33500D01*
G01Y60096D01*
G37*
G36*
G01X33101Y65096D02*
G01X33101Y65060D01*
G01X33137D01*
G01X33463D01*
G01Y64734D01*
G01X33137D01*
G01Y65060D01*
G01X33101D01*
G01Y64697D01*
G01X33500D01*
G01Y65096D01*
G37*
G36*
G01X4500Y22008D02*
G01X4500Y21972D01*
G01X4536D01*
G01X4862D01*
G01Y21645D01*
G01X4536D01*
G01Y21972D01*
G01X4500D01*
G01Y21609D01*
G01X4899D01*
G01Y22008D01*
G37*
G36*
G01X5500Y22008D02*
G01X5500Y21972D01*
G01X5536D01*
G01X5862D01*
G01Y21645D01*
G01X5536D01*
G01Y21972D01*
G01X5500D01*
G01Y21609D01*
G01X5898D01*
G01Y22008D01*
G37*
G36*
G01X6500Y22008D02*
G01X6500Y21972D01*
G01X6536D01*
G01X6862D01*
G01Y21645D01*
G01X6536D01*
G01Y21972D01*
G01X6500D01*
G01Y21609D01*
G01X6899D01*
G01Y22008D01*
G37*
G36*
G01X7500Y22008D02*
G01X7500Y21972D01*
G01X7536D01*
G01X7862D01*
G01Y21645D01*
G01X7536D01*
G01Y21972D01*
G01X7500D01*
G01Y21609D01*
G01X7898D01*
G01Y22008D01*
G37*
G36*
G01X11500Y22008D02*
G01X11500Y21972D01*
G01X11536D01*
G01X11862D01*
G01Y21645D01*
G01X11536D01*
G01Y21972D01*
G01X11500D01*
G01Y21609D01*
G01X11898D01*
G01Y22008D01*
G37*
G36*
G01X12500Y22008D02*
G01X12500Y21972D01*
G01X12536D01*
G01X12862D01*
G01Y21645D01*
G01X12536D01*
G01Y21972D01*
G01X12500D01*
G01Y21609D01*
G01X12899D01*
G01Y22008D01*
G37*
G36*
G01X13500Y22008D02*
G01X13500Y21972D01*
G01X13536D01*
G01X13862D01*
G01Y21645D01*
G01X13536D01*
G01Y21972D01*
G01X13500D01*
G01Y21609D01*
G01X13898D01*
G01Y22008D01*
G37*
G36*
G01X14500Y22008D02*
G01X14500Y21972D01*
G01X14536D01*
G01X14862D01*
G01Y21645D01*
G01X14536D01*
G01Y21972D01*
G01X14500D01*
G01Y21609D01*
G01X14899D01*
G01Y22008D01*
G37*
G36*
G01X15500Y22008D02*
G01X15500Y21972D01*
G01X15536D01*
G01X15862D01*
G01Y21645D01*
G01X15536D01*
G01Y21972D01*
G01X15500D01*
G01Y21609D01*
G01X15898D01*
G01Y22008D01*
G37*
G36*
G01X8500Y22008D02*
G01X8500Y21972D01*
G01X8536D01*
G01X8862D01*
G01Y21645D01*
G01X8536D01*
G01Y21972D01*
G01X8500D01*
G01Y21609D01*
G01X8899D01*
G01Y22008D01*
G37*
G36*
G01X9500Y22008D02*
G01X9500Y21972D01*
G01X9536D01*
G01X9862D01*
G01Y21645D01*
G01X9536D01*
G01Y21972D01*
G01X9500D01*
G01Y21609D01*
G01X9898D01*
G01Y22008D01*
G37*
G36*
G01X10500Y22008D02*
G01X10500Y21972D01*
G01X10536D01*
G01X10862D01*
G01Y21645D01*
G01X10536D01*
G01Y21972D01*
G01X10500D01*
G01Y21609D01*
G01X10899D01*
G01Y22008D01*
G37*
G36*
G01X16500Y22008D02*
G01X16500Y21972D01*
G01X16536D01*
G01X16862D01*
G01Y21645D01*
G01X16536D01*
G01Y21972D01*
G01X16500D01*
G01Y21609D01*
G01X16899D01*
G01Y22008D01*
G37*
G36*
G01X17500Y22008D02*
G01X17500Y21972D01*
G01X17536D01*
G01X17862D01*
G01Y21645D01*
G01X17536D01*
G01Y21972D01*
G01X17500D01*
G01Y21609D01*
G01X17898D01*
G01Y22008D01*
G37*
G36*
G01X18500Y22008D02*
G01X18500Y21972D01*
G01X18536D01*
G01X18862D01*
G01Y21645D01*
G01X18536D01*
G01Y21972D01*
G01X18500D01*
G01Y21609D01*
G01X18899D01*
G01Y22008D01*
G37*
G36*
G01X24500Y22008D02*
G01X24500Y21972D01*
G01X24536D01*
G01X24862D01*
G01Y21645D01*
G01X24536D01*
G01Y21972D01*
G01X24500D01*
G01Y21609D01*
G01X24899D01*
G01Y22008D01*
G37*
G36*
G01X25500Y22008D02*
G01X25500Y21972D01*
G01X25536D01*
G01X25862D01*
G01Y21645D01*
G01X25536D01*
G01Y21972D01*
G01X25500D01*
G01Y21609D01*
G01X25898D01*
G01Y22008D01*
G37*
G36*
G01X26500Y22008D02*
G01X26500Y21972D01*
G01X26536D01*
G01X26862D01*
G01Y21645D01*
G01X26536D01*
G01Y21972D01*
G01X26500D01*
G01Y21609D01*
G01X26899D01*
G01Y22008D01*
G37*
G36*
G01X27500Y22008D02*
G01X27500Y21972D01*
G01X27536D01*
G01X27862D01*
G01Y21645D01*
G01X27536D01*
G01Y21972D01*
G01X27500D01*
G01Y21609D01*
G01X27898D01*
G01Y22008D01*
G37*
G36*
G01X19500Y22008D02*
G01X19500Y21972D01*
G01X19536D01*
G01X19862D01*
G01Y21645D01*
G01X19536D01*
G01Y21972D01*
G01X19500D01*
G01Y21609D01*
G01X19898D01*
G01Y22008D01*
G37*
G36*
G01X20500Y22008D02*
G01X20500Y21972D01*
G01X20536D01*
G01X20862D01*
G01Y21645D01*
G01X20536D01*
G01Y21972D01*
G01X20500D01*
G01Y21609D01*
G01X20899D01*
G01Y22008D01*
G37*
G36*
G01X21500Y22008D02*
G01X21500Y21972D01*
G01X21536D01*
G01X21862D01*
G01Y21645D01*
G01X21536D01*
G01Y21972D01*
G01X21500D01*
G01Y21609D01*
G01X21898D01*
G01Y22008D01*
G37*
G36*
G01X22500Y22008D02*
G01X22500Y21972D01*
G01X22536D01*
G01X22862D01*
G01Y21645D01*
G01X22536D01*
G01Y21972D01*
G01X22500D01*
G01Y21609D01*
G01X22899D01*
G01Y22008D01*
G37*
G36*
G01X23500Y22008D02*
G01X23500Y21972D01*
G01X23536D01*
G01X23862D01*
G01Y21645D01*
G01X23536D01*
G01Y21972D01*
G01X23500D01*
G01Y21609D01*
G01X23898D01*
G01Y22008D01*
G37*
G36*
G01X57204Y65096D02*
G01X57204Y65060D01*
G01X57240D01*
G01X57566D01*
G01Y64734D01*
G01X57240D01*
G01Y65060D01*
G01X57204D01*
G01Y64697D01*
G01X57603D01*
G01Y65096D01*
G37*
G36*
G01X57204Y63096D02*
G01X57204Y63060D01*
G01X57240D01*
G01X57566D01*
G01Y62734D01*
G01X57240D01*
G01Y63060D01*
G01X57204D01*
G01Y62697D01*
G01X57603D01*
G01Y63096D01*
G37*
G36*
G01X57204Y62096D02*
G01X57204Y62060D01*
G01X57240D01*
G01X57566D01*
G01Y61734D01*
G01X57240D01*
G01Y62060D01*
G01X57204D01*
G01Y61698D01*
G01X57603D01*
G01Y62096D01*
G37*
G36*
G01X57204Y64096D02*
G01X57204Y64060D01*
G01X57240D01*
G01X57566D01*
G01Y63734D01*
G01X57240D01*
G01Y64060D01*
G01X57204D01*
G01Y63698D01*
G01X57603D01*
G01Y64096D01*
G37*
G36*
G01X57204Y59096D02*
G01X57204Y59060D01*
G01X57240D01*
G01X57566D01*
G01Y58734D01*
G01X57240D01*
G01Y59060D01*
G01X57204D01*
G01Y58697D01*
G01X57603D01*
G01Y59096D01*
G37*
G36*
G01X57204Y61096D02*
G01X57204Y61060D01*
G01X57240D01*
G01X57566D01*
G01Y60734D01*
G01X57240D01*
G01Y61060D01*
G01X57204D01*
G01Y60697D01*
G01X57603D01*
G01Y61096D01*
G37*
G36*
G01X57204Y49096D02*
G01X57204Y49060D01*
G01X57240D01*
G01X57566D01*
G01Y48734D01*
G01X57240D01*
G01Y49060D01*
G01X57204D01*
G01Y48697D01*
G01X57603D01*
G01Y49096D01*
G37*
G36*
G01X57204Y57096D02*
G01X57204Y57060D01*
G01X57240D01*
G01X57566D01*
G01Y56734D01*
G01X57240D01*
G01Y57060D01*
G01X57204D01*
G01Y56697D01*
G01X57603D01*
G01Y57096D01*
G37*
G36*
G01X57204Y58096D02*
G01X57204Y58060D01*
G01X57240D01*
G01X57566D01*
G01Y57734D01*
G01X57240D01*
G01Y58060D01*
G01X57204D01*
G01Y57698D01*
G01X57603D01*
G01Y58096D01*
G37*
G36*
G01X57204Y56096D02*
G01X57204Y56060D01*
G01X57240D01*
G01X57566D01*
G01Y55734D01*
G01X57240D01*
G01Y56060D01*
G01X57204D01*
G01Y55698D01*
G01X57603D01*
G01Y56096D01*
G37*
G36*
G01X57204Y51096D02*
G01X57204Y51060D01*
G01X57240D01*
G01X57566D01*
G01Y50734D01*
G01X57240D01*
G01Y51060D01*
G01X57204D01*
G01Y50697D01*
G01X57603D01*
G01Y51096D01*
G37*
G36*
G01X57204Y50096D02*
G01X57204Y50060D01*
G01X57240D01*
G01X57566D01*
G01Y49734D01*
G01X57240D01*
G01Y50060D01*
G01X57204D01*
G01Y49698D01*
G01X57603D01*
G01Y50096D01*
G37*
G36*
G01X57204Y52096D02*
G01X57204Y52060D01*
G01X57240D01*
G01X57566D01*
G01Y51734D01*
G01X57240D01*
G01Y52060D01*
G01X57204D01*
G01Y51698D01*
G01X57603D01*
G01Y52096D01*
G37*
G36*
G01X57204Y55096D02*
G01X57204Y55060D01*
G01X57240D01*
G01X57566D01*
G01Y54734D01*
G01X57240D01*
G01Y55060D01*
G01X57204D01*
G01Y54697D01*
G01X57603D01*
G01Y55096D01*
G37*
G36*
G01X57204Y54096D02*
G01X57204Y54060D01*
G01X57240D01*
G01X57566D01*
G01Y53734D01*
G01X57240D01*
G01Y54060D01*
G01X57204D01*
G01Y53698D01*
G01X57603D01*
G01Y54096D01*
G37*
G36*
G01X57204Y53096D02*
G01X57204Y53060D01*
G01X57240D01*
G01X57566D01*
G01Y52734D01*
G01X57240D01*
G01Y53060D01*
G01X57204D01*
G01Y52697D01*
G01X57603D01*
G01Y53096D01*
G37*
G36*
G01X57204Y60096D02*
G01X57204Y60060D01*
G01X57240D01*
G01X57566D01*
G01Y59734D01*
G01X57240D01*
G01Y60060D01*
G01X57204D01*
G01Y59698D01*
G01X57603D01*
G01Y60096D01*
G37*
G36*
G01X57204Y48096D02*
G01X57204Y48060D01*
G01X57240D01*
G01X57566D01*
G01Y47734D01*
G01X57240D01*
G01Y48060D01*
G01X57204D01*
G01Y47698D01*
G01X57603D01*
G01Y48096D01*
G37*
G04 Image End*
G54D10*

M02*
