;TYPE=PLATED
;Layer: PTH_Through
;EasyEDA Pro v1.7.27, 2022-08-27 15:43:47
;Gerber Generator version 0.3
M48
METRIC,LZ,000.000
;Hole size 1 = 1.000 METRIC
T01C1.000
;Hole size 2 = 1.500 METRIC
T02C1.500
%
G05
G90
T01
X078345Y023314
X079545Y023314
X080745Y023314
X078345Y022114
X079545Y022114
X080745Y022114
X078345Y020914
X079545Y020914
X080745Y020914
X078345Y019714
X079545Y019714
X080745Y019714
T02
X026268Y028807
X011028Y028807
X011028Y005947
X013568Y005947
X021188Y005947
X023728Y005947
X073131Y006328
X087101Y006328
X087101Y029188
X083926Y006328
X076306Y006328
M30