G04 Layer: TopSilkscreenLayer*
G04 EasyEDA Pro v1.7.27, 2022-09-03 12:30:42*
G04 Gerber Generator version 0.3*
G04 Scale: 100 percent, Rotated: No, Reflected: No*
G04 Dimensions in millimeters*
G04 Leading zeros omitted, absolute positions, 3 integers and 3 decimals*
%FSLAX33Y33*%
%MOMM*%
%ADD10C,0.254*%
G75*


G04 Image Start*
G36*
G01X24263Y27716D02*
G01X23268Y27672D01*
G01X23203Y27667D01*
G01X22081Y27551D01*
G01X20743Y27344D01*
G01X19266Y27040D01*
G01X17762Y26651D01*
G01X16377Y26217D01*
G01X15388Y25857D01*
G01X14151Y25341D01*
G01X12990Y24786D01*
G01X11921Y24207D01*
G01X10941Y23611D01*
G01X10064Y23015D01*
G01X9269Y22414D01*
G01X8566Y21825D01*
G01X7949Y21253D01*
G01X7401Y20690D01*
G01X6926Y20151D01*
G01X6510Y19628D01*
G01X6157Y19134D01*
G01X5853Y18660D01*
G01X5593Y18207D01*
G01X5375Y17775D01*
G01X5187Y17354D01*
G01X5034Y16957D01*
G01X4908Y16571D01*
G01X4810Y16211D01*
G01X4734Y15862D01*
G01X4676Y15514D01*
G01X4639Y15179D01*
G01X4619Y14857D01*
G01X4615Y14663D01*
G01X5645D01*
G01X5646Y14698D01*
G01X5648Y14723D01*
G01X5649Y14736D01*
G01X5652Y14746D01*
G01X5654Y14753D01*
G01X5656Y14758D01*
G01X5658Y14763D01*
G01X5660Y14768D01*
G01X5662Y14772D01*
G01X5667Y14777D01*
G01X5673Y14781D01*
G01X5674D01*
G01X5676Y14782D01*
G01X5678D01*
G01X5686D01*
G01X5690Y14781D01*
G01X5695Y14780D01*
G01X5699Y14778D01*
G01X5704Y14776D01*
G01X5709Y14773D01*
G01X5718Y14768D01*
G01X5729Y14759D01*
G01X5745Y14747D01*
G01X5778Y14716D01*
G01X5816Y14679D01*
G01X5864Y14634D01*
G01X5938Y14573D01*
G01X6059Y14483D01*
G01X6191Y14395D01*
G01X6304Y14328D01*
G01X6357Y14299D01*
G01X6398Y14281D01*
G01X6450Y14262D01*
G01X6548Y14232D01*
G01X6755Y14182D01*
G01X7178Y14106D01*
G01X7791Y14027D01*
G01X7917Y14016D01*
G01X8536Y13948D01*
G01X8822Y13901D01*
G01X9002Y13863D01*
G01X9126Y13829D01*
G01X9216Y13799D01*
G01X9291Y13770D01*
G01X9348Y13744D01*
G01X9400Y13718D01*
G01X9443Y13693D01*
G01X9478Y13670D01*
G01X9510Y13645D01*
G01X9541Y13620D01*
G01X9569Y13594D01*
G01X9592Y13571D01*
G01X9613Y13546D01*
G01X9632Y13521D01*
G01X9650Y13496D01*
G01X9670Y13464D01*
G01X9689Y13432D01*
G01X9705Y13397D01*
G01X9722Y13357D01*
G01X9737Y13314D01*
G01X9752Y13264D01*
G01X9758Y13242D01*
G01X9770Y13187D01*
G01X9777Y13131D01*
G01X9782Y13076D01*
G01Y13021D01*
G01X9778Y12965D01*
G01X9771Y12909D01*
G01X9761Y12854D01*
G01X9746Y12799D01*
G01X9729Y12744D01*
G01X9709Y12690D01*
G01X9685Y12636D01*
G01X9649Y12564D01*
G01X9607Y12494D01*
G01X9561Y12426D01*
G01X9510Y12358D01*
G01X9454Y12293D01*
G01X9378Y12213D01*
G01X9295Y12136D01*
G01X9206Y12063D01*
G01X9113Y11994D01*
G01X9013Y11929D01*
G01X8909Y11869D01*
G01X8800Y11813D01*
G01X8687Y11763D01*
G01X8571Y11718D01*
G01X8452Y11679D01*
G01X8330Y11647D01*
G01X8205Y11621D01*
G01X8078Y11602D01*
G01X7950Y11591D01*
G01X7820Y11586D01*
G01X7665Y11590D01*
G01X7562Y11598D01*
G01X7484Y11608D01*
G01X7425Y11619D01*
G01X7369Y11633D01*
G01X7315Y11650D01*
G01X7263Y11670D01*
G01X7212Y11694D01*
G01X7161Y11722D01*
G01X7109Y11754D01*
G01X7044Y11799D01*
G01X6963Y11863D01*
G01X6875Y11937D01*
G01X6782Y12015D01*
G01X6689Y12085D01*
G01X6599Y12146D01*
G01X6534Y12186D01*
G01X6482Y12213D01*
G01X6442Y12232D01*
G01X6414Y12243D01*
G01X6394Y12249D01*
G01X6381Y12252D01*
G01X6370Y12254D01*
G01X6360Y12256D01*
G01X6350Y12257D01*
G01X6345D01*
G01X6341D01*
G01X6337Y12256D01*
G01X6333D01*
G01X6313Y12254D01*
G01X6292Y12259D01*
G01X6271Y12270D01*
G01X6248Y12286D01*
G01X6226Y12308D01*
G01X6203Y12335D01*
G01X6179Y12367D01*
G01X6131Y12445D01*
G01X6082Y12540D01*
G01X6009Y12711D01*
G01X5938Y12911D01*
G01X5849Y13211D01*
G01X5772Y13537D01*
G01X5713Y13874D01*
G01X5684Y14126D01*
G01X5646Y14589D01*
G01X5645Y14663D01*
G01X4615D01*
G01Y14635D01*
G01X4624Y14275D01*
G01X4650Y13942D01*
G01X4692Y13615D01*
G01X4748Y13314D01*
G01X4818Y13018D01*
G01X4904Y12728D01*
G01X5004Y12442D01*
G01X5120Y12163D01*
G01X5250Y11888D01*
G01X5395Y11618D01*
G01X5567Y11337D01*
G01X5756Y11060D01*
G01X5974Y10774D01*
G01X6212Y10493D01*
G01X6485Y10202D01*
G01X6530Y10156D01*
G01X6815Y9886D01*
G01X7129Y9616D01*
G01X7483Y9343D01*
G01X7881Y9067D01*
G01X8325Y8791D01*
G01X8817Y8520D01*
G01X9362Y8254D01*
G01X9975Y7992D01*
G01X10660Y7740D01*
G01X11421Y7504D01*
G01X12262Y7288D01*
G01X13185Y7101D01*
G01X14190Y6949D01*
G01X15281Y6841D01*
G01X16437Y6785D01*
G01X17656Y6787D01*
G01X18915Y6853D01*
G01X20209Y6987D01*
G01X21513Y7189D01*
G01X22801Y7455D01*
G01X22935Y7487D01*
G01X24249Y7839D01*
G01X26063Y8421D01*
G01X27437Y8934D01*
G01X28083Y9212D01*
G01X28367Y9352D01*
G01X28508Y9431D01*
G01X28587Y9480D01*
G01X28635Y9514D01*
G01X28664Y9537D01*
G01X28686Y9556D01*
G01X28700Y9569D01*
G01X28712Y9581D01*
G01X28719Y9591D01*
G01X28724Y9598D01*
G01X28729Y9605D01*
G01X28732Y9611D01*
G01X28735Y9616D01*
G01X28738Y9624D01*
G01X28740Y9632D01*
G01X28741Y9636D01*
G01Y9643D01*
G01X28740Y9647D01*
G01X28738Y9654D01*
G01X28737Y9657D01*
G01X28736Y9659D01*
G01X28666Y9776D01*
G01X28638Y9818D01*
G01X28611Y9855D01*
G01X28592Y9876D01*
G01X28573Y9895D01*
G01X28554Y9912D01*
G01X28534Y9926D01*
G01X28524Y9932D01*
G01X28513Y9937D01*
G01X28502Y9943D01*
G01X28491Y9947D01*
G01X28480Y9951D01*
G01X28468Y9954D01*
G01X28456Y9957D01*
G01X28431Y9961D01*
G01X28404Y9962D01*
G01X28376Y9961D01*
G01X28345Y9958D01*
G01X28312Y9953D01*
G01X28259Y9940D01*
G01X28178Y9915D01*
G01X28034Y9860D01*
G01X27608Y9669D01*
G01X26952Y9386D01*
G01X25869Y8983D01*
G01X24311Y8489D01*
G01X22779Y8085D01*
G01X21682Y7852D01*
G01X21548Y7828D01*
G01X20182Y7623D01*
G01X18887Y7494D01*
G01X17665Y7434D01*
G01X16531Y7436D01*
G01X15471Y7491D01*
G01X14495Y7591D01*
G01X13590Y7730D01*
G01X12766Y7899D01*
G01X12007Y8095D01*
G01X11312Y8313D01*
G01X10677Y8547D01*
G01X10100Y8794D01*
G01X9568Y9054D01*
G01X9078Y9324D01*
G01X8629Y9603D01*
G01X8371Y9778D01*
G01X7692Y10254D01*
G01X8256Y10405D01*
G01X8690Y10532D01*
G01X8980Y10634D01*
G01X9194Y10723D01*
G01X9378Y10810D01*
G01X9535Y10895D01*
G01X9670Y10978D01*
G01X9800Y11067D01*
G01X9937Y11172D01*
G01X10071Y11286D01*
G01X10226Y11433D01*
G01X10321Y11533D01*
G01X10410Y11637D01*
G01X10492Y11743D01*
G01X10568Y11853D01*
G01X10648Y11982D01*
G01X10719Y12113D01*
G01X10782Y12246D01*
G01X10837Y12383D01*
G01X10884Y12520D01*
G01X10923Y12658D01*
G01X10954Y12797D01*
G01X10977Y12935D01*
G01X10993Y13074D01*
G01X11000Y13212D01*
G01Y13348D01*
G01X10994Y13467D01*
G01X10981Y13583D01*
G01X10963Y13698D01*
G01X10940Y13810D01*
G01X10910Y13920D01*
G01X10875Y14027D01*
G01X10834Y14132D01*
G01X10795Y14218D01*
G01X10751Y14301D01*
G01X10704Y14382D01*
G01X10652Y14460D01*
G01X10596Y14534D01*
G01X10536Y14606D01*
G01X10473Y14673D01*
G01X10417Y14725D01*
G01X10358Y14776D01*
G01X10296Y14823D01*
G01X10232Y14868D01*
G01X10165Y14909D01*
G01X10095Y14947D01*
G01X10023Y14981D01*
G01X9948Y15013D01*
G01X9870Y15040D01*
G01X9806Y15060D01*
G01X9704Y15085D01*
G01X9410Y15136D01*
G01X8726Y15221D01*
G01X8417Y15248D01*
G01X7845Y15303D01*
G01X7564Y15345D01*
G01X7386Y15380D01*
G01X7262Y15412D01*
G01X7166Y15442D01*
G01X7091Y15470D01*
G01X7029Y15497D01*
G01X6978Y15522D01*
G01X6935Y15546D01*
G01X6901Y15569D01*
G01X6869Y15592D01*
G01X6839Y15616D01*
G01X6815Y15637D01*
G01X6793Y15659D01*
G01X6772Y15682D01*
G01X6752Y15706D01*
G01X6735Y15731D01*
G01X6718Y15756D01*
G01X6703Y15783D01*
G01X6686Y15815D01*
G01X6672Y15848D01*
G01X6659Y15882D01*
G01X6646Y15923D01*
G01X6635Y15965D01*
G01X6633Y15976D01*
G01X6624Y16022D01*
G01X6618Y16069D01*
G01X6614Y16115D01*
G01X6613Y16162D01*
G01X6614Y16209D01*
G01X6618Y16256D01*
G01X6628Y16327D01*
G01X6643Y16397D01*
G01X6663Y16467D01*
G01X6689Y16537D01*
G01X6719Y16607D01*
G01X6755Y16675D01*
G01X6795Y16743D01*
G01X6840Y16809D01*
G01X6889Y16875D01*
G01X6944Y16939D01*
G01X7023Y17022D01*
G01X7109Y17102D01*
G01X7203Y17179D01*
G01X7305Y17251D01*
G01X7413Y17320D01*
G01X7470Y17352D01*
G01X7594Y17417D01*
G01X7702Y17467D01*
G01X7810Y17510D01*
G01X7917Y17545D01*
G01X8008Y17571D01*
G01X8099Y17591D01*
G01X8188Y17606D01*
G01X8278Y17616D01*
G01X8367Y17622D01*
G01X8456D01*
G01X8544Y17616D01*
G01X8631Y17606D01*
G01X8718Y17592D01*
G01X8805Y17571D01*
G01X8891Y17546D01*
G01X8977Y17516D01*
G01X9062Y17481D01*
G01X9147Y17441D01*
G01X9245Y17387D01*
G01X9343Y17327D01*
G01X9356Y17318D01*
G01X9830Y17003D01*
G01X10223Y17398D01*
G01X10332Y17513D01*
G01X10398Y17589D01*
G01X10439Y17643D01*
G01X10467Y17687D01*
G01X10487Y17720D01*
G01X10500Y17744D01*
G01X10511Y17768D01*
G01X10520Y17792D01*
G01X10527Y17816D01*
G01X10533Y17838D01*
G01X10535Y17854D01*
G01X10537Y17869D01*
G01X10538Y17884D01*
G01X10539Y17899D01*
G01X10538Y17914D01*
G01X10537Y17928D01*
G01X10535Y17944D01*
G01X10532Y17958D01*
G01X10528Y17973D01*
G01X10523Y17988D01*
G01X10515Y18010D01*
G01X10504Y18032D01*
G01X10492Y18055D01*
G01X10478Y18078D01*
G01X10456Y18108D01*
G01X10431Y18140D01*
G01X10395Y18179D01*
G01X10344Y18229D01*
G01X10275Y18289D01*
G01X10144Y18391D01*
G01X10002Y18493D01*
G01X9839Y18601D01*
G01X9756Y18649D01*
G01X9692Y18683D01*
G01X9629Y18711D01*
G01X9564Y18736D01*
G01X9498Y18756D01*
G01X9427Y18773D01*
G01X9352Y18787D01*
G01X9250Y18800D01*
G01X9085Y18811D01*
G01X8657Y18817D01*
G01X8267Y18807D01*
G01X8082Y18792D01*
G01X7948Y18775D01*
G01X7843Y18755D01*
G01X7742Y18731D01*
G01X7644Y18702D01*
G01X7536Y18663D01*
G01X7404Y18607D01*
G01X7206Y18511D01*
G01X7171Y18493D01*
G01X6880Y18346D01*
G01X6809Y18316D01*
G01X6767Y18300D01*
G01X6745Y18294D01*
G01X6725Y18289D01*
G01X6714Y18287D01*
G01X6703Y18286D01*
G01X6698Y18285D01*
G01X6694D01*
G01X6689Y18286D01*
G01X6685D01*
G01X6678Y18289D01*
G01X6675Y18290D01*
G01X6672Y18291D01*
G01X6670Y18293D01*
G01X6668Y18295D01*
G01X6663Y18300D01*
G01X6662Y18303D01*
G01X6661Y18306D01*
G01X6660Y18309D01*
G01X6659Y18313D01*
G01Y18317D01*
G01Y18321D01*
G01Y18326D01*
G01X6660Y18335D01*
G01X6663Y18346D01*
G01X6666Y18359D01*
G01X6674Y18379D01*
G01X6688Y18410D01*
G01X6713Y18456D01*
G01X6767Y18546D01*
G01X6972Y18846D01*
G01X7326Y19334D01*
G01X7687Y19801D01*
G01X8097Y20279D01*
G01X8568Y20777D01*
G01X9119Y21301D01*
G01X9742Y21838D01*
G01X10457Y22393D01*
G01X11254Y22950D01*
G01X12153Y23514D01*
G01X13157Y24075D01*
G01X14255Y24618D01*
G01X15434Y25128D01*
G01X16689Y25599D01*
G01X18002Y26018D01*
G01X19368Y26378D01*
G01X20744Y26669D01*
G01X21610Y26815D01*
G01X22235Y26892D01*
G01X23364Y26975D01*
G01X25082Y27015D01*
G01X26681Y26977D01*
G01X27656Y26906D01*
G01X28181Y26841D01*
G01X28293Y26822D01*
G01X29100Y26665D01*
G01X29988Y26444D01*
G01X30852Y26183D01*
G01X31599Y25916D01*
G01X32176Y25676D01*
G01X32598Y25475D01*
G01X32664Y25441D01*
G01X33579Y24965D01*
G01X32146Y24604D01*
G01X30712Y24244D01*
G01X30735Y23211D01*
G01X30764Y22706D01*
G01X31922D01*
G01Y23377D01*
G01X32643Y23554D01*
G01X32926Y23616D01*
G01X33154Y23653D01*
G01X33352Y23675D01*
G01X33521Y23685D01*
G01X33665D01*
G01X33786Y23678D01*
G01X33887Y23668D01*
G01X33982Y23652D01*
G01X34059Y23635D01*
G01X34132Y23614D01*
G01X34190Y23594D01*
G01X34245Y23571D01*
G01X34298Y23546D01*
G01X34337Y23525D01*
G01X34375Y23502D01*
G01X34411Y23477D01*
G01X34445Y23451D01*
G01X34477Y23423D01*
G01X34500Y23401D01*
G01X34533Y23365D01*
G01X34564Y23328D01*
G01X34593Y23289D01*
G01X34619Y23249D01*
G01X34643Y23206D01*
G01X34663Y23163D01*
G01X34683Y23118D01*
G01X34699Y23072D01*
G01X34714Y23025D01*
G01X34730Y22953D01*
G01X34743Y22879D01*
G01X34749Y22804D01*
G01X34751Y22727D01*
G01X34747Y22650D01*
G01X34738Y22572D01*
G01X34724Y22495D01*
G01X34705Y22418D01*
G01X34681Y22342D01*
G01X34652Y22267D01*
G01X34618Y22193D01*
G01X34579Y22121D01*
G01X34534Y22052D01*
G01X34485Y21985D01*
G01X34431Y21922D01*
G01X34412Y21901D01*
G01X34357Y21847D01*
G01X34285Y21783D01*
G01X34196Y21711D01*
G01X34084Y21631D01*
G01X33950Y21545D01*
G01X33775Y21445D01*
G01X33574Y21344D01*
G01X33363Y21252D01*
G01X33146Y21170D01*
G01X32945Y21106D01*
G01X32761Y21058D01*
G01X32597Y21023D01*
G01X32532Y21012D01*
G01X32072Y20938D01*
G01X31997Y21487D01*
G01X31963Y21810D01*
G01X31927Y22423D01*
G01X31922Y22706D01*
G01X30764D01*
G01X30888Y20605D01*
G01X34672D01*
G01Y20609D01*
G01X34673Y20610D01*
G01Y20611D01*
G01Y20613D01*
G01X34675Y20614D01*
G01X34676D01*
G01X34677Y20615D01*
G01X34678D01*
G01X34698Y20617D01*
G01X34720Y20623D01*
G01X34745Y20634D01*
G01X34772Y20649D01*
G01X34801Y20667D01*
G01X34865Y20714D01*
G01X34935Y20774D01*
G01X35047Y20885D01*
G01X35208Y21063D01*
G01X35369Y21264D01*
G01X35522Y21477D01*
G01X35624Y21636D01*
G01X35711Y21791D01*
G01X35758Y21888D01*
G01X35993Y22409D01*
G01X36153Y22019D01*
G01X36219Y21842D01*
G01X36388Y21305D01*
G01X36494Y20919D01*
G01X36523Y20790D01*
G01X36555Y20605D01*
G01X36587Y20334D01*
G01X36612Y19971D01*
G01X36618Y19551D01*
G01X36605Y19176D01*
G01X36583Y18921D01*
G01X36560Y18753D01*
G01X36538Y18640D01*
G01X36520Y18568D01*
G01X36505Y18519D01*
G01X36493Y18485D01*
G01X36480Y18456D01*
G01X36471Y18438D01*
G01X36462Y18422D01*
G01X36453Y18408D01*
G01X36443Y18397D01*
G01X36438Y18391D01*
G01X36422Y18384D01*
G01X36399Y18387D01*
G01X36369Y18401D01*
G01X36333Y18425D01*
G01X36290Y18459D01*
G01X36187Y18557D01*
G01X35989Y18775D01*
G01X35555Y19315D01*
G01X35454Y19448D01*
G01X34892Y20232D01*
G01X34741Y20467D01*
G01X34700Y20538D01*
G01X34686Y20566D01*
G01X34680Y20582D01*
G01X34676Y20591D01*
G01X34674Y20596D01*
G01X34673Y20601D01*
G01X34672Y20605D01*
G01X30888D01*
G01X31044Y17962D01*
G01X31160Y16574D01*
G01X31169Y16510D01*
G01X31172Y16493D01*
G01X31174Y16487D01*
G01X31181Y16469D01*
G01X31191Y16454D01*
G01X31205Y16441D01*
G01X31222Y16430D01*
G01X31242Y16422D01*
G01X31266Y16417D01*
G01X31295Y16413D01*
G01X31327Y16412D01*
G01X31364Y16414D01*
G01X31453Y16425D01*
G01X31626Y16460D01*
G01X31771Y16496D01*
G01X32012Y16556D01*
G01X32071Y16575D01*
G01X32107Y16588D01*
G01X32131Y16599D01*
G01X32154Y16611D01*
G01X32168Y16619D01*
G01X32181Y16628D01*
G01X32195Y16639D01*
G01X32206Y16649D01*
G01X32217Y16660D01*
G01X32228Y16673D01*
G01X32238Y16685D01*
G01X32247Y16699D01*
G01X32256Y16714D01*
G01X32264Y16730D01*
G01X32271Y16748D01*
G01X32281Y16776D01*
G01X32290Y16806D01*
G01X32297Y16840D01*
G01X32305Y16890D01*
G01X32311Y16961D01*
G01X32315Y17079D01*
G01X32309Y17336D01*
G01X32228Y18540D01*
G01X32140Y19765D01*
G01X32805Y19914D01*
G01X33163Y19989D01*
G01X33253Y20002D01*
G01X33309Y20008D01*
G01X33346Y20009D01*
G01X33374D01*
G01X33395Y20007D01*
G01X33414Y20005D01*
G01X33432Y20001D01*
G01X33445Y19998D01*
G01X33457Y19994D01*
G01X33469Y19990D01*
G01X33480Y19985D01*
G01X33491Y19979D01*
G01X33501Y19973D01*
G01X33511Y19966D01*
G01X33521Y19959D01*
G01X33533Y19949D01*
G01X33545Y19936D01*
G01X33560Y19920D01*
G01X33578Y19898D01*
G01X33605Y19861D01*
G01X33614Y19848D01*
G01X34426Y18702D01*
G01X35159Y17754D01*
G01X35332Y17552D01*
G01X35388Y17493D01*
G01X35413Y17470D01*
G01X35425Y17459D01*
G01X35432Y17454D01*
G01X35436Y17451D01*
G01X35443Y17447D01*
G01X35445D01*
G01X35446Y17446D01*
G01X35447D01*
G01X35448D01*
G01X35451D01*
G01X35562Y17467D01*
G01X35868Y17535D01*
G01X35942Y17550D01*
G01X35991Y17557D01*
G01X36020Y17560D01*
G01X36047Y17561D01*
G01X36071Y17559D01*
G01X36082Y17557D01*
G01X36092Y17555D01*
G01X36103Y17553D01*
G01X36112Y17550D01*
G01X36120Y17546D01*
G01X36128Y17542D01*
G01X36136Y17537D01*
G01X36142Y17532D01*
G01X36148Y17526D01*
G01X36154Y17519D01*
G01X36159Y17512D01*
G01X36163Y17505D01*
G01X36167Y17496D01*
G01X36170Y17487D01*
G01X36172Y17477D01*
G01X36173Y17467D01*
G01X36174Y17456D01*
G01X36175Y17444D01*
G01X36174Y17418D01*
G01X36170Y17390D01*
G01X36164Y17359D01*
G01X36149Y17306D01*
G01X36121Y17225D01*
G01X36072Y17105D01*
G01X35942Y16833D01*
G01X35826Y16609D01*
G01X35556Y16128D01*
G01X35262Y15659D01*
G01X34931Y15188D01*
G01X34560Y14713D01*
G01X34123Y14210D01*
G01X33612Y13675D01*
G01X33109Y13159D01*
G01X33000Y13032D01*
G01X32941Y12958D01*
G01X32905Y12906D01*
G01X32884Y12872D01*
G01X32867Y12840D01*
G01X32856Y12816D01*
G01X32847Y12793D01*
G01X32842Y12776D01*
G01X32837Y12760D01*
G01X32834Y12744D01*
G01X32832Y12729D01*
G01X32831Y12714D01*
G01Y12699D01*
G01X32832Y12685D01*
G01X32834Y12671D01*
G01X32837Y12656D01*
G01X32841Y12643D01*
G01X32845Y12628D01*
G01X32852Y12610D01*
G01X32863Y12586D01*
G01X32868Y12576D01*
G01X32977Y12376D01*
G01X33012Y12317D01*
G01X33025Y12299D01*
G01X33030Y12294D01*
G01X33044Y12288D01*
G01X33067Y12293D01*
G01X33099Y12307D01*
G01X33139Y12331D01*
G01X33241Y12404D01*
G01X33443Y12571D01*
G01X33969Y13062D01*
G01X34767Y13881D01*
G01X35295Y14480D01*
G01X35499Y14736D01*
G01X35898Y15298D01*
G01X36231Y15818D01*
G01X36515Y16316D01*
G01X36746Y16774D01*
G01X36938Y17209D01*
G01X37096Y17624D01*
G01X37223Y18016D01*
G01X37322Y18388D01*
G01X37396Y18738D01*
G01X37452Y19086D01*
G01X37487Y19414D01*
G01X37505Y19739D01*
G01X37506Y20043D01*
G01X37492Y20345D01*
G01X37463Y20645D01*
G01X37418Y20942D01*
G01X37358Y21236D01*
G01X37283Y21528D01*
G01X37192Y21817D01*
G01X37086Y22103D01*
G01X36957Y22402D01*
G01X36811Y22698D01*
G01X36647Y22991D01*
G01X36456Y23295D01*
G01X36234Y23611D01*
G01X36029Y23875D01*
G01X35842Y24093D01*
G01X35619Y24328D01*
G01X35366Y24568D01*
G01X35071Y24822D01*
G01X34716Y25097D01*
G01X34309Y25380D01*
G01X33831Y25677D01*
G01X33294Y25974D01*
G01X32694Y26268D01*
G01X32030Y26552D01*
G01X31303Y26821D01*
G01X30531Y27064D01*
G01X29736Y27269D01*
G01X28924Y27437D01*
G01X28178Y27552D01*
G01X27395Y27632D01*
G01X25917Y27708D01*
G37*
G36*
G01X30489Y24188D02*
G01X30465Y24187D01*
G01X30434Y24184D01*
G01X30348Y24169D01*
G01X29848Y24043D01*
G01X29330Y23906D01*
G01X28678Y21306D01*
G01X27894Y18040D01*
G01X27838Y17787D01*
G01X27800Y17651D01*
G01X27772Y17568D01*
G01X27751Y17514D01*
G01X27735Y17480D01*
G01X27723Y17457D01*
G01X27710Y17437D01*
G01X27701Y17424D01*
G01X27692Y17413D01*
G01X27685Y17406D01*
G01X27679Y17400D01*
G01X27673Y17395D01*
G01X27667Y17391D01*
G01X27661Y17387D01*
G01X27655Y17384D01*
G01X27649Y17382D01*
G01X27640Y17381D01*
G01X27634D01*
G01X27631D01*
G01X27628D01*
G01X27625Y17382D01*
G01X27622Y17383D01*
G01X27619Y17384D01*
G01X27616Y17385D01*
G01X27613Y17386D01*
G01X27610Y17388D01*
G01X27605Y17392D01*
G01X27599Y17396D01*
G01X27587Y17408D01*
G01X27581Y17415D01*
G01X27573Y17427D01*
G01X27564Y17441D01*
G01X27556Y17456D01*
G01X27545Y17479D01*
G01X27531Y17512D01*
G01X27515Y17559D01*
G01X27510Y17576D01*
G01X27485Y17641D01*
G01X25378Y22385D01*
G01X25190Y22779D01*
G01X25182Y22792D01*
G01X25177Y22799D01*
G01X25158Y22804D01*
G01X25118Y22803D01*
G01X24986Y22783D01*
G01X24601Y22700D01*
G01X24206Y22594D01*
G01X24062Y22547D01*
G01X24014Y22527D01*
G01X23985Y22510D01*
G01X23989Y22488D01*
G01X24046Y22338D01*
G01X25582Y18893D01*
G01X27223Y15311D01*
G01X27816Y15486D01*
G01X28380Y15662D01*
G01X28409Y15673D01*
G01X28417Y15676D01*
G01X28420Y15677D01*
G01X28421Y15678D01*
G01X28424Y15686D01*
G01X30516Y24032D01*
G01X30538Y24128D01*
G01X30539Y24138D01*
G01Y24152D01*
G01X30536Y24164D01*
G01X30530Y24174D01*
G01X30522Y24181D01*
G01X30508Y24186D01*
G37*
G36*
G01X23047Y19201D02*
G01X22993Y19200D01*
G01X22928Y19195D01*
G01X22850Y19185D01*
G01X22724Y19162D01*
G01X22532Y19118D01*
G01X22369Y19073D01*
G01X22226Y19026D01*
G01X22088Y18973D01*
G01X21968Y18919D01*
G01X21853Y18861D01*
G01X21743Y18797D01*
G01X21637Y18727D01*
G01X21536Y18653D01*
G01X21440Y18574D01*
G01X21357Y18498D01*
G01X21278Y18419D01*
G01X21195Y18325D01*
G01X21117Y18227D01*
G01X21043Y18123D01*
G01X20974Y18015D01*
G01X20910Y17901D01*
G01X20845Y17771D01*
G01X20786Y17634D01*
G01X20728Y17479D01*
G01X20677Y17316D01*
G01X20630Y17131D01*
G01X20603Y16996D01*
G01X21573D01*
G01Y17019D01*
G01X21575Y17043D01*
G01X21579Y17071D01*
G01X21595Y17133D01*
G01X21619Y17203D01*
G01X21668Y17320D01*
G01X21730Y17445D01*
G01X21801Y17571D01*
G01X21879Y17694D01*
G01X21959Y17806D01*
G01X22013Y17873D01*
G01X22066Y17930D01*
G01X22092Y17955D01*
G01X22117Y17977D01*
G01X22142Y17995D01*
G01X22169Y18013D01*
G01X22212Y18039D01*
G01X22259Y18062D01*
G01X22309Y18083D01*
G01X22380Y18109D01*
G01X22454Y18130D01*
G01X22531Y18148D01*
G01X22610Y18163D01*
G01X22709Y18175D01*
G01X22787Y18180D01*
G01X22864Y18181D01*
G01X22938Y18178D01*
G01X22992Y18173D01*
G01X23042Y18165D01*
G01X23091Y18155D01*
G01X23135Y18142D01*
G01X23163Y18132D01*
G01X23189Y18121D01*
G01X23213Y18109D01*
G01X23234Y18095D01*
G01X23249Y18085D01*
G01X23263Y18073D01*
G01X23294Y18042D01*
G01X23327Y18003D01*
G01X23379Y17935D01*
G01X23448Y17831D01*
G01X23512Y17722D01*
G01X23552Y17641D01*
G01X23585Y17568D01*
G01X23601Y17525D01*
G01X23606Y17506D01*
G01X23610Y17488D01*
G01X23613Y17473D01*
G01X23614Y17459D01*
G01Y17448D01*
G01X23611Y17438D01*
G01X23607Y17432D01*
G01X23594Y17423D01*
G01X23572Y17413D01*
G01X23499Y17386D01*
G01X23192Y17296D01*
G01X22144Y17042D01*
G01X21733Y16961D01*
G01X21649Y16949D01*
G01X21619Y16947D01*
G01X21600D01*
G01X21589Y16950D01*
G01X21581Y16962D01*
G01X21576Y16977D01*
G01X21573Y16996D01*
G01X20603D01*
G01X20588Y16922D01*
G01X20554Y16689D01*
G01X20543Y16592D01*
G01X20464Y15812D01*
G01X20386Y16662D01*
G01X20342Y17049D01*
G01X20315Y17206D01*
G01X20294Y17304D01*
G01X20272Y17383D01*
G01X20250Y17448D01*
G01X20229Y17501D01*
G01X20206Y17551D01*
G01X20180Y17598D01*
G01X20152Y17644D01*
G01X20121Y17689D01*
G01X20083Y17739D01*
G01X20028Y17802D01*
G01X19986Y17848D01*
G01X19945Y17889D01*
G01X19901Y17928D01*
G01X19857Y17964D01*
G01X19810Y17997D01*
G01X19762Y18028D01*
G01X19713Y18056D01*
G01X19662Y18082D01*
G01X19597Y18111D01*
G01X19530Y18136D01*
G01X19460Y18156D01*
G01X19390Y18173D01*
G01X19318Y18185D01*
G01X19245Y18194D01*
G01X19171Y18199D01*
G01X19096D01*
G01X19020Y18196D01*
G01X18943Y18188D01*
G01X18867Y18177D01*
G01X18774Y18157D01*
G01X18681Y18133D01*
G01X18588Y18102D01*
G01X18496Y18065D01*
G01X18404Y18022D01*
G01X18313Y17974D01*
G01X18224Y17920D01*
G01X18180Y17891D01*
G01X18013Y17770D01*
G01X17898Y17678D01*
G01X17828Y17616D01*
G01X17795Y17584D01*
G01X17774Y17561D01*
G01X17764Y17548D01*
G01X17758Y17541D01*
G01X17754Y17534D01*
G01X17750Y17527D01*
G01X17749Y17524D01*
G01X17747Y17521D01*
G01X17746Y17516D01*
G01Y17514D01*
G01X17742Y17493D01*
G01X17732Y17466D01*
G01X17717Y17432D01*
G01X17672Y17351D01*
G01X17613Y17262D01*
G01X17581Y17218D01*
G01X17517Y17136D01*
G01X17495Y17111D01*
G01X17484Y17101D01*
G01X17475Y17093D01*
G01X17465Y17085D01*
G01X17455Y17078D01*
G01X17445Y17073D01*
G01X17436Y17070D01*
G01X17426Y17067D01*
G01X17416Y17066D01*
G01X17406D01*
G01X17395Y17067D01*
G01X17385Y17070D01*
G01X17374Y17074D01*
G01X17362Y17079D01*
G01X17350Y17086D01*
G01X17324Y17103D01*
G01X17294Y17126D01*
G01X17224Y17187D01*
G01X17160Y17247D01*
G01X17125Y17278D01*
G01X17089Y17306D01*
G01X17052Y17332D01*
G01X17013Y17357D01*
G01X16972Y17379D01*
G01X16930Y17398D01*
G01X16886Y17416D01*
G01X16841Y17432D01*
G01X16768Y17452D01*
G01X16690Y17468D01*
G01X16608Y17479D01*
G01X16487Y17488D01*
G01X16390Y17489D01*
G01X16238Y17486D01*
G01X16155Y17480D01*
G01X16094Y17472D01*
G01X16036Y17460D01*
G01X15995Y17449D01*
G01X15955Y17437D01*
G01X15916Y17421D01*
G01X15878Y17404D01*
G01X15839Y17384D01*
G01X15801Y17361D01*
G01X15750Y17325D01*
G01X15682Y17274D01*
G01X15596Y17199D01*
G01X15432Y17040D01*
G01X15216Y16831D01*
G01X15153Y16776D01*
G01X15118Y16749D01*
G01X15095Y16733D01*
G01X15080Y16724D01*
G01X15068Y16718D01*
G01X15056Y16713D01*
G01X15051Y16711D01*
G01X15045Y16709D01*
G01X15036Y16707D01*
G01X15032D01*
G01X15020Y16708D01*
G01X15016Y16710D01*
G01X15013Y16711D01*
G01X15010Y16713D01*
G01X15007Y16716D01*
G01X15004Y16718D01*
G01X15002Y16721D01*
G01X15000Y16725D01*
G01X14997Y16729D01*
G01X14996Y16734D01*
G01X14994Y16738D01*
G01X14991Y16748D01*
G01X14989Y16760D01*
G01X14987Y16774D01*
G01X14985Y16796D01*
G01X14984Y16821D01*
G01X14983Y16874D01*
G01X14980Y16904D01*
G01X14977Y16917D01*
G01X14974Y16930D01*
G01X14971Y16941D01*
G01X14966Y16951D01*
G01X14961Y16961D01*
G01X14955Y16970D01*
G01X14948Y16977D01*
G01X14941Y16984D01*
G01X14932Y16991D01*
G01X14923Y16996D01*
G01X14911Y17000D01*
G01X14900Y17003D01*
G01X14886Y17006D01*
G01X14872Y17008D01*
G01X14840Y17010D01*
G01X14802Y17009D01*
G01X14734Y17002D01*
G01X14553Y16973D01*
G01X14378Y16935D01*
G01X14241Y16898D01*
G01X14157Y16871D01*
G01X14104Y16850D01*
G01X14072Y16835D01*
G01X14055Y16825D01*
G01X14048Y16821D01*
G01X14042Y16817D01*
G01X14037Y16813D01*
G01X14029Y16793D01*
G01X14024Y16754D01*
G01X14018Y16617D01*
G01X14035Y15991D01*
G01X14123Y14651D01*
G01X14292Y12342D01*
G01X14293Y12322D01*
G01X14295Y12244D01*
G01X14298Y12212D01*
G01X14300Y12199D01*
G01X14303Y12186D01*
G01X14307Y12175D01*
G01X14312Y12165D01*
G01X14317Y12156D01*
G01X14324Y12148D01*
G01X14332Y12142D01*
G01X14340Y12137D01*
G01X14350Y12133D01*
G01X14362Y12130D01*
G01X14374Y12127D01*
G01X14389D01*
G01X14404D01*
G01X14440Y12131D01*
G01X14484Y12139D01*
G01X14594Y12167D01*
G01X14783Y12222D01*
G01X14920Y12267D01*
G01X14997Y12297D01*
G01X15053Y12322D01*
G01X15092Y12342D01*
G01X15127Y12363D01*
G01X15150Y12378D01*
G01X15170Y12394D01*
G01X15183Y12405D01*
G01X15194Y12416D01*
G01X15204Y12427D01*
G01X15214Y12438D01*
G01X15222Y12450D01*
G01X15229Y12462D01*
G01X15235Y12474D01*
G01X15241Y12486D01*
G01X15246Y12498D01*
G01X15249Y12511D01*
G01X15252Y12524D01*
G01X15253Y12537D01*
G01X15254Y12551D01*
G01X15253Y12578D01*
G01X15153Y14252D01*
G01X15072Y15719D01*
G01X15403Y16078D01*
G01X15529Y16208D01*
G01X15593Y16268D01*
G01X15642Y16309D01*
G01X15690Y16344D01*
G01X15725Y16367D01*
G01X15760Y16388D01*
G01X15795Y16406D01*
G01X15831Y16421D01*
G01X15868Y16434D01*
G01X15905Y16444D01*
G01X15945Y16453D01*
G01X15985Y16460D01*
G01X16042Y16465D01*
G01X16103Y16467D01*
G01X16203Y16466D01*
G01X16277Y16462D01*
G01X16307Y16458D01*
G01X16336Y16453D01*
G01X16364Y16444D01*
G01X16377Y16439D01*
G01X16391Y16434D01*
G01X16404Y16428D01*
G01X16417Y16421D01*
G01X16441Y16404D01*
G01X16465Y16385D01*
G01X16487Y16362D01*
G01X16509Y16336D01*
G01X16530Y16307D01*
G01X16550Y16274D01*
G01X16568Y16237D01*
G01X16587Y16197D01*
G01X16613Y16128D01*
G01X16638Y16050D01*
G01X16668Y15931D01*
G01X16711Y15716D01*
G01X16767Y15306D01*
G01X16842Y14504D01*
G01X16979Y13022D01*
G01X16993Y12931D01*
G01X16997Y12911D01*
G01X16998Y12904D01*
G01X16999Y12902D01*
G01X17006Y12885D01*
G01X17015Y12871D01*
G01X17028Y12858D01*
G01X17043Y12848D01*
G01X17062Y12840D01*
G01X17084Y12834D01*
G01X17109Y12831D01*
G01X17138Y12829D01*
G01X17171Y12830D01*
G01X17249Y12839D01*
G01X17344Y12857D01*
G01X17522Y12901D01*
G01X18003Y13029D01*
G01X17940Y13552D01*
G01X17808Y14864D01*
G01X17779Y15464D01*
G01X17781Y15804D01*
G01X17793Y16020D01*
G01X17809Y16167D01*
G01X17825Y16269D01*
G01X17842Y16347D01*
G01X17858Y16406D01*
G01X17874Y16456D01*
G01X17890Y16495D01*
G01X17904Y16527D01*
G01X17911Y16540D01*
G01X17962Y16634D01*
G01X18006Y16703D01*
G01X18051Y16766D01*
G01X18099Y16824D01*
G01X18135Y16865D01*
G01X18173Y16902D01*
G01X18213Y16937D01*
G01X18253Y16969D01*
G01X18296Y16998D01*
G01X18339Y17024D01*
G01X18384Y17047D01*
G01X18431Y17068D01*
G01X18479Y17087D01*
G01X18528Y17102D01*
G01X18580Y17116D01*
G01X18633Y17126D01*
G01X18707Y17136D01*
G01X18783Y17141D01*
G01X18843Y17142D01*
G01X18883Y17141D01*
G01X18921Y17136D01*
G01X18959Y17129D01*
G01X18994Y17118D01*
G01X19011Y17111D01*
G01X19028Y17104D01*
G01X19045Y17095D01*
G01X19061Y17086D01*
G01X19077Y17076D01*
G01X19107Y17053D01*
G01X19136Y17025D01*
G01X19164Y16994D01*
G01X19191Y16959D01*
G01X19217Y16919D01*
G01X19241Y16876D01*
G01X19264Y16828D01*
G01X19296Y16747D01*
G01X19326Y16655D01*
G01X19363Y16515D01*
G01X19405Y16310D01*
G01X19454Y15965D01*
G01X19522Y15199D01*
G01X19536Y14971D01*
G01X19615Y13992D01*
G01X19656Y13679D01*
G01X19673Y13585D01*
G01X19681Y13548D01*
G01X19688Y13528D01*
G01X19691Y13518D01*
G01X19694Y13513D01*
G01X19696Y13508D01*
G01X19697Y13506D01*
G01X19698Y13505D01*
G01X19699Y13503D01*
G01X19702Y13500D01*
G01X19713Y13496D01*
G01X19728Y13492D01*
G01X19746Y13491D01*
G01X19768Y13490D01*
G01X19822Y13494D01*
G01X19886Y13502D01*
G01X19998Y13523D01*
G01X20124Y13554D01*
G01X20211Y13579D01*
G01X20635Y13710D01*
G01X20576Y14761D01*
G01X20549Y15405D01*
G01X20550Y15494D01*
G01X20552Y15531D01*
G01X20554Y15547D01*
G01X20556Y15557D01*
G01X20557Y15563D01*
G01X20559Y15567D01*
G01X20560Y15571D01*
G01X20562Y15574D01*
G01X20563Y15576D01*
G01X20564Y15577D01*
G01X20565D01*
G01X20566Y15578D01*
G01X20567D01*
G01X20568Y15579D01*
G01X20569D01*
G01X20570Y15578D01*
G01X20571D01*
G01X20572D01*
G01X20575Y15576D01*
G01X20576Y15575D01*
G01X20577Y15573D01*
G01X20580Y15570D01*
G01X20583Y15566D01*
G01X20587Y15559D01*
G01X20593Y15546D01*
G01X20603Y15521D01*
G01X20625Y15460D01*
G01X20641Y15410D01*
G01X20690Y15265D01*
G01X20739Y15142D01*
G01X20785Y15039D01*
G01X20836Y14942D01*
G01X20883Y14862D01*
G01X20933Y14786D01*
G01X20986Y14714D01*
G01X21043Y14646D01*
G01X21103Y14581D01*
G01X21166Y14520D01*
G01X21233Y14463D01*
G01X21303Y14409D01*
G01X21378Y14359D01*
G01X21455Y14312D01*
G01X21549Y14263D01*
G01X21648Y14216D01*
G01X21739Y14179D01*
G01X21950Y14104D01*
G01X22049Y14074D01*
G01X22125Y14056D01*
G01X22184Y14046D01*
G01X22241Y14039D01*
G01X22298Y14036D01*
G01X22356D01*
G01X22414Y14040D01*
G01X22491Y14049D01*
G01X22591Y14067D01*
G01X22782Y14113D01*
G01X22804Y14118D01*
G01X22974Y14168D01*
G01X23137Y14225D01*
G01X23293Y14289D01*
G01X23427Y14353D01*
G01X23555Y14421D01*
G01X23677Y14496D01*
G01X23779Y14566D01*
G01X23878Y14641D01*
G01X23970Y14720D01*
G01X24057Y14803D01*
G01X24140Y14889D01*
G01X24216Y14980D01*
G01X24287Y15075D01*
G01X24344Y15161D01*
G01X24398Y15250D01*
G01X24405Y15262D01*
G01X24665Y15730D01*
G01X24298Y15859D01*
G01X24182Y15897D01*
G01X24132Y15911D01*
G01X24098Y15918D01*
G01X24066Y15923D01*
G01X24046Y15925D01*
G01X24026Y15926D01*
G01X24008Y15925D01*
G01X23989Y15923D01*
G01X23972Y15920D01*
G01X23954Y15916D01*
G01X23936Y15910D01*
G01X23919Y15902D01*
G01X23902Y15893D01*
G01X23885Y15883D01*
G01X23867Y15870D01*
G01X23840Y15850D01*
G01X23813Y15825D01*
G01X23773Y15786D01*
G01X23696Y15700D01*
G01X23604Y15590D01*
G01X23532Y15506D01*
G01X23457Y15428D01*
G01X23381Y15357D01*
G01X23303Y15292D01*
G01X23235Y15241D01*
G01X23166Y15195D01*
G01X23097Y15154D01*
G01X23027Y15118D01*
G01X22968Y15091D01*
G01X22909Y15068D01*
G01X22850Y15048D01*
G01X22791Y15033D01*
G01X22732Y15020D01*
G01X22674Y15011D01*
G01X22615Y15006D01*
G01X22557Y15004D01*
G01X22511Y15005D01*
G01X22465Y15009D01*
G01X22420Y15015D01*
G01X22375Y15024D01*
G01X22330Y15034D01*
G01X22286Y15047D01*
G01X22243Y15063D01*
G01X22200Y15081D01*
G01X22158Y15101D01*
G01X22131Y15117D01*
G01X22089Y15143D01*
G01X22047Y15175D01*
G01X21990Y15224D01*
G01X21932Y15279D01*
G01X21862Y15354D01*
G01X21796Y15434D01*
G01X21734Y15517D01*
G01X21678Y15599D01*
G01X21641Y15663D01*
G01X21609Y15724D01*
G01X21590Y15767D01*
G01X21580Y15794D01*
G01X21572Y15819D01*
G01X21566Y15842D01*
G01X21563Y15864D01*
G01X21562Y15874D01*
G01Y15893D01*
G01X21564Y15902D01*
G01X21565Y15910D01*
G01X21568Y15917D01*
G01X21571Y15924D01*
G01X21575Y15930D01*
G01X21579Y15935D01*
G01X21591Y15941D01*
G01X21655Y15962D01*
G01X23053Y16337D01*
G01X23929Y16582D01*
G01X24315Y16711D01*
G01X24455Y16765D01*
G01X24512Y16791D01*
G01X24537Y16804D01*
G01X24554Y16814D01*
G01X24563Y16820D01*
G01X24569Y16825D01*
G01X24573Y16829D01*
G01X24577Y16833D01*
G01X24579Y16834D01*
G01X24580Y16836D01*
G01X24591Y16855D01*
G01X24600Y16878D01*
G01X24608Y16906D01*
G01X24615Y16936D01*
G01X24623Y17008D01*
G01X24627Y17091D01*
G01X24622Y17234D01*
G01X24608Y17395D01*
G01X24572Y17627D01*
G01X24523Y17865D01*
G01X24460Y18096D01*
G01X24405Y18258D01*
G01X24366Y18356D01*
G01X24345Y18401D01*
G01X24315Y18461D01*
G01X24281Y18519D01*
G01X24244Y18575D01*
G01X24203Y18628D01*
G01X24158Y18679D01*
G01X24110Y18728D01*
G01X24059Y18776D01*
G01X24004Y18821D01*
G01X23946Y18864D01*
G01X23884Y18904D01*
G01X23805Y18950D01*
G01X23722Y18993D01*
G01X23693Y19006D01*
G01X23462Y19106D01*
G01X23365Y19142D01*
G01X23291Y19165D01*
G01X23237Y19179D01*
G01X23184Y19189D01*
G01X23138Y19196D01*
G01X23093Y19200D01*
G37*
G36*
G01X13040Y18766D02*
G01X13013Y18765D01*
G01X12986Y18762D01*
G01X12959Y18758D01*
G01X12931Y18752D01*
G01X12903Y18745D01*
G01X12875Y18737D01*
G01X12837Y18722D01*
G01X12800Y18705D01*
G01X12762Y18685D01*
G01X12724Y18662D01*
G01X12686Y18636D01*
G01X12649Y18607D01*
G01X12602Y18567D01*
G01X12565Y18531D01*
G01X12528Y18491D01*
G01X12494Y18449D01*
G01X12463Y18405D01*
G01X12436Y18360D01*
G01X12412Y18313D01*
G01X12392Y18265D01*
G01X12375Y18216D01*
G01X12362Y18167D01*
G01X12352Y18117D01*
G01X12345Y18067D01*
G01X12342Y18017D01*
G01X12343Y17967D01*
G01X12346Y17918D01*
G01X12354Y17869D01*
G01X12365Y17821D01*
G01X12374Y17790D01*
G01X12385Y17760D01*
G01X12397Y17730D01*
G01X12411Y17701D01*
G01X12426Y17672D01*
G01X12443Y17644D01*
G01X12462Y17618D01*
G01X12482Y17592D01*
G01X12504Y17568D01*
G01X12516Y17556D01*
G01X12551Y17521D01*
G01X12587Y17491D01*
G01X12622Y17465D01*
G01X12645Y17449D01*
G01X12669Y17435D01*
G01X12691Y17422D01*
G01X12715Y17412D01*
G01X12738Y17403D01*
G01X12761Y17396D01*
G01X12785Y17391D01*
G01X12808Y17387D01*
G01X12832Y17385D01*
G01X12856D01*
G01X12880Y17387D01*
G01X12904Y17390D01*
G01X12929Y17395D01*
G01X12953Y17403D01*
G01X12978Y17411D01*
G01X13004Y17421D01*
G01X13043Y17440D01*
G01X13083Y17463D01*
G01X13123Y17490D01*
G01X13180Y17532D01*
G01X13238Y17581D01*
G01X13314Y17654D01*
G01X13330Y17669D01*
G01X13399Y17741D01*
G01X13440Y17790D01*
G01X13469Y17827D01*
G01X13494Y17863D01*
G01X13510Y17889D01*
G01X13524Y17916D01*
G01X13537Y17942D01*
G01X13547Y17967D01*
G01X13555Y17994D01*
G01X13562Y18020D01*
G01X13566Y18047D01*
G01X13569Y18074D01*
G01X13570Y18101D01*
G01Y18130D01*
G01X13568Y18159D01*
G01X13562Y18200D01*
G01X13551Y18253D01*
G01X13546Y18275D01*
G01X13529Y18336D01*
G01X13513Y18381D01*
G01X13496Y18425D01*
G01X13477Y18466D01*
G01X13456Y18504D01*
G01X13434Y18539D01*
G01X13411Y18572D01*
G01X13392Y18596D01*
G01X13373Y18618D01*
G01X13353Y18638D01*
G01X13332Y18657D01*
G01X13311Y18674D01*
G01X13288Y18690D01*
G01X13266Y18704D01*
G01X13243Y18717D01*
G01X13219Y18728D01*
G01X13195Y18738D01*
G01X13170Y18747D01*
G01X13145Y18753D01*
G01X13119Y18759D01*
G01X13093Y18762D01*
G01X13067Y18765D01*
G37*
G36*
G01X11709Y18166D02*
G01X11614Y18162D01*
G01X11431Y18141D01*
G01X11195Y18101D01*
G01X10920Y18048D01*
G01X10999Y16525D01*
G01X11291Y12465D01*
G01X11340Y12061D01*
G01X11352Y11991D01*
G01X11353Y11983D01*
G01X11361Y11954D01*
G01X11371Y11926D01*
G01X11383Y11898D01*
G01X11397Y11871D01*
G01X11414Y11845D01*
G01X11432Y11820D01*
G01X11452Y11795D01*
G01X11474Y11771D01*
G01X11498Y11749D01*
G01X11522Y11726D01*
G01X11563Y11695D01*
G01X11607Y11666D01*
G01X11654Y11639D01*
G01X11703Y11615D01*
G01X11755Y11593D01*
G01X11808Y11574D01*
G01X11864Y11558D01*
G01X11921Y11545D01*
G01X11980Y11535D01*
G01X12039Y11528D01*
G01X12099Y11524D01*
G01X12159Y11525D01*
G01X12219Y11529D01*
G01X12279Y11536D01*
G01X12320Y11543D01*
G01X12583Y11604D01*
G01X12938Y11704D01*
G01X13293Y11823D01*
G01X13533Y11917D01*
G01X13664Y11976D01*
G01X13735Y12013D01*
G01X13779Y12038D01*
G01X13803Y12054D01*
G01X13819Y12065D01*
G01X13831Y12076D01*
G01X13838Y12083D01*
G01X13845Y12089D01*
G01X13849Y12095D01*
G01X13851Y12099D01*
G01X13853Y12102D01*
G01X13854Y12104D01*
G01X13855Y12107D01*
G01X13856Y12110D01*
G01Y12112D01*
G01X13852Y12246D01*
G01X13711Y14460D01*
G01X13559Y16697D01*
G01X13149Y16621D01*
G01X13002Y16590D01*
G01X12868Y16554D01*
G01X12785Y16527D01*
G01X12729Y16506D01*
G01X12696Y16491D01*
G01X12677Y16481D01*
G01X12662Y16471D01*
G01X12657Y16467D01*
G01X12652Y16462D01*
G01X12644Y16442D01*
G01X12638Y16400D01*
G01X12632Y16253D01*
G01X12657Y15404D01*
G01X12740Y14139D01*
G01X12862Y12139D01*
G01X12864Y11925D01*
G01X12862Y11877D01*
G01X12861Y11861D01*
G01X12860Y11852D01*
G01X12858Y11848D01*
G01Y11846D01*
G01X12857Y11844D01*
G01X12856Y11841D01*
G01X12855Y11840D01*
G01Y11839D01*
G01X12832Y11850D01*
G01X12813Y11922D01*
G01X12800Y12044D01*
G01X12796Y12204D01*
G01X12792Y12357D01*
G01X12787Y12418D01*
G01X12782Y12459D01*
G01X12776Y12487D01*
G01X12771Y12503D01*
G01X12766Y12519D01*
G01X12760Y12532D01*
G01X12754Y12545D01*
G01X12747Y12557D01*
G01X12739Y12567D01*
G01X12730Y12577D01*
G01X12725Y12581D01*
G01X12716Y12589D01*
G01X12705Y12596D01*
G01X12693Y12602D01*
G01X12681Y12608D01*
G01X12667Y12613D01*
G01X12652Y12617D01*
G01X12637Y12620D01*
G01X12611Y12624D01*
G01X12573Y12627D01*
G01X12507Y12628D01*
G01X12443Y12630D01*
G01X12405Y12633D01*
G01X12372Y12638D01*
G01X12358Y12642D01*
G01X12343Y12646D01*
G01X12331Y12650D01*
G01X12318Y12656D01*
G01X12307Y12662D01*
G01X12297Y12669D01*
G01X12287Y12677D01*
G01X12278Y12685D01*
G01X12270Y12695D01*
G01X12263Y12706D01*
G01X12256Y12717D01*
G01X12250Y12729D01*
G01X12245Y12743D01*
G01X12240Y12758D01*
G01X12232Y12791D01*
G01X12226Y12829D01*
G01X12221Y12895D01*
G01X12218Y13004D01*
G01X12179Y13774D01*
G01X12047Y15696D01*
G01X11875Y18096D01*
G01Y18098D01*
G01X11872Y18113D01*
G01X11864Y18127D01*
G01X11852Y18139D01*
G01X11834Y18148D01*
G01X11810Y18156D01*
G01X11782Y18162D01*
G01X11749Y18165D01*
G37*
G04 Image End*
G04 Image End*

G04 PolygonModel Start*
G54D10*
G01X71614Y34500D02*
G01X2000Y34500D01*
G04 PolygonModel End*

G04 Rect Start*
G01X2138Y30833D02*
G01X2138Y3667D01*
G03X3160Y2645I1022J0D01*
G01X91540D01*
G03X92562Y3667I0J1022D01*
G01Y30833D01*
G03X91540Y31855I-1022J0D01*
G01X3160D01*
G03X2138Y30833I0J-1022D01*
G04 Rect End*

M02*
