G04 Layer: BoardOutlineLayer*
G04 EasyEDA Pro v1.7.27, 2022-08-27 15:43:47*
G04 Gerber Generator version 0.3*
G04 Scale: 100 percent, Rotated: No, Reflected: No*
G04 Dimensions in millimeters*
G04 Leading zeros omitted, absolute positions, 3 integers and 3 decimals*
%FSLAX33Y33*%
%MOMM*%
%ADD10C,0.254*%
%ADD11C,0.0254*%
G75*


G04 PolygonModel Start*
G54D10*
G01X0Y0D02*
G01X94700Y0D01*
G01Y-0D01*
G01X0Y34500D02*
G01X0Y-0D01*
G01X94700Y-0D02*
G01X94700Y34500D01*
G01X88842Y34500D02*
G01X94700Y34500D01*
G01X88842Y34500D02*
G02X87826Y33865I-930J357D01*
G01X0Y34500D02*
G01X71604Y34500D01*
G01X71614Y34500D02*
G03X72630Y33865I930J357D01*
G01X72630Y33865D02*
G01X87908Y33865D01*
G01X87912Y33861D01*
G04 PolygonModel End*

G04 Rect Start*
G54D11*
G01X2000Y4750D02*
G01X2000Y29750D01*
G01X1000D01*
G01Y4750D01*
G01X2000D01*
G01X92700Y29750D02*
G01X92700Y4750D01*
G01X93700D01*
G01Y29750D01*
G01X92700D01*
G01X59780Y1114D02*
G01X59780Y2114D01*
G01X34780D01*
G01Y1114D01*
G01X59780D01*
G01X30785Y1114D02*
G01X30785Y2114D01*
G01X5785D01*
G01Y1114D01*
G01X30785D01*
G01X88775Y1114D02*
G01X88775Y2114D01*
G01X63775D01*
G01Y1114D01*
G01X88775D01*
G01X5925Y33386D02*
G01X5925Y32386D01*
G01X30925D01*
G01Y33386D01*
G01X5925D01*
G01X63915Y33386D02*
G01X63915Y32386D01*
G01X88915D01*
G01Y33386D01*
G01X63915D01*
G01X34920Y33386D02*
G01X34920Y32386D01*
G01X59920D01*
G01Y33386D01*
G01X34920D01*
G04 Rect End*

M02*
