G04 Layer: TopSolderMaskLayer*
G04 EasyEDA Pro v1.7.27, 2022-09-03 12:30:42*
G04 Gerber Generator version 0.3*
G04 Scale: 100 percent, Rotated: No, Reflected: No*
G04 Dimensions in millimeters*
G04 Leading zeros omitted, absolute positions, 3 integers and 3 decimals*
%FSLAX33Y33*%
%MOMM*%
%ADD10C,0.00508*%
%ADD11C,0.2*%
%ADD12C,2.101601*%
%ADD13C,2.101596*%
G75*


G04 Image Start*
G36*
G01X31156Y13176D02*
G01X31156Y13176D01*
G01X31148Y13137D01*
G01X31146Y13120D01*
G01Y13105D01*
G01Y13090D01*
G01X31148Y13077D01*
G01X31151Y13066D01*
G01X31156Y13055D01*
G01X31162Y13045D01*
G01X31170Y13037D01*
G01X31179Y13029D01*
G01X31190Y13023D01*
G01X31202Y13017D01*
G01X31216Y13012D01*
G01X31231Y13008D01*
G01X31249Y13005D01*
G01X31295Y12996D01*
G01X31336Y12984D01*
G01X31355Y12977D01*
G01X31373Y12969D01*
G01X31390Y12960D01*
G01X31407Y12950D01*
G01X31423Y12938D01*
G01X31439Y12926D01*
G01X31454Y12912D01*
G01X31485Y12881D01*
G01X31516Y12843D01*
G01X31532Y12822D01*
G01X31561Y12779D01*
G01X31588Y12733D01*
G01X31614Y12684D01*
G01X31643Y12617D01*
G01X31671Y12544D01*
G01X31701Y12449D01*
G01X31732Y12327D01*
G01X31761Y12171D01*
G01X31791Y11952D01*
G01X31814Y11676D01*
G01X31827Y11363D01*
G01Y11294D01*
G01X31825Y11276D01*
G01Y11272D01*
G01X31824Y11269D01*
G01X31823Y11266D01*
G01X31817Y11252D01*
G01X31810Y11239D01*
G01X31801Y11229D01*
G01X31791Y11220D01*
G01X31778Y11213D01*
G01X31764Y11208D01*
G01X31747Y11205D01*
G01X31728Y11203D01*
G01X31705Y11204D01*
G01X31679Y11206D01*
G01X31617Y11216D01*
G01X31441Y11257D01*
G01X31090Y11341D01*
G01X30910Y11374D01*
G01X30740Y11396D01*
G01X30524Y11412D01*
G01X29957Y11422D01*
G01X29922D01*
G01X29307Y11410D01*
G01X29047Y11391D01*
G01X28825Y11362D01*
G01X28523Y11307D01*
G01X28479Y11298D01*
G01X28325Y11265D01*
G01X28331Y11166D01*
G01X28336Y11110D01*
G01X28340Y11080D01*
G01X28342Y11070D01*
G01X28344Y11062D01*
G01X28346Y11058D01*
G01X28364D01*
G01X28467Y11073D01*
G01X28539Y11088D01*
G01X28838Y11142D01*
G01X29171Y11185D01*
G01X29536Y11213D01*
G01X29927Y11222D01*
G01X30290Y11212D01*
G01X30618Y11187D01*
G01X30910Y11149D01*
G01X31164Y11103D01*
G01X31364Y11055D01*
G01X31476Y11023D01*
G01X31562Y10999D01*
G01X31617Y10987D01*
G01X31658Y10980D01*
G01X31695Y10976D01*
G01X31722Y10975D01*
G01X31748Y10976D01*
G01X31772Y10978D01*
G01X31787Y10980D01*
G01X31802Y10983D01*
G01X31817Y10987D01*
G01X31831Y10991D01*
G01X31845Y10996D01*
G01X31858Y11002D01*
G01X31871Y11009D01*
G01X31883Y11016D01*
G01X31895Y11024D01*
G01X31907Y11033D01*
G01X31924Y11048D01*
G01X31941Y11065D01*
G01X31957Y11083D01*
G01X31973Y11103D01*
G01X31988Y11125D01*
G01X32000Y11145D01*
G01X32011Y11167D01*
G01X32020Y11192D01*
G01X32028Y11220D01*
G01X32035Y11252D01*
G01X32044Y11325D01*
G01X32048Y11415D01*
G01X32043Y11587D01*
G01X32019Y11897D01*
G01X31993Y12117D01*
G01X31964Y12288D01*
G01X31931Y12431D01*
G01X31897Y12550D01*
G01X31864Y12648D01*
G01X31831Y12728D01*
G01X31802Y12791D01*
G01X31770Y12850D01*
G01X31736Y12905D01*
G01X31707Y12948D01*
G01X31676Y12987D01*
G01X31644Y13024D01*
G01X31618Y13051D01*
G01X31590Y13076D01*
G01X31562Y13099D01*
G01X31533Y13120D01*
G01X31503Y13140D01*
G01X31473Y13157D01*
G01X31441Y13172D01*
G01X31409Y13186D01*
G01X31375Y13197D01*
G01X31367Y13200D01*
G01X31275Y13226D01*
G01X31246Y13232D01*
G01X31230Y13234D01*
G01X31216Y13235D01*
G01X31210D01*
G01X31204Y13234D01*
G01X31199Y13233D01*
G01X31194Y13232D01*
G01X31190Y13231D01*
G01X31186Y13229D01*
G01X31182Y13227D01*
G01X31179Y13224D01*
G01X31176Y13221D01*
G01X31173Y13217D01*
G01X31170Y13214D01*
G01X31168Y13209D01*
G01X31166Y13205D01*
G01X31162Y13194D01*
G01X31158Y13182D01*
G01X31156Y13176D01*
G37*
G36*
G01X28941Y12614D02*
G01X28941Y12614D01*
G01X28712Y12370D01*
G01X28611Y12260D01*
G01X28671Y12197D01*
G01X28731Y12133D01*
G01X28904Y12319D01*
G01X29078Y12504D01*
G01X29272Y12330D01*
G01X29466Y12156D01*
G01X29515Y12223D01*
G01X29564Y12291D01*
G01X29395Y12448D01*
G01X29148Y12677D01*
G01X29069Y12749D01*
G01X28941Y12614D01*
G37*
G36*
G01X30584Y12521D02*
G01X30344Y12297D01*
G01X30408Y12237D01*
G01X30471Y12177D01*
G01X30640Y12334D01*
G01X30765Y12445D01*
G01X30807Y12479D01*
G01X30820Y12488D01*
G01X30825Y12491D01*
G01X30827D01*
G01X30847Y12478D01*
G01X30942Y12385D01*
G01X31006Y12318D01*
G01X31167Y12144D01*
G01X31233Y12209D01*
G01X31300Y12274D01*
G01X31061Y12509D01*
G01X30823Y12745D01*
G01X30584Y12521D01*
G37*
G04 Image End*
G04 Image End*

G04 Rect Start*
G36*
G01X41134Y24899D02*
G01X41134Y9899D01*
G03X46134Y4899I5000J0D01*
G01X61134D01*
G03X66134Y9899I0J5000D01*
G01Y24899D01*
G03X61134Y29899I-5000J0D01*
G01X46134D01*
G03X41134Y24899I0J-5000D01*
G37*
G54D10*
G01X41134Y24899D02*
G01X41134Y9899D01*
G03X46134Y4899I5000J0D01*
G01X61134D01*
G03X66134Y9899I0J5000D01*
G01Y24899D01*
G03X61134Y29899I-5000J0D01*
G01X46134D01*
G03X41134Y24899I0J-5000D01*
G36*
G01X85838Y22234D02*
G01X85838Y15757D01*
G03X87172Y14424I1334J0D01*
G03X88505Y15757I0J1334D01*
G01Y22234D01*
G03X87172Y23568I-1333J0D01*
G03X85838Y22234I0J-1333D01*
G37*
G01X85838Y22234D02*
G01X85838Y15757D01*
G03X87172Y14424I1334J0D01*
G03X88505Y15757I0J1334D01*
G01Y22234D01*
G03X87172Y23568I-1333J0D01*
G03X85838Y22234I0J-1333D01*
G04 Rect End*

G04 Circle Start*
G54D11*
G01X27786Y12105D02*
G03X32586Y12105I2400J0D01*
G03X27786I-2400J0D01*
G04 Circle End*

G04 Pad Start*
G54D12*
G01X26268Y28807D03*
G01X11028Y28807D03*
G01X11028Y5947D03*
G01X13568Y5947D03*
G01X21188Y5947D03*
G01X23728Y5947D03*
G54D13*
G01X73131Y6328D03*
G01X87101Y6328D03*
G01X87101Y29188D03*
G01X83926Y6328D03*
G01X76306Y6328D03*
G04 Pad End*

M02*
