G04 Layer: TopSilkscreenLayer*
G04 EasyEDA Pro v1.7.27, 2022-08-27 15:43:47*
G04 Gerber Generator version 0.3*
G04 Scale: 100 percent, Rotated: No, Reflected: No*
G04 Dimensions in millimeters*
G04 Leading zeros omitted, absolute positions, 3 integers and 3 decimals*
%FSLAX33Y33*%
%MOMM*%
%ADD10C,0.254*%
G75*


G04 Image Start*
G36*
G01X24445Y27632D02*
G01X21508Y27628D01*
G01X21343Y27619D01*
G01X21317Y27616D01*
G01X20522Y27494D01*
G01X17849Y26957D01*
G01X16744Y26686D01*
G01X16625Y26652D01*
G01X15262Y26210D01*
G01X13970Y25720D01*
G01X12753Y25185D01*
G01X11628Y24622D01*
G01X10595Y24038D01*
G01X9667Y23449D01*
G01X8838Y22863D01*
G01X8090Y22275D01*
G01X7430Y21701D01*
G01X6853Y21146D01*
G01X6354Y20613D01*
G01X5913Y20093D01*
G01X5529Y19590D01*
G01X5204Y19117D01*
G01X4926Y18664D01*
G01X4682Y18220D01*
G01X4479Y17798D01*
G01X4305Y17386D01*
G01X4164Y16998D01*
G01X4049Y16622D01*
G01X3998Y16420D01*
G01X5855D01*
G01X5858Y16479D01*
G01X5865Y16537D01*
G01X5877Y16596D01*
G01X5892Y16654D01*
G01X5910Y16713D01*
G01X5932Y16771D01*
G01X5957Y16828D01*
G01X5996Y16903D01*
G01X6040Y16977D01*
G01X6089Y17050D01*
G01X6143Y17121D01*
G01X6202Y17190D01*
G01X6265Y17256D01*
G01X6332Y17320D01*
G01X6422Y17396D01*
G01X6517Y17467D01*
G01X6616Y17532D01*
G01X6721Y17592D01*
G01X6829Y17645D01*
G01X6917Y17683D01*
G01X7008Y17716D01*
G01X7101Y17744D01*
G01X7194Y17767D01*
G01X7289Y17785D01*
G01X7385Y17797D01*
G01X7481Y17803D01*
G01X7577D01*
G01X7649Y17799D01*
G01X7722Y17792D01*
G01X7795Y17779D01*
G01X7874Y17761D01*
G01X7985Y17729D01*
G01X8098Y17689D01*
G01X8239Y17630D01*
G01X8347Y17578D01*
G01X8447Y17523D01*
G01X8515Y17480D01*
G01X8555Y17452D01*
G01X8932Y17173D01*
G01X9376Y17616D01*
G01X9819Y18059D01*
G01X9478Y18414D01*
G01X9403Y18489D01*
G01X9297Y18582D01*
G01X9172Y18681D01*
G01X9056Y18764D01*
G01X8955Y18829D01*
G01X8880Y18871D01*
G01X8821Y18900D01*
G01X8793Y18912D01*
G01X8747Y18930D01*
G01X8696Y18945D01*
G01X8610Y18966D01*
G01X8514Y18982D01*
G01X8372Y18999D01*
G01X8179Y19011D01*
G01X7927Y19014D01*
G01X7619Y19002D01*
G01X7310Y18973D01*
G01X7055Y18936D01*
G01X6855Y18897D01*
G01X6709Y18861D01*
G01X6576Y18820D01*
G01X6488Y18788D01*
G01X6435Y18765D01*
G01X6410Y18752D01*
G01X6247Y18676D01*
G01X6123Y18625D01*
G01X6064Y18604D01*
G01X6026Y18593D01*
G01X6006Y18588D01*
G01X5988Y18585D01*
G01X5980D01*
G01X5973Y18584D01*
G01X5967Y18585D01*
G01X5963Y18586D01*
G01X5959Y18587D01*
G01X5956Y18589D01*
G01X5951Y18601D01*
G01X5954Y18622D01*
G01X5963Y18651D01*
G01X5979Y18686D01*
G01X6030Y18777D01*
G01X6149Y18958D01*
G01X6504Y19436D01*
G01X7206Y20282D01*
G01X7685Y20805D01*
G01X7832Y20953D01*
G01X8405Y21489D01*
G01X9048Y22033D01*
G01X9768Y22581D01*
G01X10567Y23127D01*
G01X11451Y23667D01*
G01X12423Y24197D01*
G01X13509Y24719D01*
G01X14692Y25216D01*
G01X15974Y25680D01*
G01X17358Y26104D01*
G01X18310Y26354D01*
G01X19096Y26524D01*
G01X20150Y26697D01*
G01X21485Y26848D01*
G01X22988Y26943D01*
G01X24420Y26962D01*
G01X25596Y26918D01*
G01X26482Y26842D01*
G01X26952Y26780D01*
G01X27544Y26676D01*
G01X28401Y26479D01*
G01X29447Y26183D01*
G01X30379Y25869D01*
G01X30988Y25629D01*
G01X31346Y25467D01*
G01X31561Y25357D01*
G01X31693Y25280D01*
G01X31775Y25226D01*
G01X31828Y25187D01*
G01X31867Y25156D01*
G01X31894Y25131D01*
G01X31917Y25108D01*
G01X31932Y25091D01*
G01X31946Y25074D01*
G01X31953Y25063D01*
G01X31956Y25057D01*
G01X31957Y25044D01*
G01X31944Y25028D01*
G01X31919Y25009D01*
G01X31882Y24989D01*
G01X31773Y24940D01*
G01X31538Y24855D01*
G01X30991Y24694D01*
G01X30732Y24628D01*
G01X28420Y24042D01*
G01X28256Y23990D01*
G01X28190Y23965D01*
G01X28153Y23949D01*
G01X28128Y23936D01*
G01X28110Y23926D01*
G01X28097Y23917D01*
G01X28086Y23910D01*
G01X28077Y23902D01*
G01X28069Y23895D01*
G01X28058Y23885D01*
G01X28053Y23875D01*
G01X28045Y23858D01*
G01X28011Y23759D01*
G01X27642Y22400D01*
G01X27199Y20615D01*
G01X26503Y17915D01*
G01X26432Y17689D01*
G01X26414Y17640D01*
G01X26406Y17622D01*
G01X26402Y17614D01*
G01X26399Y17609D01*
G01X26398Y17607D01*
G01X26396Y17605D01*
G01Y17604D01*
G01X26395D01*
G01X26394Y17603D01*
G01X26393D01*
G01X26392D01*
G01X26390Y17605D01*
G01Y17606D01*
G01X26389Y17607D01*
G01X26378Y17636D01*
G01X25192Y20332D01*
G01X24042Y22900D01*
G01X23687Y22829D01*
G01X23381Y22776D01*
G01X23242Y22759D01*
G01X23204Y22756D01*
G01X23197D01*
G01X23133Y22753D01*
G01X23095Y22749D01*
G01X23076Y22746D01*
G01X23060Y22742D01*
G01X23044Y22738D01*
G01X23029Y22732D01*
G01X23015Y22725D01*
G01X23002Y22718D01*
G01X22990Y22710D01*
G01X22979Y22700D01*
G01X22969Y22689D01*
G01X22961Y22677D01*
G01X22953Y22663D01*
G01X22947Y22649D01*
G01X22942Y22632D01*
G01X22938Y22614D01*
G01X22935Y22595D01*
G01X22933Y22574D01*
G01Y22551D01*
G01X22936Y22500D01*
G01X22945Y22441D01*
G01X22959Y22374D01*
G01X22991Y22256D01*
G01X23073Y22012D01*
G01X23358Y21309D01*
G01X24334Y19142D01*
G01X25945Y15707D01*
G01X25976Y15650D01*
G01X25982Y15639D01*
G01X25985Y15636D01*
G01X25987Y15634D01*
G01X26005Y15619D01*
G01X26026Y15608D01*
G01X26052Y15600D01*
G01X26082Y15594D01*
G01X26115Y15591D01*
G01X26152Y15590D01*
G01X26191Y15592D01*
G01X26277Y15601D01*
G01X26371Y15618D01*
G01X26470Y15642D01*
G01X26623Y15690D01*
G01X26776Y15750D01*
G01X26873Y15794D01*
G01X26963Y15841D01*
G01X27044Y15890D01*
G01X27114Y15941D01*
G01X27144Y15966D01*
G01X27170Y15992D01*
G01X27192Y16017D01*
G01X27209Y16042D01*
G01X27223Y16067D01*
G01X27238Y16111D01*
G01X27600Y17440D01*
G01X28235Y19930D01*
G01X29210Y23665D01*
G01X29240Y23758D01*
G01X29247Y23775D01*
G01X29249Y23781D01*
G01X29298Y23882D01*
G01X29311Y23904D01*
G01X29322Y23921D01*
G01X29326Y23927D01*
G01X29331Y23932D01*
G01X29335Y23935D01*
G01X29339Y23937D01*
G01X29343Y23938D01*
G01X29346Y23937D01*
G01X29349Y23934D01*
G01X29351Y23931D01*
G01X29353Y23925D01*
G01X29356Y23919D01*
G01X29358Y23910D01*
G01X29361Y23889D01*
G01X29365Y23845D01*
G01X29370Y23714D01*
G01X29390Y23407D01*
G01X30641D01*
G01X31183Y23552D01*
G01X31447Y23616D01*
G01X31701Y23663D01*
G01X31926Y23693D01*
G01X32122Y23707D01*
G01X32290Y23711D01*
G01X32432Y23706D01*
G01X32551Y23695D01*
G01X32649Y23681D01*
G01X32727Y23665D01*
G01X32801Y23646D01*
G01X32858Y23627D01*
G01X32912Y23606D01*
G01X32952Y23587D01*
G01X32990Y23568D01*
G01X33025Y23546D01*
G01X33049Y23530D01*
G01X33072Y23512D01*
G01X33094Y23493D01*
G01X33107Y23480D01*
G01X33135Y23451D01*
G01X33161Y23419D01*
G01X33185Y23386D01*
G01X33208Y23350D01*
G01X33229Y23313D01*
G01X33258Y23254D01*
G01X33284Y23191D01*
G01X33305Y23125D01*
G01X33322Y23057D01*
G01X33335Y22986D01*
G01X33344Y22914D01*
G01X33348Y22841D01*
G01Y22816D01*
G01X33346Y22755D01*
G01X33341Y22695D01*
G01X33333Y22635D01*
G01X33321Y22577D01*
G01X33306Y22519D01*
G01X33288Y22462D01*
G01X33266Y22405D01*
G01X33241Y22350D01*
G01X33213Y22295D01*
G01X33182Y22242D01*
G01X33138Y22176D01*
G01X33090Y22111D01*
G01X33036Y22048D01*
G01X32978Y21987D01*
G01X32915Y21927D01*
G01X32833Y21858D01*
G01X32744Y21790D01*
G01X32649Y21726D01*
G01X32529Y21653D01*
G01X32400Y21584D01*
G01X32242Y21510D01*
G01X32051Y21433D01*
G01X31823Y21354D01*
G01X31727Y21325D01*
G01X31394Y21237D01*
G01X31141Y21183D01*
G01X31008Y21162D01*
G01X30935Y21155D01*
G01X30894Y21152D01*
G01X30868Y21153D01*
G01X30853D01*
G01X30839Y21155D01*
G01X30828Y21157D01*
G01X30823Y21158D01*
G01X30815Y21161D01*
G01X30811Y21163D01*
G01X30808Y21165D01*
G01X30806Y21167D01*
G01X30798Y21182D01*
G01X30789Y21206D01*
G01X30771Y21286D01*
G01X30745Y21469D01*
G01X30699Y22008D01*
G01X30683Y22331D01*
G01X30641Y23407D01*
G01X29390D01*
G01X29573Y20642D01*
G01X33342D01*
G01X33819Y21105D01*
G01X33905Y21194D01*
G01X34016Y21320D01*
G01X34122Y21455D01*
G01X34220Y21594D01*
G01X34307Y21730D01*
G01X34363Y21832D01*
G01X34403Y21914D01*
G01X34430Y21977D01*
G01X34442Y22012D01*
G01X34589Y22455D01*
G01X34823Y21915D01*
G01X34856Y21832D01*
G01X34901Y21700D01*
G01X34948Y21530D01*
G01X35002Y21290D01*
G01X35056Y20973D01*
G01X35103Y20572D01*
G01X35121Y20335D01*
G01X35141Y19745D01*
G01X35135Y19243D01*
G01X35121Y19002D01*
G01X35108Y18894D01*
G01X35101Y18850D01*
G01X35017Y18404D01*
G01X34179Y19523D01*
G01X33342Y20642D01*
G01X29573D01*
G01X29767Y17708D01*
G01X29807Y17244D01*
G01X29879Y16603D01*
G01X30380Y16685D01*
G01X30558Y16718D01*
G01X30711Y16755D01*
G01X30823Y16788D01*
G01X30890Y16813D01*
G01X30925Y16828D01*
G01X30948Y16839D01*
G01X30963Y16847D01*
G01X30971Y16852D01*
G01X30978Y16857D01*
G01X30984Y16863D01*
G01X30994Y16880D01*
G01X31003Y16911D01*
G01X31010Y16955D01*
G01X31020Y17080D01*
G01X31024Y17456D01*
G01X30988Y18238D01*
G01X30977Y18385D01*
G01X30927Y19259D01*
G01X30926Y19538D01*
G01X30932Y19665D01*
G01X30939Y19736D01*
G01X30946Y19783D01*
G01X30951Y19811D01*
G01X30957Y19831D01*
G01X30961Y19845D01*
G01X30966Y19856D01*
G01X30970Y19867D01*
G01X30974Y19873D01*
G01X30977Y19879D01*
G01X30984Y19888D01*
G01X30986Y19889D01*
G01X30989Y19891D01*
G01X30991Y19893D01*
G01X30992Y19894D01*
G01X31007Y19903D01*
G01X31027Y19913D01*
G01X31078Y19933D01*
G01X31181Y19966D01*
G01X31353Y20011D01*
G01X31595Y20059D01*
G01X31776Y20088D01*
G01X31834Y20093D01*
G01X31871Y20095D01*
G01X31897Y20094D01*
G01X31924Y20092D01*
G01X31949Y20089D01*
G01X31975Y20084D01*
G01X31999Y20077D01*
G01X32025Y20069D01*
G01X32050Y20058D01*
G01X32076Y20045D01*
G01X32101Y20030D01*
G01X32127Y20013D01*
G01X32164Y19986D01*
G01X32202Y19954D01*
G01X32251Y19907D01*
G01X32327Y19827D01*
G01X32451Y19681D01*
G01X32955Y19007D01*
G01X33277Y18563D01*
G01X33722Y17964D01*
G01X33818Y17849D01*
G01X33872Y17791D01*
G01X33912Y17752D01*
G01X33943Y17725D01*
G01X33969Y17704D01*
G01X33992Y17689D01*
G01X34011Y17677D01*
G01X34029Y17667D01*
G01X34048Y17658D01*
G01X34063Y17651D01*
G01X34079Y17646D01*
G01X34095Y17641D01*
G01X34110Y17638D01*
G01X34129Y17634D01*
G01X34148Y17632D01*
G01X34168Y17630D01*
G01X34191D01*
G01X34219Y17631D01*
G01X34255Y17634D01*
G01X34317Y17642D01*
G01X34392Y17656D01*
G01X34586Y17689D01*
G01X34629Y17694D01*
G01X34656Y17695D01*
G01X34672D01*
G01X34686Y17694D01*
G01X34698Y17692D01*
G01X34704Y17691D01*
G01X34709Y17689D01*
G01X34718Y17685D01*
G01X34722Y17682D01*
G01X34726Y17680D01*
G01X34729Y17677D01*
G01X34737Y17666D01*
G01X34739Y17662D01*
G01X34740Y17658D01*
G01X34741Y17653D01*
G01X34742Y17648D01*
G01X34743Y17642D01*
G01Y17637D01*
G01X34742Y17625D01*
G01X34740Y17611D01*
G01X34738Y17596D01*
G01X34731Y17571D01*
G01X34715Y17521D01*
G01X34678Y17421D01*
G01X34573Y17168D01*
G01X34436Y16879D01*
G01X34248Y16530D01*
G01X33998Y16118D01*
G01X33677Y15643D01*
G01X33275Y15111D01*
G01X32810Y14556D01*
G01X32430Y14143D01*
G01X31969Y13684D01*
G01X31419Y13190D01*
G01X30771Y12665D01*
G01X30038Y12131D01*
G01X29193Y11578D01*
G01X28233Y11017D01*
G01X27175Y10469D01*
G01X26047Y9955D01*
G01X24854Y9482D01*
G01X23629Y9066D01*
G01X22379Y8711D01*
G01X21169Y8432D01*
G01X20656Y8333D01*
G01X18867Y8035D01*
G01X18326Y7978D01*
G01X17686Y7945D01*
G01X16100Y7934D01*
G01X14457Y7964D01*
G01X13868Y8009D01*
G01X13348Y8076D01*
G01X12377Y8256D01*
G01X12362Y8259D01*
G01X11425Y8476D01*
G01X10616Y8707D01*
G01X9936Y8939D01*
G01X9361Y9167D01*
G01X8872Y9391D01*
G01X8452Y9609D01*
G01X8101Y9815D01*
G01X7798Y10014D01*
G01X7545Y10199D01*
G01X7367Y10341D01*
G01X6951Y10690D01*
G01X7501Y10772D01*
G01X7607Y10791D01*
G01X7735Y10822D01*
G01X7866Y10861D01*
G01X8019Y10915D01*
G01X8194Y10987D01*
G01X8388Y11079D01*
G01X8581Y11185D01*
G01X8789Y11312D01*
G01X8971Y11437D01*
G01X9144Y11569D01*
G01X9290Y11693D01*
G01X9425Y11821D01*
G01X9535Y11936D01*
G01X9621Y12039D01*
G01X9688Y12126D01*
G01X9698Y12141D01*
G01X9796Y12288D01*
G01X9858Y12393D01*
G01X9903Y12478D01*
G01X9942Y12563D01*
G01X9976Y12650D01*
G01X10005Y12739D01*
G01X10029Y12832D01*
G01X10053Y12950D01*
G01X10075Y13102D01*
G01X10098Y13350D01*
G01X10101Y13405D01*
G01X10108Y13626D01*
G01X10104Y13803D01*
G01X10093Y13944D01*
G01X10078Y14064D01*
G01X10057Y14179D01*
G01X10034Y14276D01*
G01X10010Y14358D01*
G01X9982Y14436D01*
G01X9951Y14511D01*
G01X9916Y14583D01*
G01X9883Y14643D01*
G01X9848Y14699D01*
G01X9809Y14754D01*
G01X9768Y14807D01*
G01X9725Y14857D01*
G01X9677Y14905D01*
G01X9628Y14951D01*
G01X9575Y14996D01*
G01X9510Y15045D01*
G01X9441Y15091D01*
G01X9368Y15134D01*
G01X9279Y15181D01*
G01X9184Y15224D01*
G01X9071Y15269D01*
G01X8937Y15314D01*
G01X8779Y15358D01*
G01X8578Y15402D01*
G01X8326Y15444D01*
G01X7994Y15481D01*
G01X7897Y15489D01*
G01X7101Y15566D01*
G01X6777Y15615D01*
G01X6595Y15652D01*
G01X6468Y15685D01*
G01X6376Y15714D01*
G01X6306Y15740D01*
G01X6248Y15765D01*
G01X6200Y15790D01*
G01X6161Y15812D01*
G01X6129Y15832D01*
G01X6099Y15853D01*
G01X6072Y15876D01*
G01X6046Y15898D01*
G01X6025Y15919D01*
G01X6007Y15940D01*
G01X5989Y15961D01*
G01X5973Y15984D01*
G01X5957Y16007D01*
G01X5941Y16035D01*
G01X5927Y16063D01*
G01X5913Y16093D01*
G01X5907Y16111D01*
G01X5893Y16149D01*
G01X5882Y16187D01*
G01X5868Y16245D01*
G01X5860Y16303D01*
G01X5855Y16361D01*
G01Y16420D01*
G01X3998D01*
G01X3957Y16257D01*
G01X3887Y15905D01*
G01X3862Y15749D01*
G01X3824Y15438D01*
G01X3802Y15130D01*
G01X3801Y15102D01*
G01X4807D01*
G01X5186Y14783D01*
G01X5248Y14735D01*
G01X5327Y14678D01*
G01X5425Y14617D01*
G01X5528Y14560D01*
G01X5632Y14510D01*
G01X5722Y14472D01*
G01X5796Y14445D01*
G01X5855Y14427D01*
G01X5911Y14413D01*
G01X5952Y14405D01*
G01X6711Y14318D01*
G01X7227Y14271D01*
G01X7785Y14213D01*
G01X8026Y14174D01*
G01X8172Y14144D01*
G01X8273Y14116D01*
G01X8352Y14091D01*
G01X8413Y14068D01*
G01X8464Y14045D01*
G01X8506Y14023D01*
G01X8541Y14003D01*
G01X8574Y13982D01*
G01X8600Y13962D01*
G01X8625Y13942D01*
G01X8649Y13920D01*
G01X8671Y13898D01*
G01X8691Y13874D01*
G01X8710Y13850D01*
G01X8728Y13825D01*
G01X8747Y13795D01*
G01X8765Y13763D01*
G01X8783Y13726D01*
G01X8802Y13683D01*
G01X8807Y13669D01*
G01X8823Y13622D01*
G01X8837Y13574D01*
G01X8847Y13526D01*
G01X8854Y13477D01*
G01X8859Y13427D01*
G01X8860Y13378D01*
G01X8858Y13328D01*
G01X8854Y13279D01*
G01X8847Y13229D01*
G01X8837Y13180D01*
G01X8820Y13114D01*
G01X8799Y13048D01*
G01X8772Y12982D01*
G01X8742Y12918D01*
G01X8707Y12854D01*
G01X8669Y12791D01*
G01X8626Y12729D01*
G01X8568Y12653D01*
G01X8503Y12580D01*
G01X8434Y12508D01*
G01X8359Y12440D01*
G01X8279Y12375D01*
G01X8195Y12313D01*
G01X8106Y12254D01*
G01X8013Y12200D01*
G01X7916Y12150D01*
G01X7816Y12104D01*
G01X7711Y12063D01*
G01X7604Y12028D01*
G01X7494Y11997D01*
G01X7381Y11973D01*
G01X7307Y11961D01*
G01X7230Y11954D01*
G01X7150Y11951D01*
G01X7041Y11953D01*
G01X6930Y11961D01*
G01X6817Y11975D01*
G01X6677Y12001D01*
G01X6540Y12036D01*
G01X6434Y12068D01*
G01X6332Y12106D01*
G01X6237Y12147D01*
G01X6171Y12180D01*
G01X6108Y12215D01*
G01X6052Y12252D01*
G01X6017Y12278D01*
G01X5985Y12304D01*
G01X5956Y12331D01*
G01X5929Y12359D01*
G01X5907Y12387D01*
G01X5887Y12415D01*
G01X5871Y12439D01*
G01X5854Y12462D01*
G01X5825Y12495D01*
G01X5794Y12527D01*
G01X5762Y12555D01*
G01X5728Y12581D01*
G01X5705Y12596D01*
G01X5682Y12610D01*
G01X5660Y12621D01*
G01X5637Y12631D01*
G01X5614Y12640D01*
G01X5593Y12645D01*
G01X5582Y12647D01*
G01X5572Y12649D01*
G01X5562Y12650D01*
G01X5552D01*
G01X5531Y12652D01*
G01X5509Y12660D01*
G01X5486Y12672D01*
G01X5464Y12689D01*
G01X5440Y12710D01*
G01X5417Y12736D01*
G01X5393Y12766D01*
G01X5345Y12838D01*
G01X5297Y12925D01*
G01X5250Y13025D01*
G01X5179Y13199D01*
G01X5090Y13470D01*
G01X5010Y13774D01*
G01X4942Y14103D01*
G01X4889Y14448D01*
G01X4807Y15102D01*
G01X3801D01*
G01X3796Y14825D01*
G01X3806Y14524D01*
G01X3831Y14226D01*
G01X3872Y13931D01*
G01X3929Y13640D01*
G01X4000Y13354D01*
G01X4086Y13071D01*
G01X4187Y12793D01*
G01X4302Y12519D01*
G01X4442Y12230D01*
G01X4598Y11946D01*
G01X4771Y11669D01*
G01X4973Y11378D01*
G01X5193Y11094D01*
G01X5431Y10818D01*
G01X5703Y10533D01*
G01X6014Y10240D01*
G01X6346Y9958D01*
G01X6720Y9672D01*
G01X7140Y9384D01*
G01X7584Y9111D01*
G01X8079Y8842D01*
G01X8626Y8579D01*
G01X9229Y8325D01*
G01X9891Y8085D01*
G01X10616Y7864D01*
G01X11406Y7667D01*
G01X12264Y7498D01*
G01X12776Y7418D01*
G01X13455Y7342D01*
G01X14632Y7268D01*
G01X16297Y7246D01*
G01X17861Y7301D01*
G01X18866Y7386D01*
G01X19036Y7406D01*
G01X20357Y7604D01*
G01X21703Y7876D01*
G01X23047Y8218D01*
G01X24381Y8631D01*
G01X25678Y9104D01*
G01X26912Y9627D01*
G01X28061Y10183D01*
G01X29124Y10765D01*
G01X30085Y11355D01*
G01X30947Y11946D01*
G01X31714Y12530D01*
G01X32391Y13102D01*
G01X32983Y13657D01*
G01X33498Y14190D01*
G01X33939Y14697D01*
G01X34315Y15177D01*
G01X34641Y15637D01*
G01X34920Y16078D01*
G01X35156Y16497D01*
G01X35252Y16681D01*
G01X35549Y17307D01*
G01X35695Y17662D01*
G01X35793Y17938D01*
G01X35863Y18174D01*
G01X35920Y18409D01*
G01X35965Y18650D01*
G01X36003Y18927D01*
G01X36034Y19291D01*
G01X36053Y19904D01*
G01X36054Y20111D01*
G01X36039Y20967D01*
G01X36019Y21234D01*
G01X35997Y21403D01*
G01X35975Y21531D01*
G01X35948Y21645D01*
G01X35914Y21763D01*
G01X35867Y21898D01*
G01X35784Y22103D01*
G01X35761Y22156D01*
G01X35593Y22512D01*
G01X35409Y22856D01*
G01X35208Y23188D01*
G01X35001Y23494D01*
G01X34779Y23791D01*
G01X34540Y24076D01*
G01X34275Y24363D01*
G01X33993Y24639D01*
G01X33681Y24913D01*
G01X33351Y25176D01*
G01X32987Y25437D01*
G01X32572Y25702D01*
G01X32116Y25962D01*
G01X31601Y26223D01*
G01X31018Y26481D01*
G01X30344Y26739D01*
G01X29567Y26993D01*
G01X28630Y27247D01*
G01X28475Y27284D01*
G01X27744Y27442D01*
G01X27330Y27507D01*
G01X26872Y27556D01*
G01X25931Y27604D01*
G37*
G36*
G01X21838Y19375D02*
G01X21763Y19371D01*
G01X21674Y19361D01*
G01X21583Y19346D01*
G01X21476Y19322D01*
G01X21365Y19291D01*
G01X21220Y19242D01*
G01X21035Y19168D01*
G01X20887Y19102D01*
G01X20725Y19022D01*
G01X20590Y18946D01*
G01X20464Y18867D01*
G01X20360Y18792D01*
G01X20262Y18715D01*
G01X20182Y18644D01*
G01X20108Y18569D01*
G01X20038Y18492D01*
G01X19973Y18412D01*
G01X19912Y18328D01*
G01X19856Y18240D01*
G01X19803Y18148D01*
G01X19756Y18052D01*
G01X19706Y17937D01*
G01X19661Y17817D01*
G01X19616Y17675D01*
G01X19603Y17626D01*
G01X19571Y17515D01*
G01X19537Y17421D01*
G01X19509Y17356D01*
G01X19489Y17317D01*
G01X20544D01*
G01Y17330D01*
G01X20548Y17361D01*
G01X20555Y17396D01*
G01X20572Y17459D01*
G01X20618Y17595D01*
G01X20631Y17631D01*
G01X20648Y17668D01*
G01X20677Y17723D01*
G01X20711Y17777D01*
G01X20749Y17832D01*
G01X20792Y17887D01*
G01X20855Y17957D01*
G01X20924Y18026D01*
G01X20997Y18092D01*
G01X21074Y18154D01*
G01X21154Y18211D01*
G01X21235Y18264D01*
G01X21318Y18310D01*
G01X21380Y18340D01*
G01X21441Y18366D01*
G01X21501Y18388D01*
G01X21561Y18405D01*
G01X21599Y18414D01*
G01X21636Y18420D01*
G01X21673Y18424D01*
G01X21708Y18426D01*
G01X21731Y18424D01*
G01X21756Y18421D01*
G01X21782Y18415D01*
G01X21809Y18407D01*
G01X21867Y18385D01*
G01X21928Y18355D01*
G01X21989Y18319D01*
G01X22050Y18279D01*
G01X22107Y18234D01*
G01X22159Y18185D01*
G01X22208Y18134D01*
G01X22253Y18079D01*
G01X22294Y18023D01*
G01X22330Y17968D01*
G01X22352Y17928D01*
G01X22371Y17890D01*
G01X22381Y17865D01*
G01X22389Y17842D01*
G01X22395Y17821D01*
G01X22399Y17801D01*
G01X22400Y17793D01*
G01Y17784D01*
G01X22397Y17768D01*
G01X22387Y17752D01*
G01X22370Y17733D01*
G01X22347Y17714D01*
G01X22319Y17694D01*
G01X22248Y17651D01*
G01X22158Y17606D01*
G01X21995Y17537D01*
G01X21740Y17444D01*
G01X21393Y17339D01*
G01X21120Y17274D01*
G01X20932Y17241D01*
G01X20821Y17227D01*
G01X20724Y17223D01*
G01X20670Y17224D01*
G01X20639Y17226D01*
G01X20625Y17228D01*
G01X20613Y17231D01*
G01X20601Y17234D01*
G01X20591Y17237D01*
G01X20582Y17242D01*
G01X20574Y17247D01*
G01X20566Y17253D01*
G01X20560Y17259D01*
G01X20555Y17266D01*
G01X20551Y17275D01*
G01X20548Y17284D01*
G01X20546Y17294D01*
G01X20544Y17305D01*
G01Y17317D01*
G01X19489D01*
G01X19488Y17314D01*
G01X19467Y17278D01*
G01X19453Y17257D01*
G01X19440Y17238D01*
G01X19426Y17223D01*
G01X19413Y17210D01*
G01X19406Y17204D01*
G01X19400Y17199D01*
G01X19393Y17195D01*
G01X19387Y17192D01*
G01X19381Y17189D01*
G01X19375Y17187D01*
G01X19370Y17185D01*
G01X19363D01*
G01X19358D01*
G01X19352D01*
G01X19347Y17187D01*
G01X19342Y17189D01*
G01X19337Y17191D01*
G01X19331Y17195D01*
G01X19327Y17199D01*
G01X19322Y17204D01*
G01X19318Y17210D01*
G01X19313Y17216D01*
G01X19309Y17223D01*
G01X19305Y17231D01*
G01X19298Y17249D01*
G01X19291Y17269D01*
G01X19286Y17293D01*
G01X19281Y17320D01*
G01X19276Y17366D01*
G01X19273Y17419D01*
G01X19272Y17458D01*
G01X19270Y17482D01*
G01X19265Y17510D01*
G01X19256Y17540D01*
G01X19245Y17573D01*
G01X19213Y17645D01*
G01X19170Y17724D01*
G01X19118Y17806D01*
G01X19059Y17890D01*
G01X18993Y17973D01*
G01X18923Y18052D01*
G01X18868Y18108D01*
G01X18810Y18160D01*
G01X18750Y18207D01*
G01X18689Y18249D01*
G01X18626Y18287D01*
G01X18561Y18322D01*
G01X18495Y18350D01*
G01X18428Y18375D01*
G01X18359Y18396D01*
G01X18289Y18412D01*
G01X18218Y18424D01*
G01X18147Y18431D01*
G01X18074Y18434D01*
G01X18001Y18432D01*
G01X17927Y18427D01*
G01X17853Y18417D01*
G01X17778Y18403D01*
G01X17703Y18385D01*
G01X17628Y18362D01*
G01X17535Y18328D01*
G01X17441Y18287D01*
G01X17348Y18240D01*
G01X17256Y18187D01*
G01X17164Y18127D01*
G01X17074Y18060D01*
G01X16985Y17988D01*
G01X16880Y17892D01*
G01X16778Y17788D01*
G01X16695Y17694D01*
G01X16555Y17533D01*
G01X16508Y17484D01*
G01X16474Y17454D01*
G01X16451Y17435D01*
G01X16436Y17424D01*
G01X16421Y17416D01*
G01X16407Y17409D01*
G01X16394Y17403D01*
G01X16380Y17398D01*
G01X16374Y17397D01*
G01X16368Y17396D01*
G01X16361Y17395D01*
G01X16355D01*
G01X16348Y17394D01*
G01X16342Y17395D01*
G01X16336D01*
G01X16329Y17396D01*
G01X16316Y17400D01*
G01X16303Y17404D01*
G01X16291Y17410D01*
G01X16277Y17416D01*
G01X16263Y17425D01*
G01X16242Y17440D01*
G01X16212Y17464D01*
G01X16170Y17500D01*
G01X16134Y17531D01*
G01X16096Y17560D01*
G01X16057Y17586D01*
G01X16004Y17619D01*
G01X15947Y17648D01*
G01X15889Y17674D01*
G01X15830Y17696D01*
G01X15768Y17715D01*
G01X15706Y17730D01*
G01X15642Y17742D01*
G01X15577Y17751D01*
G01X15512Y17757D01*
G01X15429Y17759D01*
G01X15345Y17756D01*
G01X15261Y17748D01*
G01X15178Y17735D01*
G01X15094Y17718D01*
G01X15011Y17695D01*
G01X14930Y17668D01*
G01X14849Y17636D01*
G01X14771Y17599D01*
G01X14695Y17559D01*
G01X14621Y17513D01*
G01X14550Y17463D01*
G01X14496Y17419D01*
G01X14444Y17374D01*
G01X14394Y17325D01*
G01X14347Y17274D01*
G01X14303Y17219D01*
G01X14272Y17177D01*
G01X14222Y17109D01*
G01X14189Y17069D01*
G01X14169Y17047D01*
G01X14150Y17031D01*
G01X14141Y17024D01*
G01X14132Y17017D01*
G01X14124Y17012D01*
G01X14115Y17008D01*
G01X14108Y17006D01*
G01X14100Y17004D01*
G01X14092Y17003D01*
G01X14084D01*
G01X14077D01*
G01X14070Y17005D01*
G01X14062Y17008D01*
G01X14055Y17012D01*
G01X14048Y17017D01*
G01X14041Y17023D01*
G01X14034Y17029D01*
G01X14026Y17037D01*
G01X14012Y17055D01*
G01X13996Y17076D01*
G01X13989Y17088D01*
G01X13974Y17109D01*
G01X13965Y17119D01*
G01X13957Y17128D01*
G01X13948Y17137D01*
G01X13938Y17145D01*
G01X13928Y17153D01*
G01X13917Y17160D01*
G01X13905Y17166D01*
G01X13893Y17172D01*
G01X13881Y17178D01*
G01X13854Y17187D01*
G01X13824Y17194D01*
G01X13792Y17199D01*
G01X13756Y17202D01*
G01X13718Y17203D01*
G01X13655Y17201D01*
G01X13585Y17194D01*
G01X13479Y17178D01*
G01X13451Y17173D01*
G01X13280Y17138D01*
G01X13226Y17124D01*
G01X13191Y17112D01*
G01X13170Y17104D01*
G01X13152Y17095D01*
G01X13134Y17085D01*
G01X13118Y17074D01*
G01X13104Y17063D01*
G01X13097Y17056D01*
G01X13085Y17043D01*
G01X13079Y17036D01*
G01X13069Y17020D01*
G01X13061Y17003D01*
G01X13053Y16985D01*
G01X13046Y16965D01*
G01X13041Y16943D01*
G01X13034Y16906D01*
G01X13030Y16865D01*
G01X13025Y16785D01*
G01X13026Y16525D01*
G01X13102Y15199D01*
G01X13177Y14214D01*
G01X13317Y12469D01*
G01X13736Y12504D01*
G01X13865Y12518D01*
G01X13987Y12539D01*
G01X14077Y12560D01*
G01X14140Y12579D01*
G01X14180Y12593D01*
G01X14203Y12602D01*
G01X14222Y12613D01*
G01X14231Y12617D01*
G01X14238Y12622D01*
G01X14244Y12627D01*
G01X14249Y12632D01*
G01X14259Y12650D01*
G01X14266Y12682D01*
G01X14271Y12729D01*
G01X14277Y12863D01*
G01X14272Y13265D01*
G01X14206Y14264D01*
G01X14123Y15349D01*
G01X14120Y15541D01*
G01X14124Y15643D01*
G01X14131Y15711D01*
G01X14138Y15763D01*
G01X14146Y15806D01*
G01X14155Y15842D01*
G01X14166Y15876D01*
G01X14178Y15909D01*
G01X14191Y15939D01*
G01X14206Y15969D01*
G01X14227Y16005D01*
G01X14255Y16050D01*
G01X14306Y16121D01*
G01X14361Y16189D01*
G01X14440Y16277D01*
G01X14530Y16365D01*
G01X14624Y16449D01*
G01X14719Y16525D01*
G01X14792Y16578D01*
G01X14844Y16611D01*
G01X14860Y16620D01*
G01X14970Y16680D01*
G01X15022Y16704D01*
G01X15050Y16715D01*
G01X15075Y16724D01*
G01X15092Y16728D01*
G01X15108Y16731D01*
G01X15124Y16733D01*
G01X15139Y16734D01*
G01X15154D01*
G01X15168Y16732D01*
G01X15183Y16729D01*
G01X15198Y16725D01*
G01X15212Y16720D01*
G01X15227Y16714D01*
G01X15242Y16707D01*
G01X15257Y16697D01*
G01X15280Y16682D01*
G01X15313Y16656D01*
G01X15357Y16617D01*
G01X15440Y16537D01*
G01X15481Y16493D01*
G01X15509Y16460D01*
G01X15535Y16424D01*
G01X15559Y16386D01*
G01X15582Y16344D01*
G01X15603Y16299D01*
G01X15623Y16248D01*
G01X15647Y16173D01*
G01X15669Y16087D01*
G01X15700Y15932D01*
G01X15743Y15635D01*
G01X15833Y14672D01*
G01X15964Y13071D01*
G01X16265Y13114D01*
G01X16464Y13146D01*
G01X16559Y13167D01*
G01X16623Y13185D01*
G01X16661Y13198D01*
G01X16697Y13213D01*
G01X16722Y13224D01*
G01X16745Y13237D01*
G01X16767Y13250D01*
G01X16788Y13264D01*
G01X16807Y13280D01*
G01X16824Y13296D01*
G01X16840Y13313D01*
G01X16855Y13332D01*
G01X16868Y13352D01*
G01X16880Y13373D01*
G01X16892Y13395D01*
G01X16901Y13419D01*
G01X16910Y13444D01*
G01X16917Y13470D01*
G01X16926Y13508D01*
G01X16932Y13549D01*
G01X16937Y13605D01*
G01X16941Y13678D01*
G01X16939Y13788D01*
G01X16925Y14016D01*
G01X16908Y14190D01*
G01X16842Y15069D01*
G01X16814Y15859D01*
G01X16818Y16286D01*
G01X16828Y16430D01*
G01X16837Y16517D01*
G01X16849Y16586D01*
G01X16862Y16641D01*
G01X16874Y16685D01*
G01X16889Y16726D01*
G01X16903Y16759D01*
G01X16917Y16791D01*
G01X16938Y16828D01*
G01X16960Y16864D01*
G01X16989Y16905D01*
G01X17027Y16952D01*
G01X17092Y17026D01*
G01X17151Y17085D01*
G01X17206Y17133D01*
G01X17263Y17177D01*
G01X17323Y17216D01*
G01X17383Y17250D01*
G01X17445Y17280D01*
G01X17486Y17296D01*
G01X17528Y17310D01*
G01X17570Y17322D01*
G01X17612Y17331D01*
G01X17653Y17338D01*
G01X17695Y17342D01*
G01X17735Y17343D01*
G01X17780Y17342D01*
G01X17823Y17338D01*
G01X17864Y17330D01*
G01X17903Y17320D01*
G01X17941Y17306D01*
G01X17977Y17288D01*
G01X18012Y17267D01*
G01X18044Y17243D01*
G01X18076Y17214D01*
G01X18105Y17182D01*
G01X18134Y17144D01*
G01X18160Y17103D01*
G01X18186Y17058D01*
G01X18211Y17007D01*
G01X18245Y16922D01*
G01X18276Y16826D01*
G01X18315Y16680D01*
G01X18358Y16465D01*
G01X18409Y16103D01*
G01X18484Y15215D01*
G01X18489Y15134D01*
G01X18576Y13708D01*
G01X18939Y13781D01*
G01X19257Y13837D01*
G01X19370Y13851D01*
G01X19402Y13853D01*
G01X19408D01*
G01X19418Y13858D01*
G01X19429Y13871D01*
G01X19439Y13893D01*
G01X19449Y13922D01*
G01X19467Y14003D01*
G01X19483Y14110D01*
G01X19503Y14311D01*
G01X19517Y14637D01*
G01X19518Y14726D01*
G01X19523Y15598D01*
G01X19735Y15201D01*
G01X19785Y15113D01*
G01X19839Y15029D01*
G01X19897Y14950D01*
G01X19950Y14885D01*
G01X20005Y14824D01*
G01X20063Y14766D01*
G01X20123Y14712D01*
G01X20186Y14661D01*
G01X20251Y14613D01*
G01X20318Y14569D01*
G01X20388Y14529D01*
G01X20460Y14492D01*
G01X20533Y14460D01*
G01X20609Y14430D01*
G01X20686Y14405D01*
G01X20766Y14384D01*
G01X20846Y14366D01*
G01X20943Y14350D01*
G01X21041Y14340D01*
G01X21142Y14336D01*
G01X21171Y14335D01*
G01X21297Y14338D01*
G01X21422Y14348D01*
G01X21567Y14367D01*
G01X21709Y14394D01*
G01X21851Y14429D01*
G01X21988Y14472D01*
G01X22123Y14522D01*
G01X22255Y14580D01*
G01X22382Y14644D01*
G01X22505Y14715D01*
G01X22624Y14792D01*
G01X22737Y14876D01*
G01X22829Y14952D01*
G01X22916Y15033D01*
G01X22999Y15118D01*
G01X23077Y15206D01*
G01X23149Y15299D01*
G01X23216Y15395D01*
G01X23277Y15494D01*
G01X23314Y15562D01*
G01X23420Y15772D01*
G01X23441Y15820D01*
G01X23452Y15851D01*
G01X23457Y15870D01*
G01X23460Y15888D01*
G01X23462Y15904D01*
G01X23463Y15912D01*
G01Y15919D01*
G01X23462Y15926D01*
G01X23461Y15933D01*
G01X23460Y15940D01*
G01X23458Y15947D01*
G01X23456Y15953D01*
G01X23453Y15959D01*
G01X23449Y15965D01*
G01X23446Y15971D01*
G01X23442Y15976D01*
G01X23432Y15987D01*
G01X23426Y15992D01*
G01X23413Y16003D01*
G01X23398Y16013D01*
G01X23381Y16022D01*
G01X23351Y16037D01*
G01X23291Y16061D01*
G01X23128Y16119D01*
G01X23030Y16151D01*
G01X22980Y16164D01*
G01X22945Y16171D01*
G01X22922Y16174D01*
G01X22900Y16176D01*
G01X22879D01*
G01X22858Y16175D01*
G01X22837Y16173D01*
G01X22816Y16170D01*
G01X22796Y16165D01*
G01X22775Y16158D01*
G01X22754Y16150D01*
G01X22733Y16140D01*
G01X22712Y16129D01*
G01X22678Y16109D01*
G01X22643Y16085D01*
G01X22593Y16046D01*
G01X22509Y15973D01*
G01X22300Y15770D01*
G01X22192Y15669D01*
G01X22101Y15591D01*
G01X22009Y15522D01*
G01X21933Y15471D01*
G01X21858Y15426D01*
G01X21784Y15388D01*
G01X21725Y15361D01*
G01X21666Y15339D01*
G01X21609Y15320D01*
G01X21551Y15306D01*
G01X21495Y15295D01*
G01X21453Y15289D01*
G01X21412Y15286D01*
G01X21371Y15284D01*
G01X21331Y15285D01*
G01X21291Y15289D01*
G01X21252Y15294D01*
G01X21213Y15301D01*
G01X21174Y15311D01*
G01X21137Y15323D01*
G01X21100Y15337D01*
G01X21064Y15354D01*
G01X21029Y15372D01*
G01X20994Y15393D01*
G01X20960Y15416D01*
G01X20926Y15441D01*
G01X20894Y15468D01*
G01X20851Y15508D01*
G01X20811Y15551D01*
G01X20772Y15599D01*
G01X20734Y15650D01*
G01X20698Y15705D01*
G01X20655Y15780D01*
G01X20647Y15795D01*
G01X20567Y15943D01*
G01X20549Y15982D01*
G01X20539Y16006D01*
G01X20535Y16017D01*
G01X20532Y16028D01*
G01X20530Y16039D01*
G01X20528Y16049D01*
G01Y16059D01*
G01Y16069D01*
G01X20530Y16079D01*
G01X20532Y16088D01*
G01X20535Y16098D01*
G01X20540Y16106D01*
G01X20546Y16115D01*
G01X20552Y16124D01*
G01X20560Y16133D01*
G01X20570Y16141D01*
G01X20580Y16150D01*
G01X20592Y16158D01*
G01X20620Y16175D01*
G01X20654Y16193D01*
G01X20717Y16219D01*
G01X20824Y16256D01*
G01X21228Y16371D01*
G01X22100Y16595D01*
G01X23423Y16936D01*
G01X23411Y17592D01*
G01X23403Y17779D01*
G01X23387Y17939D01*
G01X23367Y18074D01*
G01X23342Y18201D01*
G01X23314Y18307D01*
G01X23282Y18408D01*
G01X23251Y18490D01*
G01X23217Y18568D01*
G01X23179Y18643D01*
G01X23137Y18714D01*
G01X23100Y18771D01*
G01X23061Y18824D01*
G01X23019Y18875D01*
G01X22975Y18924D01*
G01X22928Y18969D01*
G01X22879Y19013D01*
G01X22828Y19054D01*
G01X22774Y19092D01*
G01X22718Y19128D01*
G01X22647Y19167D01*
G01X22598Y19192D01*
G01X22481Y19244D01*
G01X22379Y19283D01*
G01X22292Y19312D01*
G01X22206Y19335D01*
G01X22133Y19351D01*
G01X22059Y19363D01*
G01X21986Y19371D01*
G01X21913Y19375D01*
G37*
G36*
G01X12083Y18944D02*
G01X12042Y18943D01*
G01X12001Y18940D01*
G01X11958Y18933D01*
G01X11915Y18923D01*
G01X11871Y18910D01*
G01X11841Y18899D01*
G01X11805Y18883D01*
G01X11770Y18866D01*
G01X11736Y18846D01*
G01X11703Y18825D01*
G01X11672Y18802D01*
G01X11643Y18777D01*
G01X11615Y18751D01*
G01X11589Y18723D01*
G01X11564Y18694D01*
G01X11541Y18664D01*
G01X11520Y18632D01*
G01X11500Y18599D01*
G01X11482Y18566D01*
G01X11466Y18531D01*
G01X11452Y18496D01*
G01X11439Y18460D01*
G01X11428Y18424D01*
G01X11420Y18387D01*
G01X11413Y18349D01*
G01X11408Y18311D01*
G01X11405Y18273D01*
G01X11404Y18235D01*
G01X11405Y18197D01*
G01X11409Y18159D01*
G01X11414Y18121D01*
G01X11421Y18083D01*
G01X11431Y18046D01*
G01X11443Y18009D01*
G01X11456Y17973D01*
G01X11473Y17937D01*
G01X11491Y17902D01*
G01X11512Y17868D01*
G01X11545Y17821D01*
G01X11579Y17778D01*
G01X11613Y17740D01*
G01X11637Y17717D01*
G01X11661Y17696D01*
G01X11686Y17677D01*
G01X11710Y17660D01*
G01X11736Y17645D01*
G01X11761Y17632D01*
G01X11788Y17621D01*
G01X11814Y17612D01*
G01X11840Y17605D01*
G01X11868Y17600D01*
G01X11895Y17597D01*
G01X11923Y17596D01*
G01X11951Y17597D01*
G01X11980Y17600D01*
G01X12009Y17605D01*
G01X12038Y17612D01*
G01X12068Y17621D01*
G01X12098Y17632D01*
G01X12128Y17645D01*
G01X12174Y17668D01*
G01X12221Y17696D01*
G01X12269Y17728D01*
G01X12317Y17764D01*
G01X12383Y17820D01*
G01X12399Y17835D01*
G01X12434Y17870D01*
G01X12465Y17905D01*
G01X12494Y17942D01*
G01X12519Y17979D01*
G01X12542Y18016D01*
G01X12562Y18055D01*
G01X12579Y18093D01*
G01X12593Y18133D01*
G01X12605Y18173D01*
G01X12614Y18212D01*
G01X12621Y18252D01*
G01X12624Y18292D01*
G01X12626Y18331D01*
G01X12625Y18371D01*
G01X12622Y18409D01*
G01X12617Y18448D01*
G01X12609Y18486D01*
G01X12599Y18523D01*
G01X12588Y18559D01*
G01X12574Y18594D01*
G01X12558Y18628D01*
G01X12540Y18662D01*
G01X12520Y18693D01*
G01X12499Y18724D01*
G01X12476Y18753D01*
G01X12451Y18780D01*
G01X12425Y18806D01*
G01X12396Y18830D01*
G01X12367Y18851D01*
G01X12336Y18871D01*
G01X12303Y18889D01*
G01X12270Y18905D01*
G01X12235Y18917D01*
G01X12199Y18928D01*
G01X12161Y18936D01*
G01X12122Y18941D01*
G37*
G36*
G01X10734Y18425D02*
G01X10721Y18424D01*
G01X10709Y18423D01*
G01X10693Y18421D01*
G01X10673Y18417D01*
G01X10644Y18409D01*
G01X10583Y18390D01*
G01X10414Y18332D01*
G01X10370Y18319D01*
G01X10328Y18306D01*
G01X10290Y18293D01*
G01X10254Y18277D01*
G01X10222Y18260D01*
G01X10194Y18240D01*
G01X10180Y18230D01*
G01X10168Y18219D01*
G01X10155Y18207D01*
G01X10144Y18195D01*
G01X10134Y18182D01*
G01X10123Y18168D01*
G01X10114Y18153D01*
G01X10097Y18122D01*
G01X10082Y18088D01*
G01X10069Y18050D01*
G01X10057Y18008D01*
G01X10043Y17937D01*
G01X10029Y17828D01*
G01X10025Y17759D01*
G01Y17522D01*
G01X10119Y15829D01*
G01X10404Y12711D01*
G01X10462Y12307D01*
G01X10481Y12213D01*
G01X10491Y12174D01*
G01X10497Y12156D01*
G01X10500Y12150D01*
G01X10513Y12129D01*
G01X10527Y12107D01*
G01X10544Y12085D01*
G01X10583Y12042D01*
G01X10628Y12001D01*
G01X10677Y11962D01*
G01X10729Y11927D01*
G01X10782Y11897D01*
G01X10836Y11873D01*
G01X10863Y11864D01*
G01X10879Y11860D01*
G01X10898Y11856D01*
G01X10940Y11850D01*
G01X10988Y11848D01*
G01X11071D01*
G01X11199Y11858D01*
G01X11382Y11883D01*
G01X11666Y11936D01*
G01X12004Y12019D01*
G01X12326Y12116D01*
G01X12537Y12193D01*
G01X12656Y12243D01*
G01X12731Y12281D01*
G01X12774Y12305D01*
G01X12809Y12329D01*
G01X12824Y12341D01*
G01X12838Y12352D01*
G01X12849Y12363D01*
G01X12858Y12374D01*
G01X12865Y12385D01*
G01X12870Y12395D01*
G01X12873Y12406D01*
G01X12875Y12423D01*
G01X12879Y12473D01*
G01X12880Y12744D01*
G01X12730Y15794D01*
G01X12649Y16773D01*
G01X12635Y16877D01*
G01X12626Y16919D01*
G01X12622Y16932D01*
G01X12619Y16939D01*
G01X12602Y16943D01*
G01X12568D01*
G01X12520Y16938D01*
G01X12388Y16914D01*
G01X12129Y16850D01*
G01X11675Y16725D01*
G01X11762Y14796D01*
G01X11811Y13348D01*
G01X11806Y13179D01*
G01X11800Y13099D01*
G01X11794Y13053D01*
G01X11788Y13021D01*
G01X11783Y13000D01*
G01X11778Y12984D01*
G01X11773Y12970D01*
G01X11769Y12960D01*
G01X11764Y12951D01*
G01X11761Y12945D01*
G01X11757Y12939D01*
G01X11753Y12934D01*
G01X11749Y12929D01*
G01X11745Y12925D01*
G01X11740Y12921D01*
G01X11727Y12912D01*
G01X11717Y12908D01*
G01X11711Y12906D01*
G01X11706Y12905D01*
G01X11700Y12904D01*
G01X11694Y12903D01*
G01X11687D01*
G01X11678D01*
G01X11668D01*
G01X11652Y12905D01*
G01X11625Y12909D01*
G01X11620Y12910D01*
G01X11601Y12914D01*
G01X11584Y12919D01*
G01X11567Y12926D01*
G01X11551Y12935D01*
G01X11536Y12945D01*
G01X11521Y12958D01*
G01X11507Y12972D01*
G01X11494Y12990D01*
G01X11481Y13010D01*
G01X11469Y13034D01*
G01X11457Y13061D01*
G01X11436Y13125D01*
G01X11415Y13206D01*
G01X11386Y13361D01*
G01X11329Y13821D01*
G01X11243Y14817D01*
G01X10990Y17801D01*
G01X10955Y18041D01*
G01X10932Y18152D01*
G01X10915Y18218D01*
G01X10902Y18259D01*
G01X10891Y18289D01*
G01X10881Y18313D01*
G01X10871Y18332D01*
G01X10863Y18346D01*
G01X10856Y18357D01*
G01X10849Y18367D01*
G01X10842Y18376D01*
G01X10836Y18382D01*
G01X10830Y18389D01*
G01X10823Y18394D01*
G01X10817Y18399D01*
G01X10811Y18404D01*
G01X10804Y18408D01*
G01X10797Y18411D01*
G01X10790Y18415D01*
G01X10783Y18418D01*
G01X10776Y18420D01*
G01X10769Y18422D01*
G01X10761Y18423D01*
G01X10754Y18424D01*
G01X10744Y18425D01*
G37*
G04 Image End*
G04 Image End*

G04 PolygonModel Start*
G54D10*
G01X71614Y34500D02*
G01X2000Y34500D01*
G04 PolygonModel End*

G04 Rect Start*
G01X2138Y31855D02*
G01X2138Y2645D01*
G01X92562D01*
G01Y31855D01*
G01X2138D01*
G01X2138Y31855D02*
G01X2138Y2645D01*
G01X92562D01*
G01Y31855D01*
G01X2138D01*
G04 Rect End*

M02*
